<svg width="25" height="26" viewBox="0 0 25 26" xmlns="http://www.w3.org/2000/svg">
<path d="M22.8594 4.34033V2.96533H20.9063V4.34033H19.5313V6.29346H20.9063V7.65283H22.8594V6.29346H24.2188V4.34033H22.8594ZM19.5781 8.96533C18.2806 9.00674 17.007 9.32646 15.8438 9.90283L15.625 9.99658C15.5007 9.99658 15.3815 9.9472 15.2936 9.85929C15.2056 9.77138 15.1563 9.65215 15.1563 9.52783V4.91846C15.1563 4.40583 14.9548 3.91372 14.5953 3.54832C14.2357 3.18292 13.747 2.97353 13.2344 2.96533H2.73439C2.21639 2.96533 1.7196 3.17111 1.35332 3.53739C0.987038 3.90367 0.781263 4.40046 0.781263 4.91846V9.60596C0.775048 9.91841 0.830967 10.229 0.945773 10.5196C1.06058 10.8103 1.23198 11.0752 1.45004 11.2991C1.66809 11.523 1.92844 11.7013 2.21598 11.8237C2.50352 11.9461 2.81251 12.0102 3.12501 12.0122C3.44928 12.0049 3.76852 11.9305 4.06251 11.7935C5.01898 11.2534 6.09003 10.9481 7.18751 10.9028C7.81251 10.8686 8.42576 11.0825 8.89391 11.498C9.36207 11.9134 9.64727 12.4969 9.68751 13.1216C9.64727 13.7462 9.36207 14.3297 8.89391 14.7452C8.42576 15.1607 7.81251 15.3746 7.18751 15.3403C6.09003 15.295 5.01898 14.9898 4.06251 14.4497C3.76852 14.3127 3.44928 14.2382 3.12501 14.231C2.50198 14.2351 1.90587 14.4855 1.46677 14.9275C1.02768 15.3695 0.78125 15.9673 0.781263 16.5903V21.2778C0.775012 21.5382 0.820912 21.7973 0.916263 22.0397C1.01161 22.2821 1.15449 22.5029 1.33648 22.6893C1.51847 22.8757 1.7359 23.0237 1.97597 23.1248C2.21604 23.2259 2.47391 23.2779 2.73439 23.2778H13.2344C13.7524 23.2778 14.2492 23.0721 14.6155 22.7058C14.9817 22.3395 15.1875 21.8427 15.1875 21.3247V16.7622C15.1811 16.6994 15.1874 16.6359 15.2061 16.5756C15.2248 16.5153 15.2555 16.4593 15.2964 16.4112C15.3373 16.363 15.3874 16.3236 15.4439 16.2953C15.5004 16.267 15.562 16.2505 15.625 16.2466C15.6869 16.234 15.7507 16.234 15.8125 16.2466C16.9758 16.823 18.2493 17.1427 19.5469 17.1841C20.123 17.2341 20.7032 17.1638 21.2507 16.9776C21.7982 16.7914 22.301 16.4935 22.7272 16.1027C23.1534 15.7119 23.4937 15.2367 23.7265 14.7074C23.9593 14.178 24.0795 13.6061 24.0795 13.0278C24.0795 12.4496 23.9593 11.8776 23.7265 11.3483C23.4937 10.8189 23.1534 10.3438 22.7272 9.95298C22.301 9.56216 21.7982 9.26421 21.2507 9.07805C20.7032 8.89189 20.123 8.82158 19.5469 8.87158L19.5781 8.96533ZM21.5313 14.6841C21.2706 14.9279 20.963 15.116 20.6272 15.2369C20.2913 15.3578 19.9344 15.4089 19.5781 15.3872C18.5609 15.3418 17.565 15.0809 16.6563 14.6216C16.3368 14.4546 15.985 14.3586 15.625 14.3403C14.9827 14.3403 14.3667 14.5955 13.9125 15.0497C13.4583 15.5039 13.2031 16.1199 13.2031 16.7622V21.3247H2.73439V16.6372C2.73826 16.5348 2.78065 16.4377 2.85309 16.3653C2.92552 16.2928 3.02265 16.2504 3.12501 16.2466H3.26564L3.59376 16.3872C4.70028 16.9786 5.93295 17.2948 7.18751 17.3091C8.33291 17.3428 9.44492 16.9209 10.2797 16.1359C11.1145 15.3509 11.6039 14.2669 11.6406 13.1216C11.5999 11.979 11.1087 10.899 10.2743 10.1174C9.44001 9.33574 8.33029 8.91596 7.18751 8.94971C5.93295 8.96397 4.70028 9.28018 3.59376 9.87158L3.26564 9.99658C3.21973 10.01 3.17092 10.01 3.12501 9.99658C3.02 9.99254 2.92064 9.94796 2.8478 9.87221C2.77496 9.79646 2.73431 9.69542 2.73439 9.59033V4.90283H13.2344V9.48096C13.2343 10.1179 13.4852 10.7292 13.9327 11.1825C14.3801 11.6358 14.9881 11.8946 15.625 11.9028C15.9699 11.8997 16.3103 11.8252 16.625 11.6841C17.5337 11.2248 18.5297 10.9638 19.5469 10.9185C19.9039 10.884 20.2641 10.9231 20.6054 11.0333C20.9467 11.1435 21.2618 11.3224 21.5313 11.5591C21.9207 11.9613 22.1385 12.4992 22.1385 13.0591C22.1385 13.619 21.9207 14.1569 21.5313 14.5591V14.6841Z" />
</svg>
