<svg width="23" height="24" viewBox="0 0 23 24" fill="none" xmlns="http://www.w3.org/2000/svg">
<path fill-rule="evenodd" clip-rule="evenodd" d="M11.5 12.1216L16.7083 6.91329C16.7083 4.0368 14.3764 1.70496 11.5 1.70496C8.6235 1.70496 6.29163 4.0368 6.29163 6.91329L11.5 12.1216Z" stroke="#E0E0E0" stroke-width="2.08333" stroke-linecap="round" stroke-linejoin="round"/>
<path fill-rule="evenodd" clip-rule="evenodd" d="M6.29165 17.33L11.5 12.1217L6.29165 6.91333C3.41516 6.91333 1.08331 9.24521 1.08331 12.1217C1.08331 14.9981 3.41516 17.33 6.29165 17.33Z" stroke="#E0E0E0" stroke-width="2.08333" stroke-linecap="round" stroke-linejoin="round"/>
<path fill-rule="evenodd" clip-rule="evenodd" d="M16.7083 17.33C19.5848 17.33 21.9167 14.9981 21.9167 12.1217C21.9167 9.24521 19.5848 6.91333 16.7083 6.91333L11.5 12.1217L16.7083 17.33Z" stroke="#E0E0E0" stroke-width="2.08333" stroke-linecap="round" stroke-linejoin="round"/>
<path fill-rule="evenodd" clip-rule="evenodd" d="M11.5 22.5382C14.3764 22.5382 16.7083 20.2064 16.7083 17.3299L11.5 12.1216L6.29163 17.3299C6.29163 20.2064 8.6235 22.5382 11.5 22.5382Z" stroke="#E0E0E0" stroke-width="2.08333" stroke-linecap="round" stroke-linejoin="round"/>
</svg>
