<svg width="21" height="24" viewBox="0 0 21 24" fill="none" xmlns="http://www.w3.org/2000/svg">
<path d="M19.875 12.1216C19.875 8.282 19.751 5.59814 19.6339 3.91742C19.5417 2.58929 18.55 1.55335 17.224 1.43721C15.7714 1.30908 13.5651 1.18408 10.5 1.18408C7.4349 1.18408 5.22917 1.30908 3.77604 1.43721C2.45 1.55335 1.45833 2.58929 1.36615 3.91742C1.24896 5.59814 1.125 8.282 1.125 12.1216M19.875 12.1216C19.875 15.9612 19.751 18.645 19.6339 20.3257C19.5417 21.6539 18.55 22.6898 17.224 22.806C15.7708 22.9341 13.5651 23.0591 10.5 23.0591C7.4349 23.0591 5.22865 22.9341 3.77604 22.806C2.45 22.6898 1.45833 21.6539 1.36615 20.3257C1.24896 18.645 1.125 15.9612 1.125 12.1216M19.875 12.1216H1.125" stroke="#E0E0E0" stroke-width="1.5625" stroke-linecap="round" stroke-linejoin="round"/>
<path d="M19.5885 20.6726C17.4651 18.5528 16.0016 17.3862 15.0865 16.7554C14.3469 16.245 13.4344 16.3284 12.7453 16.9065C11.9417 17.5799 10.6464 18.7455 8.67708 20.7153C7.93253 21.4575 7.20032 22.212 6.48073 22.9784M4.77083 8.47575H16.2292M4.77083 5.09033H11.0208M7.375 16.8091C7.375 17.2235 7.21038 17.6209 6.91735 17.9139C6.62433 18.207 6.2269 18.3716 5.8125 18.3716C5.3981 18.3716 5.00067 18.207 4.70765 17.9139C4.41462 17.6209 4.25 17.2235 4.25 16.8091C4.25 16.3947 4.41462 15.9973 4.70765 15.7042C5.00067 15.4112 5.3981 15.2466 5.8125 15.2466C6.2269 15.2466 6.62433 15.4112 6.91735 15.7042C7.21038 15.9973 7.375 16.3947 7.375 16.8091Z" stroke="#E0E0E0" stroke-width="1.5625" stroke-linecap="round" stroke-linejoin="round"/>
</svg>
