<svg width="738" height="738" viewBox="0 0 738 738" fill="none" xmlns="http://www.w3.org/2000/svg">
<path d="M160.814 565.23C149.94 545.382 147.34 525.075 154.714 503.733C161.29 521.396 172.793 534.603 190.184 543.221C195.137 536.221 200.022 529.472 204.754 522.614C215.365 507.221 226.069 491.886 236.374 476.293C239.827 470.907 242.743 465.208 245.082 459.273C247.988 452.181 245.932 445.315 239.645 440.793C226.409 431.34 212.977 422.079 199.554 412.835C192.274 407.829 184.746 403.132 177.568 397.976C176.06 396.825 174.299 396.036 172.426 395.671C170.553 395.306 168.619 395.375 166.778 395.873C158.163 397.981 149.586 400.206 141.045 402.548C135.879 403.983 132.311 407.445 129.737 412.017C123.289 423.464 121.063 436.004 120.392 448.785C119.848 458.881 120.281 469.034 120.281 479.805C117.401 477.778 114.555 475.909 111.854 473.857C80.6577 450.27 55.0943 421.895 35.5713 388.198C30.5843 379.612 23.6349 372.104 18.1807 363.66C14.5127 357.911 11.3549 351.862 8.74202 345.581C5.49668 337.955 2.97348 330.029 0 321.861L8.38521 317.873C61.2225 292.427 114.046 266.958 166.855 241.467C167.459 241.117 167.985 240.651 168.401 240.096C168.818 239.541 169.115 238.909 169.276 238.238C170.083 233.875 170.338 229.411 171.204 225.064C171.653 223.551 172.643 222.248 173.991 221.393C192.885 209.196 211.833 197.081 230.835 185.051C235.336 182.21 239.137 178.423 241.965 173.963C273.789 125.339 315.979 87.3943 366.162 57.7762C405.124 34.7992 446.523 16.8948 488.882 0.95946C489.613 0.684137 490.394 0.517274 492.229 0L438.86 81.7627C500.971 56.1743 566.66 51.4437 633.775 60.4627L634.175 61.5556L538.174 128.968C623.886 144.178 692.395 183.549 738 257.686L591.51 231.338L591.153 231.956C594.228 234.384 597.355 236.761 600.379 239.256C626.979 261.14 652.959 283.666 674.461 310.682C698.827 341.242 718.137 374.465 726.964 412.643C737.558 458.463 734.211 503.583 717.262 547.56C717.186 547.768 716.948 547.918 716.132 548.803C664.19 445.014 604.576 346.465 526.093 259.855C529.058 266.221 531.989 272.603 534.996 278.953C556.601 324.531 578.664 369.893 599.691 415.78C612.358 443.396 623.997 471.512 632.883 500.621C634.005 504.284 634.022 507.404 632.28 510.942C619.749 536.438 603.828 559.799 586.004 581.942C538.763 640.616 480.188 684.818 410.28 714.547C385.34 725.269 359.179 733.012 332.358 737.608C330.855 737.867 329.3 737.858 327.38 738C330.056 732.035 332.732 726.453 335.026 720.746C343.725 699.488 348.016 677.237 350.42 654.544C353.105 629.181 352.969 603.767 352.867 578.338C352.952 576.303 353.485 574.31 354.43 572.497C368.354 543.739 383.502 515.489 396.059 486.154C409.227 455.285 419.897 423.439 431.63 392.01C432.04 390.956 432.093 389.801 431.783 388.715C426.923 396.299 421.894 403.808 417.213 411.542C392.015 453.107 366.887 494.748 341.831 536.463C340.646 538.508 339.946 540.79 339.783 543.138C338.934 555.327 338.339 567.533 337.592 579.739C336.895 591.228 336.105 602.708 335.298 615.097L298.699 590.502C292.327 598.528 286.133 606.404 279.864 614.221C272.421 623.491 264.979 632.768 257.367 641.904C256.416 643.047 254.266 644.181 252.941 643.931C227.157 639.067 202.732 630.757 182.028 614.321C168.86 603.867 158.869 590.961 153.083 575.017C151.52 570.72 152.412 568.618 156.481 567.208C157.79 566.707 159.03 566.031 160.814 565.23ZM308.766 346.34C319.275 354.8 328.892 362.684 338.705 370.327C341.338 372.371 341.814 374.214 340.93 377.343C329.722 416.639 318.626 455.963 307.644 495.315C306.206 500.777 303.362 505.784 299.387 509.857C282.081 527.828 265.183 546.166 248.149 564.379C247.619 565.034 247.134 565.722 246.697 566.44C247.634 566.413 248.533 566.071 249.245 565.472C265.863 551.639 282.599 537.94 299.021 523.899C307.067 517.016 314.832 510.55 317.933 498.978C329.045 457.362 341.576 416.122 353.614 374.757C354.087 373.083 354.995 371.56 356.248 370.335C379.186 349.636 402.243 329.128 425.02 308.295C429.694 304.113 433.683 299.247 436.846 293.87C448.23 273.772 458.935 253.331 470.149 233.107C471.521 230.723 473.459 228.699 475.799 227.208C494.549 215.336 513.426 203.647 532.278 191.917C534.929 190.248 537.605 188.663 540.884 186.661C535.047 185.943 530.061 185.101 525.031 184.734C502.552 183.107 480.098 183.257 457.703 186.152C449.437 187.228 449.411 187.061 445.028 179.87C443.328 177.016 441.629 174.079 439.743 171.343C438.452 169.499 438.35 168.131 439.658 166.162C444.45 158.97 449.004 151.645 453.651 144.353C454.106 143.522 454.5 142.66 454.832 141.775L280.671 189.055C287.705 189.89 294.621 190.248 301.545 190.565C305.792 190.757 310.168 191.792 314.195 190.999C335.892 186.728 357.522 181.972 379.127 177.442C393.722 174.38 408.343 171.426 422.837 168.448C423.209 168.797 423.55 169.176 423.856 169.582C433.321 185.985 442.751 202.393 452.147 218.807C452.671 219.995 452.695 221.339 452.215 222.545C443.201 244.053 434.204 265.57 424.867 286.945C423.293 290.322 420.936 293.29 417.986 295.614C393.349 315.195 368.575 334.526 343.929 354.057C341.032 356.343 338.518 356.752 335.068 355.467C326.734 352.355 318.23 349.577 308.766 346.34ZM473.293 302.998L472.655 302.914C472.655 304.274 472.604 305.642 472.655 307.002C473.777 332.824 475.561 358.638 475.867 384.468C476.173 410.44 475.434 436.446 474.346 462.401C473.624 479.438 472.078 496.483 469.809 513.386C466.411 538.683 460.243 563.445 452.58 587.824C449.488 597.669 445.962 607.388 442.241 618.301C444.892 614.505 446.863 611.627 448.859 608.815C474.287 572.773 498.915 536.23 519.993 497.509C521.448 494.879 522.097 491.892 521.862 488.907C520.664 478.896 519.551 468.734 517.147 458.939C509.909 429.479 502.518 400.045 494.345 370.819C487.982 348.042 480.361 325.591 473.293 302.998ZM107.292 392.411L107.546 393.112C108.394 393.188 109.247 393.188 110.095 393.112C129.814 389.666 149.506 386.128 169.233 382.75C177.024 381.423 184.526 380.347 191.9 385.661C213.385 401.238 235.151 416.464 257.019 431.548C263.645 436.112 267.825 441.827 269.762 449.428C271.011 454.3 272.668 459.072 274.146 463.895C274.751 455.816 274.907 447.711 274.613 439.616C274.505 437.339 273.521 435.186 271.861 433.593C263.943 427.102 255.863 420.777 247.589 414.745C231.591 403.065 215.671 391.293 199.24 380.247C188.374 372.938 176.115 371.069 163.218 375.199C152.905 378.486 142.498 381.506 132.141 384.685C123.867 387.23 115.583 389.833 107.292 392.411ZM203.743 272.095C207.141 267.714 210.539 264.11 213.02 259.989C216.792 253.773 222.255 251.095 229.255 249.56C245.541 245.981 261.666 241.701 277.859 237.704C276.948 237.274 275.933 237.101 274.928 237.204C254.759 238.33 234.59 239.631 214.405 240.482C209.537 240.691 206.062 241.817 203.819 246.256C202.698 248.458 200.948 250.361 199.452 252.388C193.115 260.981 186.768 269.567 180.584 277.943C190.583 283.917 200.565 285.327 210.76 279.053C211.646 278.631 212.57 278.293 213.521 278.043L233.86 270.534L233.69 269.925L203.743 272.095ZM23.6349 332.057L41.3313 355.317L87.3098 315.637L23.6349 332.057ZM385.702 209.997L385.176 209.463L336.283 239.356L354.022 251.362L385.702 209.997ZM72.213 400.22C76.3467 415.633 83.8884 429.961 94.3017 442.186C89.1109 427.444 88.839 412.109 88.6096 396.524L72.213 400.22Z" fill="#10C9B7"/>
</svg>
