<svg width="76" height="24" viewBox="0 0 76 24" xmlns="http://www.w3.org/2000/svg">
<path d="M21.8957 17.0325C21.7888 16.7304 21.6638 16.4381 21.5449 16.1674C21.3618 15.7533 21.1751 15.3408 20.985 14.9299L20.9702 14.8978C19.2909 11.2405 17.5325 7.62045 15.6962 4.04036L15.6177 3.88736C15.4268 3.51184 15.2325 3.13805 15.0349 2.76603C14.7978 2.29313 14.5103 1.84764 14.1773 1.43746C13.8022 0.987195 13.3336 0.625187 12.8045 0.376933C12.2751 0.12858 11.6981 -7.74018e-05 11.1141 3.49351e-08C10.53 7.74716e-05 9.95304 0.128888 9.42372 0.377381C8.8947 0.625759 8.42622 0.987869 8.05127 1.4382C7.71875 1.84847 7.43143 2.29383 7.19434 2.76648C6.99498 3.14193 6.79894 3.51916 6.60623 3.89812L6.5335 4.04006C4.69726 7.62035 2.9388 11.2405 1.25938 14.898L1.23533 14.9503C1.04852 15.3544 0.864997 15.7601 0.684779 16.1672C0.56603 16.4378 0.441194 16.7299 0.334171 17.0328C0.0275421 17.8576 -0.0702002 18.7464 0.0497654 19.6188C0.177153 20.5007 0.531469 21.3337 1.07754 22.0352C1.62414 22.7372 2.34326 23.2834 3.16383 23.6199C3.78404 23.8723 4.44695 24.0013 5.11593 24C5.32631 24 5.536 23.9877 5.745 23.9631C6.59107 23.8547 7.40717 23.5776 8.14553 23.1479C9.11378 22.6003 10.0702 21.7978 11.1149 20.6511C12.1596 21.7978 13.1158 22.6003 14.0842 23.1477C14.8225 23.5775 15.6386 23.8547 16.4847 23.9631C16.6935 23.9875 16.9036 23.9998 17.1138 24C17.7828 24.0015 18.4457 23.8724 19.0657 23.6199C19.8864 23.2834 20.6055 22.7372 21.1522 22.0352C21.6983 21.3337 22.0526 20.5007 22.18 19.6188C22.2998 18.7463 22.2021 17.8575 21.8957 17.0325ZM11.1149 18.2826C9.82153 16.6325 8.99177 15.1001 8.70053 13.8156C8.58106 13.3343 8.55286 12.8347 8.61741 12.3429C8.66832 11.9822 8.79993 11.638 9.00231 11.336C9.25148 11.0108 9.57152 10.7475 9.93776 10.5665C10.3042 10.3856 10.7069 10.2915 11.115 10.2915C11.5232 10.2916 11.9259 10.3858 12.2923 10.5668C12.6584 10.7479 12.9784 11.0111 13.2276 11.3363C13.43 11.6383 13.5616 11.9826 13.6125 12.3433C13.6766 12.8353 13.6483 13.3351 13.529 13.8165C13.2375 15.101 12.4079 16.6329 11.1149 18.2826ZM20.6695 19.4015C20.5805 20.0181 20.3327 20.6005 19.9509 21.0909C19.5687 21.5818 19.0659 21.9638 18.492 22.199C17.9115 22.4331 17.2817 22.516 16.6609 22.4401C16.0157 22.3564 15.3939 22.1426 14.8326 21.8116C13.9706 21.3242 13.0981 20.5759 12.1162 19.4782C13.6793 17.5384 14.6554 15.7504 15.0167 14.1576C15.1792 13.488 15.2144 12.7935 15.1206 12.1107C15.0352 11.5223 14.8183 10.9611 14.4862 10.4694C14.0967 9.93863 13.5888 9.50735 13.0034 9.21031C12.4177 8.91309 11.7709 8.75826 11.115 8.75826C10.4591 8.75826 9.8123 8.91309 9.2266 9.21031C8.6412 9.50724 8.13326 9.93842 7.74371 10.4691C7.41167 10.9607 7.19476 11.5216 7.10929 12.1098C7.01533 12.7924 7.05038 13.4867 7.2126 14.1561C7.57375 15.7493 8.54987 17.5379 10.1134 19.4783C9.1316 20.5759 8.25908 21.3242 7.39711 21.8117C6.83583 22.1427 6.21401 22.3565 5.56881 22.4401C4.94795 22.516 4.3181 22.4331 3.73754 22.199C3.16388 21.9636 2.66111 21.5818 2.27885 21.0911C1.89703 20.6006 1.64934 20.0182 1.56041 19.4015C1.47499 18.7749 1.54779 18.1367 1.77208 17.5458C1.85728 17.3044 1.95718 17.0677 2.08083 16.7862C2.25769 16.3868 2.43775 15.9888 2.62099 15.5923L2.64504 15.5397C4.31522 11.9026 6.06403 8.30261 7.89022 4.7423L7.96325 4.59961C8.15028 4.2346 8.34354 3.85703 8.53859 3.49232C8.72527 3.11633 8.95112 2.76137 9.21235 2.43344C9.44424 2.15197 9.73493 1.92542 10.0637 1.76992C10.3925 1.61441 10.7513 1.53378 11.1146 1.53375C11.4778 1.53372 11.8367 1.6143 12.1655 1.76975C12.4943 1.92521 12.785 2.15171 13.0169 2.43314C13.2784 2.76079 13.5043 3.11562 13.6908 3.49157C13.884 3.85315 14.0756 4.22727 14.261 4.589L14.3397 4.74245C16.1659 8.30277 17.9146 11.9028 19.5847 15.54L19.5995 15.5723C19.7821 15.9701 19.9711 16.3813 20.1489 16.7864C20.2727 17.0682 20.3727 17.3051 20.4578 17.5457C20.6821 18.1365 20.7549 18.7747 20.6695 19.4014M31.059 18.0894C30.4638 18.0894 29.9161 17.9693 29.4158 17.7292C28.9156 17.4889 28.4871 17.1524 28.106 16.7202C27.725 16.2879 27.4392 15.7834 27.2247 15.2307C27.0104 14.6541 26.9151 14.0294 26.9151 13.3569C26.9151 12.6844 27.0343 12.0355 27.2486 11.459C27.463 10.8824 27.7726 10.378 28.1537 9.92151C28.5347 9.48911 28.9871 9.12873 29.5111 8.88848C30.0351 8.64822 30.5828 8.52809 31.2021 8.52809C31.7974 8.52809 32.3213 8.64822 32.7978 8.91253C33.2742 9.15279 33.6552 9.51317 33.9647 9.96947L34.0362 8.7924H36.2272V17.8493H34.0362L33.9647 16.5281C33.6552 17.0084 33.2503 17.3928 32.7263 17.6811C32.2499 17.9455 31.6783 18.0896 31.0592 18.0896M31.631 15.9276C32.0596 15.9276 32.4407 15.8074 32.798 15.5912C33.1314 15.351 33.3932 15.0387 33.6077 14.6544C33.7981 14.27 33.8934 13.8135 33.8934 13.309C33.8934 12.8044 33.7981 12.348 33.6077 11.9637C33.4171 11.5792 33.1312 11.267 32.798 11.0269C32.4644 10.7865 32.0596 10.6904 31.631 10.6904C31.2023 10.6904 30.8212 10.8105 30.4639 11.0267C30.1306 11.267 29.8686 11.5792 29.6542 11.9635C29.4636 12.348 29.3683 12.8044 29.3683 13.309C29.3683 13.8135 29.4636 14.27 29.6542 14.6543C29.8447 15.0387 30.1306 15.351 30.4639 15.5911C30.8212 15.8074 31.2023 15.9276 31.631 15.9276ZM39.9666 6.34205C39.9666 6.60636 39.9189 6.84661 39.7997 7.03876C39.6762 7.23903 39.5042 7.40438 39.2997 7.51927C39.0853 7.63939 38.8472 7.68735 38.6091 7.68735C38.371 7.68735 38.1326 7.63939 37.9183 7.51927C37.7138 7.40438 37.5417 7.23903 37.4182 7.03876C37.2992 6.82256 37.2515 6.60636 37.2515 6.34205C37.2515 6.07789 37.299 5.83764 37.4182 5.64534C37.5373 5.42914 37.704 5.28511 37.9185 5.16498C38.1327 5.04486 38.3709 4.99675 38.6091 4.99675C38.8474 4.99675 39.0853 5.04486 39.2997 5.16498C39.5042 5.2798 39.6763 5.44511 39.7999 5.64534C39.895 5.83764 39.9666 6.05383 39.9666 6.34205ZM37.4182 17.8254V8.76835H39.7997V17.8252L37.4182 17.8254ZM46.1588 11.1467V11.1709C46.0397 11.1228 45.8968 11.0987 45.7776 11.0748C45.6348 11.0508 45.5156 11.0508 45.3728 11.0508C44.7059 11.0508 44.2058 11.2429 43.8724 11.6514C43.5151 12.0597 43.3484 12.6363 43.3484 13.381V17.8254H40.9669V8.76835H43.1578L43.2294 10.1377C43.4675 9.6572 43.7534 9.29682 44.1582 9.03266C44.5392 8.7682 44.9916 8.64822 45.5156 8.64822C45.6825 8.64822 45.8492 8.67213 45.9921 8.69618C46.0634 8.72024 46.111 8.72024 46.1588 8.74429V11.1467ZM47.1113 17.8254V5.04471H49.493V9.92151C49.8264 9.48926 50.2074 9.15279 50.6838 8.88863C51.1602 8.64837 51.6842 8.50419 52.2795 8.50419C52.8748 8.50419 53.4225 8.62432 53.9227 8.86457C54.4229 9.10482 54.8516 9.44115 55.2326 9.87355C55.6138 10.3059 55.8995 10.8105 56.1139 11.3632C56.3282 11.9396 56.4234 12.5642 56.4234 13.2368C56.4234 13.9096 56.3043 14.5582 56.0901 15.1348C55.8756 15.7114 55.5662 16.2158 55.185 16.6722C54.8039 17.1048 54.3515 17.465 53.8275 17.7053C53.3035 17.9455 52.7558 18.0656 52.1367 18.0656C51.5411 18.0656 51.0173 17.9455 50.541 17.6812C50.0645 17.441 49.6834 17.0806 49.3739 16.6243L49.3024 17.8013L47.1113 17.8254ZM51.7078 15.9276C52.1367 15.9276 52.5177 15.8074 52.8748 15.5912C53.2082 15.351 53.4702 15.0387 53.6846 14.6544C53.8752 14.27 53.9705 13.8135 53.9705 13.309C53.9705 12.8044 53.8752 12.348 53.6846 11.9637C53.4702 11.5792 53.2082 11.267 52.8748 11.0269C52.5414 10.7865 52.1367 10.6904 51.7078 10.6904C51.2791 10.6904 50.8981 10.8105 50.541 11.0267C50.2074 11.267 49.9454 11.5792 49.7311 11.9635C49.5406 12.348 49.4453 12.8044 49.4453 13.309C49.4453 13.8135 49.5406 14.27 49.7311 14.6543C49.9217 15.0387 50.2076 15.351 50.541 15.5911C50.8981 15.8074 51.2791 15.9276 51.7078 15.9276ZM57.3285 17.8254V8.76835H59.5195L59.591 9.94556C59.853 9.51302 60.2102 9.17669 60.6627 8.91253C61.1152 8.64822 61.6392 8.52809 62.2347 8.52809C62.9015 8.52809 63.4729 8.69618 63.9493 9.0086C64.4495 9.32087 64.8306 9.77733 65.0925 10.3539C65.3545 10.9305 65.4973 11.627 65.4973 12.42V17.8493H63.1158V12.7322C63.1158 12.1077 62.9729 11.6031 62.6871 11.2426C62.4014 10.8825 62.0202 10.6902 61.5201 10.6902C61.1628 10.6902 60.8532 10.7622 60.5674 10.9305C60.3054 11.0986 60.0911 11.3148 59.9244 11.6272C59.7577 11.9154 59.6863 12.2756 59.6863 12.6362V17.8252L57.3285 17.8254ZM66.6881 17.8254V5.04471H69.0698V9.92151C69.4032 9.48926 69.7842 9.15279 70.2605 8.88863C70.737 8.64837 71.261 8.50419 71.8562 8.50419C72.4518 8.50419 72.9995 8.62432 73.4996 8.86457C73.9998 9.10482 74.4284 9.44115 74.8094 9.87355C75.1909 10.3059 75.4762 10.8105 75.6908 11.3632C75.9055 11.9396 76 12.5642 76 13.2368C76 13.9096 75.8816 14.5582 75.6669 15.1348C75.4524 15.7114 75.1431 16.2158 74.7616 16.6722C74.3807 17.1048 73.9283 17.465 73.4043 17.7053C72.8803 17.9455 72.3326 18.0656 71.7134 18.0656C71.1181 18.0656 70.5941 17.9455 70.1177 17.6812C69.6413 17.441 69.2604 17.0806 68.9507 16.6243L68.8793 17.8013L66.6881 17.8254ZM71.3085 15.9276C71.7372 15.9276 72.1182 15.8074 72.4755 15.5912C72.8089 15.351 73.0707 15.0387 73.2852 14.6544C73.4758 14.27 73.5711 13.8135 73.5711 13.309C73.5711 12.8044 73.4758 12.348 73.2852 11.9637C73.0948 11.5792 72.8089 11.267 72.4755 11.0269C72.142 10.7865 71.7372 10.6904 71.3085 10.6904C70.8798 10.6904 70.4988 10.8105 70.1415 11.0267C69.8081 11.267 69.5463 11.5792 69.3318 11.9635C69.1174 12.348 69.0459 12.8044 69.0459 13.309C69.0459 13.8135 69.1413 14.27 69.3318 14.6543C69.5224 15.0387 69.8082 15.351 70.1415 15.5911C70.4988 15.8074 70.8561 15.9276 71.3085 15.9276Z"/>
</svg>
