<svg viewBox="0 0 131 41" xmlns="http://www.w3.org/2000/svg">
<path d="M81.071 31.9571C73.5045 37.5262 62.5483 40.4994 53.1081 40.4994C40.4967 40.5625 28.316 35.9153 18.9515 27.4679C18.2488 26.8304 18.8864 25.9585 19.7322 26.453C29.4587 32.1132 41.4818 35.5158 53.9018 35.5158C62.2816 35.5158 71.4941 33.7853 79.9714 30.1874C81.2466 29.6409 82.3201 31.0267 81.071 31.9571Z"/>
<path d="M84.6248 27.5716C85.6007 28.8077 83.5513 33.9149 82.6405 36.192C82.3672 36.8816 82.9593 37.1614 83.5839 36.6409C87.6436 33.2448 88.6846 26.1402 87.8583 25.1123C87.032 24.0843 79.9405 23.2125 75.6205 26.2573C74.9504 26.7193 75.061 27.3634 75.8027 27.2788C78.2424 26.986 83.6619 26.3354 84.6248 27.5716ZM75.9718 4.78757V1.82734C75.9718 1.37843 76.3166 1.07915 76.72 1.07915H89.9598C90.3826 1.07915 90.721 1.38493 90.721 1.82734V4.36468C90.721 4.78757 90.3631 5.34058 89.7255 6.21889L82.8682 16.0104C85.4185 15.9453 88.1055 16.3292 90.4152 17.6304C90.9357 17.9232 91.0788 18.3526 91.1243 18.782V21.9374C91.1243 22.3668 90.6429 22.8677 90.1484 22.6075C87.9846 21.4934 85.5851 20.9144 83.1513 20.9189C80.7175 20.9234 78.3202 21.5114 76.1605 22.6335C75.7051 22.8807 75.2236 22.3798 75.2236 21.9504V18.9576C75.2236 18.4762 75.2236 17.6564 75.7116 16.9212L83.6489 5.53576H76.733C76.3101 5.53576 75.9653 5.22998 75.9653 4.79408M27.6906 23.2321H23.6569C23.4771 23.2184 23.3075 23.1429 23.177 23.0183C23.0466 22.8938 22.9633 22.7279 22.9412 22.5489V1.87939C22.9412 1.46301 23.2861 1.13771 23.722 1.13771H27.4759C27.8663 1.15072 28.1786 1.4565 28.2046 1.82734V4.52733H28.2762C29.2521 1.91842 31.0998 0.701809 33.5786 0.701809C36.1029 0.701809 37.6774 1.91842 38.8094 4.52733C39.2116 3.38249 39.9671 2.39502 40.9669 1.70744C41.9667 1.01985 43.1591 0.667701 44.3721 0.701809C45.2713 0.685792 46.1616 0.88184 46.9709 1.27406C47.7803 1.66629 48.4858 2.24366 49.0304 2.95939C50.3056 4.69649 50.0453 7.22731 50.0453 9.43935V22.4839C50.0436 22.5844 50.022 22.6836 49.9818 22.7757C49.9416 22.8679 49.8835 22.9511 49.8109 23.0207C49.7383 23.0903 49.6527 23.1447 49.5589 23.181C49.4651 23.2173 49.3651 23.2346 49.2646 23.2321H45.2439C45.0515 23.2193 44.8706 23.1359 44.736 22.9977C44.6015 22.8596 44.5228 22.6765 44.5152 22.4839V11.5278C44.5152 10.656 44.5933 8.48298 44.4046 7.65672C44.1053 6.27094 43.201 5.88057 42.0364 5.88057C41.0605 5.88057 40.0456 6.53118 39.6292 7.57213C39.2128 8.61309 39.2583 10.3567 39.2583 11.5278V22.4839C39.2566 22.5844 39.2351 22.6836 39.1948 22.7757C39.1546 22.8679 39.0965 22.9511 39.0239 23.0207C38.9513 23.0903 38.8657 23.1447 38.7719 23.181C38.6781 23.2173 38.5781 23.2346 38.4776 23.2321H34.4634C34.2706 23.2222 34.0887 23.1394 33.9546 23.0005C33.8206 22.8616 33.7443 22.6769 33.7412 22.4839L33.7347 11.5278C33.7347 9.22465 34.1121 5.83503 31.2559 5.83503C28.3607 5.83503 28.4713 9.14008 28.4713 11.5278V22.4839C28.4697 22.5844 28.4481 22.6836 28.4078 22.7757C28.3676 22.8679 28.3095 22.9511 28.2369 23.0207C28.1643 23.0903 28.0787 23.1447 27.9849 23.181C27.8912 23.2173 27.7911 23.2346 27.6906 23.2321ZM102.126 0.701809C108.099 0.701809 111.332 5.83503 111.332 12.3605C111.332 18.6583 107.754 23.6614 102.12 23.6614C96.2511 23.6614 93.0566 18.5282 93.0566 12.1393C93.0566 5.69841 96.2966 0.701809 102.126 0.701809ZM102.146 4.91769C99.1788 4.91769 98.9901 8.96442 98.9901 11.4887C98.9901 14.0131 98.9511 19.4065 102.113 19.4065C105.236 19.4065 105.379 15.0475 105.379 12.3996C105.379 10.656 105.314 8.57405 104.78 6.92153C104.325 5.48371 103.427 4.91769 102.146 4.91769ZM119.081 23.2321H115.066C114.875 23.2178 114.696 23.1337 114.563 22.9957C114.43 22.8577 114.352 22.6755 114.344 22.4839L114.338 1.80783C114.361 1.6187 114.453 1.44496 114.598 1.3209C114.742 1.19683 114.928 1.13147 115.119 1.13771H118.846C119.012 1.14593 119.17 1.20645 119.299 1.31052C119.427 1.4146 119.52 1.55685 119.562 1.71674V4.87215H119.64C120.766 2.04855 122.347 0.701809 125.131 0.701809C126.933 0.701809 128.697 1.35241 129.829 3.13505C130.883 4.78757 130.883 7.57213 130.883 9.57598V22.5815C130.852 22.7652 130.756 22.9319 130.613 23.0512C130.469 23.1705 130.288 23.2347 130.102 23.2321H126.068C125.893 23.2198 125.727 23.149 125.597 23.0309C125.468 22.9129 125.381 22.7546 125.353 22.5815V11.3521C125.353 9.09454 125.613 5.78949 122.835 5.78949C121.859 5.78949 120.948 6.44009 120.506 7.44202C119.94 8.70418 119.868 9.95984 119.868 11.3521V22.4839C119.859 22.6864 119.773 22.8776 119.626 23.0173C119.479 23.1569 119.283 23.2339 119.081 23.2321ZM65.4256 13.3625V12.4907C62.5043 12.4907 59.4335 13.1087 59.4335 16.5439C59.4335 18.281 60.3378 19.4586 61.8863 19.4586C63.0118 19.4586 64.0333 18.7624 64.6709 17.6304C65.4646 16.2381 65.4256 14.9304 65.4256 13.3625ZM69.4853 23.1735C69.3552 23.2836 69.1949 23.3518 69.0255 23.3692C68.856 23.3866 68.6852 23.3524 68.5354 23.2711C67.1952 22.1651 66.9545 21.6446 66.2193 20.5841C64.0072 22.8417 62.4458 23.5118 59.5831 23.5118C56.1935 23.5118 53.5586 21.4299 53.5586 17.24C53.5586 13.974 55.3217 11.7425 57.8525 10.656C60.0386 9.69309 63.0899 9.52393 65.4256 9.25718V8.73671C65.4256 7.78032 65.4906 6.64828 64.9311 5.82202C64.4431 5.08034 63.4998 4.77456 62.667 4.77456C61.1381 4.77456 59.7718 5.55528 59.4335 7.18828C59.3684 7.55262 59.1017 7.91045 58.7309 7.92997L54.8272 7.50707C54.5019 7.43551 54.1311 7.16876 54.2287 6.66129C55.1265 1.93144 59.4075 0.500122 63.2395 0.500122C65.1913 0.500122 67.7547 1.0206 69.3031 2.51047C71.2615 4.33215 71.0728 6.7784 71.0728 9.43285V15.7111C71.0728 17.5979 71.8535 18.4241 72.5952 19.4456C72.8489 19.8034 72.9075 20.2393 72.5757 20.5126C71.7559 21.2022 70.2986 22.4709 69.4918 23.1865L69.4853 23.1735ZM12.6292 13.3625V12.4907C9.71449 12.4907 6.64365 13.1087 6.64365 16.5439C6.64365 18.281 7.54148 19.4586 9.08991 19.4586C10.222 19.4586 11.2369 18.7624 11.8745 17.6304C12.6682 16.2381 12.6292 14.9304 12.6292 13.3625ZM16.6889 23.1735C16.5589 23.2836 16.3986 23.3518 16.2291 23.3692C16.0596 23.3866 15.8888 23.3524 15.7391 23.2711C14.3988 22.1651 14.1646 21.6446 13.4294 20.5841C11.2174 22.8417 9.65594 23.5118 6.79329 23.5118C3.40365 23.5118 0.762207 21.4299 0.762207 17.24C0.762207 13.974 2.53185 11.7425 5.05618 10.656C7.2422 9.69309 10.2935 9.52393 12.6292 9.25718V8.73671C12.6292 7.78032 12.7008 6.64828 12.1412 5.82202C11.6468 5.08034 10.7099 4.77456 9.88365 4.77456C8.34823 4.77456 6.97546 5.55528 6.64365 7.18828C6.57859 7.55262 6.30534 7.91045 5.94751 7.92997L2.03739 7.50707C1.71209 7.43551 1.34775 7.16876 1.43883 6.66129C2.33666 1.93144 6.61112 0.500122 10.4432 0.500122C12.4015 0.500122 14.9649 1.0206 16.5068 2.51047C18.4651 4.33215 18.2829 6.7784 18.2829 9.43285V15.7111C18.2829 17.5979 19.0636 18.4241 19.7988 19.4456C20.0591 19.8034 20.1176 20.2393 19.7858 20.5126C18.9661 21.2022 17.5087 22.4709 16.702 23.1865L16.6889 23.1735Z"/>
</svg>
