<svg width="129" height="24" viewBox="0 0 129 24" xmlns="http://www.w3.org/2000/svg">
<path d="M10.6647 19.546C11.1737 19.546 11.6568 19.5004 12.1114 19.3986C12.5725 19.2965 12.9817 19.1364 13.3269 18.8985C13.6722 18.6705 13.9577 18.3573 14.1661 17.9583C14.3742 17.5636 14.4737 17.0514 14.4737 16.4312C14.4737 15.2174 14.1341 14.3551 13.4585 13.8317C12.7814 13.3156 11.8785 13.059 10.768 13.059H5.15888V19.546H10.6647ZM10.38 9.51802C11.2937 9.51802 12.0501 9.29989 12.6499 8.8568C13.2433 8.42232 13.5316 7.70207 13.5316 6.71455C13.5316 6.16733 13.4356 5.7136 13.2433 5.36196C13.045 5.01032 12.7814 4.73494 12.4488 4.54266C12.1187 4.34226 11.7457 4.20343 11.3123 4.1292C10.888 4.04509 10.4422 4.01292 9.98589 4.01292H5.15888V9.51802H10.38ZM11.0472 0.000253341C12.1676 0.000253341 13.179 0.0977896 14.1038 0.299196C15.0228 0.495028 15.8075 0.822345 16.4705 1.27152C17.1236 1.71968 17.6344 2.3163 18 3.06771C18.3568 3.80847 18.5367 4.73519 18.5367 5.83191C18.5367 7.01805 18.2686 8.00836 17.7329 8.80005C17.1936 9.59073 16.4012 10.2393 15.3423 10.7432C16.7844 11.1599 17.8521 11.8944 18.5604 12.9374C19.2723 13.9875 19.6203 15.2453 19.6203 16.7187C19.6203 17.9137 19.3925 18.9415 18.9386 19.8067C18.4795 20.6825 17.8551 21.3926 17.0853 21.9401C16.3092 22.4929 15.4179 22.8982 14.4196 23.1622C13.4201 23.4275 12.3906 23.5607 11.3569 23.5584H0V0L11.0472 0.000253341ZM32.3296 10.5058C31.7752 9.88942 30.8376 9.55577 29.6933 9.55577C28.9485 9.55577 28.3319 9.68193 27.839 9.93856C27.3567 10.1919 26.9608 10.5076 26.6592 10.8787C26.3583 11.2562 26.1527 11.6542 26.0338 12.0801C25.9143 12.4953 25.8433 12.8717 25.8211 13.2046H33.4035C33.2924 12.0094 32.8857 11.1265 32.3296 10.5058ZM26.9749 19.4675C27.6727 20.1525 28.6816 20.4978 29.9887 20.4978C30.9283 20.4978 31.7407 20.2589 32.4221 19.7821C33.0974 19.3071 33.5086 18.7981 33.6679 18.2704H37.7714C37.112 20.3235 36.1111 21.7896 34.7451 22.6717C33.3965 23.5582 31.7503 24 29.8329 24C28.4964 24 27.2937 23.7819 26.2144 23.354C25.1349 22.9203 24.2328 22.312 23.4739 21.5195C22.7343 20.7233 22.1605 19.7821 21.7513 18.6776C21.3464 17.5781 21.1415 16.3605 21.1415 15.0411C21.1415 13.7655 21.3544 12.5738 21.7682 11.4728C22.1915 10.368 22.7761 9.4144 23.5449 8.61461C24.3165 7.8105 25.2302 7.17614 26.2943 6.71277C27.3595 6.25017 28.5329 6.01862 29.8329 6.01862C31.2682 6.01862 32.5254 6.29603 33.6029 6.86225C34.6768 7.4196 35.5568 8.17531 36.249 9.12205C36.9404 10.0673 37.4325 11.148 37.7402 12.3592C38.0446 13.5694 38.1522 14.8336 38.0643 16.1576H25.8208C25.8208 17.5056 26.2744 18.7822 26.9749 19.4675ZM44.6831 0.000253341V8.88289H44.79C45.3816 7.89461 46.13 7.17613 47.05 6.73076C47.9682 6.28159 48.8643 6.05966 49.7369 6.05966C50.9817 6.05966 52.0015 6.22433 52.7978 6.5633C53.5951 6.90861 54.2258 7.37577 54.6877 7.98303C55.1404 8.588 55.4607 9.3254 55.6487 10.1952C55.8327 11.0629 55.9279 12.0203 55.9279 13.0757V23.5584H51.2451V13.9264C51.2451 12.5221 51.0271 11.4665 50.5929 10.7759C50.158 10.0842 49.3857 9.73716 48.2716 9.73716C47.0117 9.73716 46.1005 10.121 45.5363 10.8787C44.9618 11.6362 44.6831 12.8834 44.6831 14.6188V23.5584H40.002V0L44.6831 0.000253341ZM68.4274 15.6342C68.1376 15.7307 67.816 15.8123 67.4849 15.883C67.1306 15.9491 66.7743 16.004 66.4165 16.0476C66.0452 16.091 65.6753 16.145 65.307 16.2095C64.9583 16.2782 64.6095 16.364 64.2774 16.476C63.9395 16.587 63.6432 16.7344 63.3993 16.9206C63.1476 17.1092 62.9402 17.351 62.7917 17.629C62.6421 17.9135 62.5622 18.2829 62.5622 18.7196C62.5622 19.1364 62.6421 19.488 62.7915 19.7768C62.9457 20.0631 63.1468 20.2868 63.4109 20.4522C63.6742 20.6176 63.9829 20.7339 64.3266 20.7985C64.6753 20.8682 65.0357 20.8943 65.4051 20.8943C66.3213 20.8943 67.0278 20.7413 67.5313 20.4345C68.0323 20.1257 68.4097 19.7573 68.6453 19.3279C68.8857 18.8985 69.0309 18.4655 69.0777 18.029C69.1392 17.5897 69.1669 17.2355 69.1669 16.9698V15.2174C68.9648 15.3973 68.7272 15.5359 68.4274 15.6342ZM59.2549 8.99664C59.7209 8.27745 60.3473 7.67737 61.0843 7.24403C61.8281 6.80068 62.6592 6.48831 63.5933 6.30135C64.5167 6.11141 65.4571 6.01667 66.3996 6.01862C67.2493 6.01862 68.1089 6.07765 68.9943 6.19925C69.8652 6.32018 70.6618 6.55722 71.3841 6.91038C72.1058 7.26556 72.694 7.75147 73.1493 8.38559C73.6112 9.00374 73.8453 9.84103 73.8453 10.8787V19.7687C73.8453 20.5416 73.8914 21.2761 73.9733 21.9794C74.0658 22.6887 74.3051 23.2207 74.5312 23.5698L69.7712 23.5582C69.6313 23.3542 69.5157 23.0348 69.4613 22.7566C69.4052 22.4797 69.3669 22.1994 69.3466 21.9175C68.6053 22.6887 67.7362 23.2309 66.7234 23.5402C65.7249 23.8453 64.6869 24.0003 63.6432 24C62.8368 24 62.0859 23.8971 61.3831 23.6985C60.6909 23.4999 60.0761 23.1923 59.552 22.7764C59.0253 22.3523 58.6204 21.8263 58.3248 21.1894C58.0315 20.549 57.8801 19.7867 57.8801 18.9066C57.8801 17.935 58.0537 17.1352 58.3961 16.509C58.7297 15.883 59.1632 15.3791 59.7052 15.0061C60.2381 14.6304 60.8502 14.3477 61.5434 14.1635C62.2268 13.9767 62.9198 13.827 63.6192 13.7154C64.3213 13.6072 65.0044 13.5195 65.687 13.4514C66.3712 13.3843 66.9638 13.2887 67.4933 13.1545C68.0154 13.0238 68.4337 12.8251 68.7406 12.5738C69.0422 12.3217 69.1873 11.9549 69.1669 11.4665C69.1669 10.9618 69.0777 10.5595 68.9167 10.2588C68.7645 9.97539 68.5408 9.73723 68.2681 9.56818C67.9934 9.40174 67.6835 9.2928 67.3267 9.23453C66.9433 9.17917 66.5564 9.15165 66.1691 9.15219C65.2571 9.15219 64.5355 9.35613 64.0239 9.74805C63.498 10.1514 63.1957 10.8151 63.1022 11.7418H58.4274C58.4949 10.6355 58.7655 9.72196 59.2549 8.99664ZM80.8343 6.50529V8.88289H80.9384C81.5283 7.89461 82.289 7.17613 83.234 6.73076C84.1708 6.28159 85.1415 6.05966 86.1257 6.05966C87.3758 6.05966 88.4017 6.22433 89.1946 6.5633C90.0015 6.90861 90.6289 7.37577 91.0835 7.98303C91.5497 8.58775 91.87 9.32573 92.0569 10.1952C92.2454 11.0629 92.3392 12.0203 92.3392 13.0757V23.5584H87.6543V13.9264C87.6543 12.5221 87.4345 11.4665 86.9976 10.7759C86.5546 10.0842 85.7903 9.64089 84.6683 9.64089C83.4003 9.64089 82.4767 10.121 81.909 10.8787C81.338 11.6362 81.0548 12.8834 81.0548 14.6188V23.5584H76.4211V6.50529H80.8343ZM102.708 9.55577C101.959 9.55577 101.341 9.72196 100.843 10.0675C100.336 10.4082 99.9122 10.8602 99.6039 11.3894C99.2864 11.927 99.0664 12.5219 98.9303 13.1732C98.8031 13.8235 98.732 14.4678 98.732 15.1082C98.732 15.7272 98.8031 16.3544 98.9303 16.9949C99.0664 17.6318 99.2755 18.2069 99.5711 18.731C99.8682 19.2423 100.28 19.677 100.773 20.0005C101.274 20.3324 101.884 20.4978 102.607 20.4978C103.729 20.4978 104.588 20.1829 105.191 19.5594C105.791 18.9324 106.162 18.0898 106.318 17.0341H110.818C110.51 19.2965 109.634 21.0248 108.194 22.2162C106.748 23.3998 104.896 24 102.642 24C101.368 24 100.21 23.7819 99.1422 23.354C98.0763 22.9203 97.1712 22.3229 96.4259 21.5517C95.68 20.7788 95.1017 19.8602 94.6781 18.7921C94.2643 17.722 94.0562 16.5475 94.0562 15.2729C94.0562 13.9525 94.2492 12.7225 94.6327 11.5855C95.0145 10.4531 95.5787 9.47166 96.3303 8.64855C97.0752 7.82013 97.9864 7.17614 99.0639 6.71277C100.137 6.25017 101.363 6.01862 102.74 6.01862C103.747 6.01862 104.714 6.15542 105.648 6.4113C106.575 6.67249 107.409 7.07607 108.14 7.6172C108.871 8.15218 109.483 8.83579 109.934 9.62366C110.389 10.4224 110.649 11.3796 110.72 12.4737H106.151C105.848 10.5271 104.701 9.55577 102.708 9.55577ZM24.8681 1.58059H34.3664V3.90576H24.8681V1.58059ZM123.238 10.5058C122.676 9.88942 121.731 9.55577 120.601 9.55577C119.858 9.55577 119.239 9.68193 118.738 9.93856C118.254 10.1919 117.813 10.5076 117.517 10.8787C117.22 11.2562 117.008 11.6542 116.884 12.0801C116.774 12.4953 116.696 12.8717 116.676 13.2046H124.315C124.191 12.0094 123.794 11.1265 123.238 10.5058M117.825 19.4675C118.526 20.1525 119.582 20.4978 120.899 20.4978C121.837 20.4978 122.648 20.2589 123.325 19.7821C124.002 19.3071 124.422 18.7981 124.571 18.2704H128.675C128.019 20.3235 127.012 21.7896 125.655 22.6717C124.301 23.5582 122.662 24 120.737 24C119.397 24 118.19 23.7819 117.119 23.354C116.041 22.9203 115.138 22.312 114.383 21.5195C113.635 20.7233 113.062 19.7821 112.655 18.6776C112.25 17.5781 112.049 16.3605 112.049 15.0411C112.049 13.7655 112.257 12.5738 112.672 11.4728C113.092 10.368 113.689 9.4144 114.453 8.61461C115.228 7.8105 116.134 7.17614 117.195 6.71277C118.261 6.25017 119.445 6.01862 120.737 6.01862C122.171 6.01862 123.434 6.29603 124.5 6.86225C125.577 7.4196 126.461 8.17531 127.148 9.12205C127.839 10.0673 128.337 11.148 128.642 12.3592C128.943 13.5694 129.059 14.8336 128.972 16.1576H116.676C116.676 17.5056 117.123 18.7822 117.825 19.4675Z"/>
</svg>
