<svg width="168" height="24" viewBox="0 0 168 24" xmlns="http://www.w3.org/2000/svg">
<g clip-path="url(#clip0_654_207)">
<path d="M37.5179 16.7125H33.1519V6.62464H37.3985C38.5436 6.62464 39.259 7.36535 39.259 8.36974C39.259 9.37412 38.5436 10.0905 37.3985 10.0905H32.5435V13.0073H37.5173C38.8537 13.0073 39.569 13.8677 39.569 14.8714C39.569 16.0188 38.8055 16.7125 37.5173 16.7125M39.9743 11.4292C41.4781 11.1186 42.7187 9.77982 42.7187 7.77237C42.7187 5.64459 41.168 3.7088 38.1374 3.7088H29.7637V19.6527H38.3999C41.4298 19.6527 43.0281 17.7399 43.0281 15.3495C43.0281 13.3414 41.6687 11.6926 39.9743 11.4292ZM52.945 10.9989H49.2825V13.9874H51.8714L54.9968 19.6524H58.8851L55.3069 13.58C57.025 13.174 58.7899 11.6683 58.7899 8.84776M58.7899 8.84776C58.7899 5.8836 56.7621 3.70848 53.4458 3.70848H46.0023V19.6524H49.3898V6.69697H52.945C54.3055 6.69697 55.3305 7.50902 55.3305 8.84809C55.3305 10.1868 54.3055 10.9989 52.945 10.9989M84.5458 13.9637L87.0264 7.10332L89.5083 13.9637H84.5458ZM84.9038 3.7088L78.7481 19.653H82.6128L83.6149 16.9519H90.4386L91.4164 19.653H95.2817L89.1507 3.70848L84.9038 3.7088ZM104.484 16.6645H101.597V6.69631H104.484C107.752 6.69631 109.47 8.87176 109.47 11.6929C109.47 14.3941 107.633 16.6645 104.484 16.6645ZM104.484 3.7088H98.2089V19.653H104.484C109.47 19.653 112.929 16.4978 112.929 11.6929C112.929 6.88798 109.47 3.70848 104.484 3.70848M164.254 3.70519L160.081 10.465L155.908 3.70552H152.163V19.6524H155.551V9.22979L159.199 14.7876C159.617 15.4228 160.546 15.4228 160.963 14.7876L164.612 9.22979V19.6524H168V3.70519H164.254ZM69.5334 16.8315C66.7161 16.8315 64.4334 14.5433 64.4334 11.7215C64.4334 8.89872 66.7161 6.6105 69.5334 6.6105C72.35 6.6105 74.6338 8.89872 74.6338 11.7215C74.6338 14.5433 72.35 16.8315 69.5334 16.8315ZM69.5334 3.31527C64.8996 3.31527 61.1436 7.07867 61.1436 11.7215C61.1436 16.3637 64.8996 20.1271 69.5337 20.1271C74.1665 20.1271 77.9232 16.3637 77.9232 11.7215C77.9232 7.07867 74.1665 3.31527 69.5334 3.31527ZM128.177 14.1938C127.307 15.7663 125.635 16.8315 123.714 16.8315C120.897 16.8315 118.613 14.5433 118.613 11.7212C118.613 8.89872 120.897 6.61116 123.714 6.61116C125.619 6.61116 127.278 7.65993 128.153 9.21072L130.533 6.82716C129.011 4.70135 126.524 3.31494 123.714 3.31494C119.08 3.31494 115.325 7.07834 115.325 11.7215C115.325 16.3637 119.08 20.1274 123.714 20.1274C126.54 20.1274 129.038 18.7259 130.558 16.58L128.177 14.1938ZM141.378 16.8315C138.561 16.8315 136.278 14.5433 136.278 11.7215C136.278 8.89872 138.561 6.6105 141.378 6.6105C144.195 6.6105 146.479 8.89872 146.479 11.7215C146.479 14.5433 144.195 16.8315 141.378 16.8315ZM141.378 3.31527C136.745 3.31527 132.989 7.07867 132.989 11.7215C132.989 16.3637 136.745 20.1271 141.379 20.1271C146.011 20.1271 149.768 16.3637 149.768 11.7215C149.768 7.07867 146.011 3.31527 141.378 3.31527Z"/>
<path d="M11.8164 23.6791C18.3425 23.6791 23.6329 18.3784 23.6329 11.8396C23.6329 5.30075 18.3425 0 11.8164 0C5.2904 0 0 5.30075 0 11.8396C0 18.3784 5.2904 23.6791 11.8164 23.6791Z"/>
<path d="M22.2279 15.037C20.8763 14.4975 19.639 14.6783 18.399 15.4315C18.399 15.4315 17.9471 15.7077 17.8116 15.7932C17.2341 16.1565 16.6888 16.5007 16.1648 16.5007C15.6647 16.5007 15.1728 16.3665 14.9645 15.3973C14.64 13.8857 13.8482 10.1712 13.5027 8.33147C13.2992 7.24982 13.188 6.66725 13.0725 6.27141C12.8687 5.57574 12.496 5.19733 11.9667 5.13684C11.9667 5.13684 11.884 5.125 11.8161 5.125C11.7492 5.125 11.6576 5.13815 11.6576 5.13815C11.1336 5.20062 10.7632 5.57936 10.5607 6.27141C10.4452 6.66725 10.3337 7.24982 10.1309 8.33147C9.78503 10.1712 8.99326 13.8857 8.66875 15.3973C8.46039 16.3665 7.96853 16.5007 7.46846 16.5007C6.94445 16.5007 6.39943 16.1565 5.82128 15.7932C5.68609 15.7077 5.23361 15.4315 5.23361 15.4315C3.99428 14.6783 2.75626 14.4975 1.40537 15.037C1.1168 15.1538 0.832264 15.2803 0.552246 15.4164C0.738067 16.0034 0.969331 16.575 1.24393 17.126C1.54286 16.9784 1.85654 16.8324 2.17679 16.7377C2.63814 16.6013 3.11129 16.594 3.56968 16.7476C4.01528 16.8972 4.41198 17.1618 4.80704 17.4107C5.55156 17.8795 6.39517 18.4108 7.46846 18.4108C9.05954 18.4108 10.1758 17.459 10.5325 15.7994C10.8091 14.5133 11.4217 11.6415 11.8155 9.66133C11.8155 9.66133 12.8241 14.5133 13.1001 15.7994C13.4567 17.459 14.5737 18.4108 16.1648 18.4108C17.2381 18.4108 18.0817 17.8792 18.8262 17.4104C19.2216 17.1615 19.6179 16.8968 20.0632 16.7476C20.5213 16.5937 20.9951 16.6009 21.4564 16.7374C21.7767 16.8321 22.0897 16.9784 22.389 17.1257C22.6635 16.5747 22.8946 16.0031 23.0803 15.4161C22.8006 15.2798 22.5163 15.1536 22.2279 15.037Z"/>
</g>
<defs>
<clipPath id="clip0_654_207">
<rect width="168" height="24"/>
</clipPath>
</defs>
</svg>
