<svg width="46" height="25" viewBox="0 0 46 25" xmlns="http://www.w3.org/2000/svg">
<path d="M31.3004 24.3818V22.2742L31.2582 22.2932C30.7791 22.5228 30.2578 22.6536 29.7231 22.6783C29.1703 22.7176 28.6217 22.5579 28.1784 22.2287C27.8632 21.9876 27.6282 21.6586 27.5038 21.284C27.3685 20.8749 27.3532 20.4361 27.4597 20.0187C27.5593 19.5919 27.8008 19.2106 28.1439 18.9393C28.4505 18.6851 28.8242 18.5258 29.2209 18.4803C29.9214 18.4026 30.6293 18.5334 31.2544 18.8559L31.3004 18.8805V16.7616L31.2026 16.735C30.5768 16.539 29.9208 16.4542 29.265 16.4846C28.6674 16.4974 28.0785 16.6303 27.5344 16.8754C26.9844 17.1258 26.4995 17.4957 26.1181 17.9586C25.5359 18.686 25.2128 19.5834 25.1989 20.5114C25.1851 21.4393 25.4812 22.3458 26.0415 23.09C26.6068 23.807 27.4003 24.3135 28.2934 24.5241C29.2344 24.7517 30.2214 24.7176 31.1432 24.4254L31.3004 24.3818ZM10.2284 24.3818V22.2742L10.1862 22.2932C9.70707 22.5228 9.18578 22.6536 8.65108 22.6783C8.09789 22.7211 7.54811 22.5611 7.10637 22.2287C6.79102 21.9882 6.55653 21.6589 6.43368 21.284C6.29777 20.875 6.28182 20.4363 6.38768 20.0187C6.48734 19.5919 6.7269 19.2106 7.07187 18.9393C7.37851 18.6851 7.75223 18.5258 8.14895 18.4803C8.84941 18.4026 9.55734 18.5334 10.1824 18.8559L10.2284 18.8805V16.7616L10.1306 16.735C9.50476 16.539 8.84876 16.4542 8.19303 16.4846C7.59536 16.4974 7.00655 16.6303 6.46242 16.8754C5.91348 17.1264 5.42874 17.4967 5.04421 17.9586C4.46295 18.6864 4.14024 19.5835 4.12604 20.5111C4.11183 21.4387 4.40692 22.3451 4.96563 23.09C5.52937 23.8088 6.32474 24.3149 7.21945 24.5241C8.16045 24.7517 9.14553 24.7176 10.0693 24.4254L10.2284 24.3818ZM17.7487 22.6328L17.7411 24.4482L17.8752 24.471C18.2969 24.5481 18.721 24.6019 19.1478 24.6322C19.5221 24.6676 19.8971 24.6752 20.2728 24.655C20.6331 24.6284 20.9851 24.5626 21.3288 24.4577C21.7312 24.3439 22.105 24.1485 22.4231 23.8791C22.7103 23.6355 22.9299 23.3234 23.0613 22.9723C23.2917 22.3858 23.2869 21.7343 23.0479 21.1512C22.9223 20.8488 22.7267 20.5798 22.4768 20.3659C22.2317 20.1517 21.9465 19.9873 21.6373 19.8821L20.2536 19.3738C20.0895 19.3022 19.9559 19.176 19.8761 19.0171C19.8466 18.9513 19.8326 18.8796 19.8353 18.8076C19.8379 18.7357 19.8571 18.6652 19.8914 18.6017C19.9638 18.4875 20.0657 18.3946 20.1865 18.3323C20.3416 18.2585 20.5081 18.211 20.6791 18.1919C20.9729 18.1489 21.2668 18.1521 21.5607 18.2014C21.9056 18.2394 22.2461 18.3001 22.5822 18.3835L22.655 18.3987V16.7237L22.5228 16.6952C22.1795 16.615 21.8321 16.5535 21.4821 16.5112C21.0281 16.4515 20.5682 16.4496 20.1137 16.5055C19.5388 16.5567 18.9925 16.7768 18.5403 17.1315C18.2336 17.3705 18.0017 17.6873 17.8676 18.0497C17.6682 18.5998 17.6663 19.203 17.8676 19.755C17.9723 20.032 18.1333 20.2729 18.3505 20.4778C18.5371 20.6549 18.746 20.8041 18.9772 20.9255C19.2787 21.0848 19.5962 21.2081 19.9297 21.2954C20.0396 21.3283 20.1482 21.3624 20.2555 21.3978L20.4184 21.4566L20.4644 21.4756C20.6254 21.5325 20.7749 21.6236 20.8976 21.7412C20.9844 21.8221 21.049 21.9176 21.0911 22.0276C21.1199 22.1274 21.1205 22.233 21.093 22.3331C21.0411 22.4948 20.9267 22.6298 20.7749 22.7087C20.6092 22.7907 20.4312 22.8458 20.2479 22.8718C19.9773 22.914 19.7029 22.9273 19.4295 22.9116C19.0713 22.8847 18.7149 22.8378 18.362 22.7713C18.178 22.7319 17.9946 22.6895 17.812 22.6442L17.7487 22.6328ZM13.0054 24.5203H15.0177V16.6155H13.0054V24.5203ZM36.3139 18.9507C36.5277 18.7784 36.7737 18.6494 37.0378 18.5712C37.302 18.493 37.5791 18.467 37.8533 18.4949C38.1276 18.5227 38.3937 18.6038 38.6363 18.7334C38.8789 18.8631 39.0933 19.0387 39.2673 19.2504C39.4417 19.4618 39.5724 19.7052 39.6517 19.9666C39.731 20.228 39.7575 20.5023 39.7295 20.7739C39.7016 21.0454 39.6198 21.3088 39.4888 21.549C39.3579 21.7892 39.1803 22.0015 38.9664 22.1737L38.9338 22.2003C38.4973 22.5315 37.947 22.6801 37.401 22.6141C36.855 22.5481 36.357 22.2727 36.0139 21.8472C35.6708 21.4216 35.5101 20.8799 35.5662 20.3383C35.6223 19.7967 35.8908 19.2985 36.3139 18.9507ZM33.3913 20.5708C33.401 21.1877 33.5493 21.7949 33.8254 22.3481C34.1015 22.9013 34.4985 23.3869 34.9876 23.7695C35.4767 24.1521 36.0457 24.4222 36.6533 24.5603C37.2609 24.6983 37.8919 24.7009 38.5007 24.5677C39.3176 24.4147 40.0682 24.0195 40.6529 23.4345C41.2376 22.8494 41.6288 22.1023 41.7745 21.2921C41.9202 20.4819 41.8137 19.647 41.4689 18.8982C41.1241 18.1493 40.5575 17.5219 39.8441 17.0993C39.21 16.7112 38.4834 16.496 37.7381 16.4754C36.9928 16.4548 36.2553 16.6295 35.6002 16.9819C34.9451 17.3344 34.3958 17.8519 34.0079 18.4822C33.6199 19.1124 33.4072 19.8329 33.3913 20.5708ZM44.0068 10.2625C44.0181 10.5164 44.1279 10.7562 44.3133 10.9319C44.4988 11.1076 44.7457 11.2057 45.0024 11.2057C45.2592 11.2057 45.506 11.1076 45.6915 10.9319C45.877 10.7562 45.9868 10.5164 45.998 10.2625V8.07149C45.9868 7.8176 45.877 7.57781 45.6915 7.4021C45.506 7.22638 45.2592 7.1283 45.0024 7.1283C44.7457 7.1283 44.4988 7.22638 44.3133 7.4021C44.1279 7.57781 44.0181 7.8176 44.0068 8.07149V10.2625ZM38.5563 10.2625C38.5754 10.5114 38.6887 10.744 38.8737 10.9137C39.0587 11.0834 39.3016 11.1777 39.5538 11.1777C39.806 11.1777 40.0489 11.0834 40.2339 10.9137C40.4188 10.744 40.5322 10.5114 40.5513 10.2625V5.35121C40.5356 5.10017 40.4238 4.86451 40.2386 4.69224C40.0534 4.51998 39.8089 4.42408 39.5548 4.42408C39.3006 4.42408 39.0561 4.51998 38.8709 4.69224C38.6857 4.86451 38.5739 5.10017 38.5582 5.35121L38.5563 10.2625ZM33.0252 12.2411C33.0443 12.4895 33.1575 12.7216 33.3421 12.891C33.5267 13.0604 33.7691 13.1545 34.0208 13.1545C34.2725 13.1545 34.515 13.0604 34.6996 12.891C34.8842 12.7216 34.9974 12.4895 35.0165 12.2411V1.61604C35.0052 1.36215 34.8954 1.12236 34.7099 0.946645C34.5244 0.77093 34.2776 0.672852 34.0208 0.672852C33.7641 0.672852 33.5173 0.77093 33.3318 0.946645C33.1463 1.12236 33.0365 1.36215 33.0252 1.61604V12.2411ZM27.5862 10.2625C27.6019 10.5136 27.7137 10.7492 27.8989 10.9215C28.0841 11.0937 28.3286 11.1896 28.5827 11.1896C28.8369 11.1896 29.0814 11.0937 29.2666 10.9215C29.4517 10.7492 29.5636 10.5136 29.5793 10.2625V5.35121C29.5681 5.09732 29.4583 4.85753 29.2728 4.68182C29.0873 4.5061 28.8405 4.40802 28.5837 4.40802C28.327 4.40802 28.0801 4.5061 27.8946 4.68182C27.7092 4.85753 27.5993 5.09732 27.5881 5.35121L27.5862 10.2625ZM22.0283 10.2625C22.0526 10.5072 22.168 10.7342 22.352 10.8993C22.536 11.0645 22.7755 11.1559 23.0239 11.1559C23.2723 11.1559 23.5118 11.0645 23.6959 10.8993C23.8799 10.7342 23.9953 10.5072 24.0195 10.2625V8.07149C24.0083 7.8176 23.8985 7.57781 23.713 7.4021C23.5275 7.22638 23.2807 7.1283 23.0239 7.1283C22.7672 7.1283 22.5203 7.22638 22.3348 7.4021C22.1494 7.57781 22.0395 7.8176 22.0283 8.07149V10.2625ZM16.5279 10.2625C16.5392 10.5164 16.649 10.7562 16.8345 10.9319C17.02 11.1076 17.2668 11.2057 17.5235 11.2057C17.7803 11.2057 18.0271 11.1076 18.2126 10.9319C18.3981 10.7562 18.5079 10.5164 18.5192 10.2625V5.35121C18.5079 5.09732 18.3981 4.85753 18.2126 4.68182C18.0271 4.5061 17.7803 4.40802 17.5235 4.40802C17.2668 4.40802 17.02 4.5061 16.8345 4.68182C16.649 4.85753 16.5392 5.09732 16.5279 5.35121V10.2625ZM10.995 12.2411C11.0062 12.495 11.116 12.7348 11.3015 12.9105C11.487 13.0862 11.7338 13.1843 11.9906 13.1843C12.2473 13.1843 12.4942 13.0862 12.6797 12.9105C12.8651 12.7348 12.975 12.495 12.9862 12.2411V1.61604C12.975 1.36215 12.8651 1.12236 12.6797 0.946645C12.4942 0.77093 12.2473 0.672852 11.9906 0.672852C11.7338 0.672852 11.487 0.77093 11.3015 0.946645C11.116 1.12236 11.0062 1.36215 10.995 1.61604V12.2411ZM5.51184 10.2625C5.53372 10.5092 5.64818 10.7388 5.83266 10.9061C6.01714 11.0734 6.25824 11.1661 6.50842 11.1661C6.7586 11.1661 6.9997 11.0734 7.18418 10.9061C7.36866 10.7388 7.48313 10.5092 7.505 10.2625V5.35121C7.49375 5.09732 7.38393 4.85753 7.19845 4.68182C7.01297 4.5061 6.76613 4.40802 6.50938 4.40802C6.25263 4.40802 6.00579 4.5061 5.82031 4.68182C5.63483 4.85753 5.52501 5.09732 5.51375 5.35121L5.51184 10.2625ZM-0.00195312 10.2625C0.0171337 10.5109 0.13031 10.7431 0.314923 10.9124C0.499535 11.0818 0.74196 11.1759 0.993672 11.1759C1.24538 11.1759 1.48781 11.0818 1.67242 10.9124C1.85703 10.7431 1.97021 10.5109 1.9893 10.2625V8.07149C1.97804 7.8176 1.86823 7.57781 1.68274 7.4021C1.49726 7.22638 1.25042 7.1283 0.993672 7.1283C0.736926 7.1283 0.490086 7.22638 0.304602 7.4021C0.119118 7.57781 0.00930322 7.8176 -0.00195312 8.07149V10.2625Z"/>
</svg>
