<svg width="77" height="24" viewBox="0 0 77 24" xmlns="http://www.w3.org/2000/svg">
<path d="M53.9413 1.84358C53.9413 1.84358 52.4976 2.41741 50.8196 4.25369C49.1384 6.09315 48.1631 8.15896 48.8849 8.70729C49.1641 8.91769 49.8057 8.95914 50.9704 7.91029C52.039 6.98177 52.8797 5.82258 53.428 4.52148C54.1788 2.70433 53.9413 1.8659 53.9413 1.84358ZM63.127 5.1527C61.2629 4.19949 59.8993 3.03588 58.4812 2.3154C57.1273 1.6268 56.2514 1.33669 55.1573 1.48334C55.0051 1.50973 54.855 1.54702 54.7082 1.59492C54.7082 1.59492 55.2728 3.5077 53.0302 6.71799C50.7586 9.9761 48.6989 9.95378 48.1117 9.05796C47.4989 8.11432 48.2914 6.18879 49.6132 4.47685C50.9993 2.68521 53.4312 1.19961 53.4312 1.19961C53.4312 1.19961 52.658 0.727788 50.7522 1.80532C48.8914 2.8446 45.6926 5.33441 42.7248 9.52979C39.7539 13.7252 39.1635 16.0333 38.74 17.8504C38.3165 19.6675 38.7015 21.6122 40.7292 21.6122C42.7569 21.6122 45.1183 18.539 45.7856 17.471C47.0241 15.4817 47.8294 12.4308 46.145 12.8485C45.314 13.0557 44.6435 13.9674 44.2199 14.8473C43.9529 15.4123 43.7485 16.0045 43.6104 16.6135C43.0211 16.8548 42.4674 17.1744 41.9645 17.5635C41.4082 17.9777 40.8867 18.4362 40.4052 18.9343C40.4052 18.9343 40.4116 17.4806 41.5762 15.1279C42.7441 12.7783 44.8809 11.704 46.0936 11.602C47.1845 11.5159 48.6058 12.4372 47.4027 15.8324C46.1995 19.2276 42.6446 23.356 38.9133 23.407C35.4707 23.4549 33.2152 19.0873 38.0085 11.4681C43.3152 3.04226 49.5394 0.459998 51.5575 0.17308C53.5788 -0.113837 54.2365 0.769232 54.2365 0.769232C55.4522 0.273146 56.7654 0.0583806 58.077 0.1412C60.5474 0.306974 62.4532 2.04123 64.975 3.26223C64.3173 3.88388 63.6916 4.53742 63.1302 5.14951M74.2119 2.31221C72.5018 3.4025 70.1373 4.39077 67.8625 4.18036C67.2882 4.77014 66.6722 5.45555 66.0562 6.20154C69.9961 6.97622 73.4515 4.54698 75.2867 2.48117C75.9567 1.74026 76.5321 0.920072 77 0.0391859C76.1636 0.903864 75.2278 1.66466 74.2119 2.31221ZM68.963 13.3522C68.9926 13.3004 69.0173 13.2459 69.0368 13.1896C69.0253 13.0996 68.983 13.0162 68.917 12.9535C68.851 12.8908 68.7653 12.8526 68.6742 12.8453C68.2989 12.8293 67.7855 12.8995 66.4444 14.3755C65.3299 15.5961 64.3709 16.9485 63.589 18.4019C62.8189 19.7983 62.5077 20.8375 62.9473 21.1053C63.0917 21.1797 63.2591 21.1968 63.4157 21.1531C63.7141 21.083 64.0542 20.8025 64.5707 20.2127C64.8114 19.9321 65.0777 19.5368 65.3985 19.1001C66.2872 17.9014 68.5202 14.1173 68.963 13.3522ZM55.0097 14.9589C55.2343 14.3787 55.5199 13.2342 54.9263 12.7847C54.2879 12.3065 52.6644 13.4255 52.6548 14.5732C52.6452 15.7495 53.8002 16.2787 54.0761 16.3552C54.2365 16.3967 54.2879 16.3871 54.3649 16.2628C54.6128 15.845 54.8284 15.4092 55.0097 14.9589ZM53.7809 17.0948C53.3777 16.9112 53.002 16.673 52.6644 16.3871C52.3251 16.1052 52.0421 15.7624 51.8302 15.3765C51.8046 15.3383 51.7821 15.367 51.7564 15.402C51.734 15.4339 51.6313 15.5264 50.765 16.7856C49.8988 18.0481 48.5705 20.6622 49.7704 21.1053C50.5437 21.3922 51.827 20.0501 52.5297 19.1607C53.0073 18.5405 53.4383 17.8862 53.8194 17.2032C53.8579 17.1299 53.8194 17.1108 53.7809 17.0948ZM67.4422 20.1139C67.115 20.6335 66.7428 21.6313 67.8176 21.0097C69.133 20.2573 71.0067 17.4296 71.0067 17.4296H71.857C71.0824 18.611 70.2213 19.7341 69.2806 20.7897C67.9492 22.2562 66.3225 23.5919 65.1739 23.458C63.8392 23.305 64.2563 21.558 64.2563 21.558C64.2563 21.558 62.3441 23.5824 61.0158 23.4389C59.2288 23.2413 59.7742 21.0447 59.7742 21.0447C59.7742 21.0447 57.7529 23.5122 56.3733 23.4357C54.2141 23.3082 54.7563 20.6973 55.3595 18.8578C55.6803 17.8759 55.9787 17.1044 55.9787 17.1044C55.9787 17.1044 55.7637 17.1586 55.3049 17.2256C55.0611 17.2606 54.6247 17.2861 54.6247 17.2861C54.6247 17.2861 53.7264 18.8642 53.0045 19.811C52.2826 20.7578 49.225 24.0255 47.4219 23.372C45.76 22.7663 46.3118 20.235 47.2807 18.2234C48.6924 15.2905 52.6708 11.0728 54.968 11.6307C57.3454 12.2045 55.0226 16.5146 55.0226 16.5146C55.0226 16.5146 55.0226 16.5306 55.045 16.5433C55.0932 16.5593 55.2183 16.5752 55.5038 16.5178C55.8007 16.4585 56.0916 16.3731 56.3733 16.2628C56.3733 16.2628 58.7668 11.2864 61.4073 8.02825C64.0478 4.77651 69.3159 -0.834321 71.3853 0.523756C71.8858 0.858494 71.6613 2.00617 70.9811 3.39931C70.6742 3.49768 70.3626 3.58067 70.0474 3.64797C70.503 2.82548 70.8046 2.13369 70.8944 1.64911C71.2057 -0.0341371 67.2529 3.51408 64.4296 7.32371C62.728 9.62153 61.2162 12.0523 59.9089 14.5923C60.4181 14.2821 60.9048 13.9369 61.3656 13.5594C62.6258 12.5219 63.8236 11.4116 64.9525 10.2343C66.0398 9.12982 67.0587 7.96088 68.0037 6.73393C68.3044 6.7171 68.6042 6.68625 68.902 6.64148C67.8703 8.03329 66.7448 9.35401 65.5332 10.5946C64.4103 11.7263 63.1911 12.9441 62.1291 13.8304C61.1822 14.6277 60.1844 15.3635 59.1421 16.0333C59.1421 16.0333 56.6717 20.9842 58.016 21.2998C58.8053 21.4911 60.3645 19.1001 60.3645 19.1001C60.3645 19.1001 62.4019 16.0173 63.6275 14.6242C65.3022 12.7337 66.7396 11.6402 68.1834 11.6211C69.0208 11.6052 69.5148 12.4914 69.5148 12.4914L69.9095 11.8857H72.3382C72.3382 11.8857 67.8016 19.5305 67.439 20.1075M74.2119 2.31859C72.5018 3.40569 70.1373 4.39396 67.8625 4.18355C67.285 4.77333 66.6722 5.45874 66.053 6.20473C69.9961 6.97941 73.4483 4.55336 75.2867 2.48436C75.9569 1.74246 76.5323 0.921187 77 0.0391859C76.1636 0.903864 75.2278 1.66466 74.2119 2.31221M40.1068 6.06764H37.7968L36.491 8.16533H38.801L40.1068 6.06764ZM29.1662 13.3267C30.1512 11.9877 32.8623 7.2982 32.8623 7.2982C32.8509 7.20868 32.8091 7.12571 32.7437 7.06308C32.6783 7.00045 32.5934 6.96192 32.5029 6.9539C32.1275 6.93477 31.5019 7.06229 30.2571 8.60846C29.0122 10.1546 28.0497 11.382 27.3471 12.6636C26.577 14.0599 26.237 15.045 26.6829 15.3128C26.8255 15.3855 26.9903 15.4025 27.1449 15.3606C27.4337 15.2905 27.8123 15.0003 28.3288 14.4106C28.6219 14.0593 28.9023 13.6978 29.1694 13.3267M16.7754 6.98259C16.137 6.5044 14.5135 7.62338 14.5039 8.76786C14.4943 9.94422 15.9669 10.3045 16.1562 10.3108C16.2116 10.3142 16.2668 10.3032 16.3166 10.279C16.3506 10.2588 16.3775 10.2288 16.3936 10.1929C16.5652 9.8546 16.7215 9.5089 16.8621 9.15679C17.0867 8.57339 17.369 7.4321 16.7754 6.98259ZM15.8129 11.0313C15.3731 10.8934 14.9526 10.7006 14.5617 10.4575C14.181 10.2134 13.8722 9.8735 13.6665 9.4724C13.6441 9.43414 13.6184 9.46284 13.5959 9.49791C13.5735 9.53297 13.4451 9.69237 12.5757 10.958C11.7094 12.2268 10.4196 14.8154 11.626 15.2618C12.396 15.5487 13.6922 14.197 14.398 13.3107C14.9269 12.616 15.4143 11.8911 15.8578 11.1397C15.8867 11.0632 15.8578 11.0441 15.8129 11.0313ZM34.6782 11.8092H35.522C35.522 11.8092 31.2837 17.9046 28.8871 17.6209C27.5524 17.4647 27.947 15.826 27.947 15.826C27.947 15.826 26.0701 18.0098 24.344 17.5667C22.7815 17.1682 23.7922 14.5827 23.7922 14.5827C23.6125 14.6529 20.2277 18.4434 17.847 17.5348C15.3573 16.5784 16.6503 13.4032 17.1252 12.45C17.5262 11.6434 17.969 10.8592 17.969 10.8592C17.969 10.8592 17.5872 10.9676 17.3433 11.0218L16.7466 11.1493C16.7466 11.1493 15.5691 13.0493 14.8504 13.9993C14.1285 14.9462 11.0709 18.2075 9.26782 17.5603C7.46471 16.9131 7.91068 14.4042 8.92452 12.4117C10.5672 9.18548 14.4622 5.21964 16.8107 5.81898C19.1817 6.42151 17.2182 10.2439 17.2182 10.2439C17.2182 10.2439 17.6898 10.3045 18.8224 9.53616C20.449 8.43312 22.5954 5.46512 24.9215 5.8158C26.0188 5.97838 27.0391 7.09098 25.6434 9.2078C25.1974 9.88684 24.4499 10.4926 23.8788 9.89321C23.5227 9.51703 23.8339 8.84118 24.2093 8.37255C24.3554 8.18355 24.5458 8.0328 24.7638 7.93337C24.9819 7.83393 25.221 7.78881 25.4605 7.8019C25.4605 7.8019 25.8455 6.93158 24.867 6.94434C24.0745 6.96028 22.0725 8.79336 20.9431 10.6424C19.9068 12.3416 18.3347 15.2363 19.91 15.8675C21.357 16.4477 24.1098 13.2023 25.3835 11.5C26.6573 9.80076 29.5608 5.9465 31.9992 5.79348C32.8366 5.73928 33.3371 6.49802 33.3371 6.49802L33.6194 6.05489H36.0546C36.0546 6.05489 31.4666 13.6646 31.1073 14.2384C30.8249 14.6879 30.4528 15.7049 31.4827 15.1342C32.5158 14.5668 34.6782 11.8092 34.6782 11.8092ZM33.3499 24C31.5568 22.7651 29.4086 22.1419 27.2284 22.2243C26.639 22.2404 26.0617 22.3943 25.5433 22.6735C25.0249 22.9526 24.58 23.3492 24.2446 23.831C23.3141 22.2211 21.4789 21.2328 18.6395 21.2552C14.0515 21.3062 9.49883 23.4102 5.89581 23.407C2.44038 23.407 -0.0814078 21.2488 0.00201018 17.4136C0.152804 10.6902 5.87335 4.63306 10.1405 1.90734C12.6013 0.34523 14.6611 -0.1234 16.0054 0.0264349C16.9872 0.134826 18.1679 1.26337 17.4235 2.9243C16.3295 5.35035 14.8183 5.1527 14.8729 3.99227C14.905 3.23672 15.4119 2.76172 15.7905 2.49711C16.0658 2.35442 16.3718 2.28005 16.6824 2.28033C16.9006 2.09862 17.0578 0.769233 15.306 1.20599C13.5542 1.64274 11.4239 3.36105 9.40257 5.5767C7.38129 7.79553 4.23708 11.9877 3.46065 16.3903C3.0981 18.4306 3.33552 22.1542 8.20906 22.1127C12.3382 22.0808 18.4278 19.3743 24.0232 19.4316C25.9714 19.424 27.8848 19.9442 29.5576 20.9364C31.0046 21.8226 32.7404 23.1169 33.3564 24"/>
</svg>
