<svg width="83" height="24" viewBox="0 0 83 24" xmlns="http://www.w3.org/2000/svg">
<path d="M0 0H15.9645V7.87787H7.885L0 0ZM0 7.87787H7.885L15.9645 15.9383H7.885V24L0 15.9376V7.87787ZM26.1204 18.0021V6.09923H33.4672V8.47747H28.8782V11.5989H33.4678V13.9765H28.8782V18.0021H26.1204ZM35.1161 18.0021V9.75851H37.8629V11.5995C37.8629 11.0506 38.2293 10.49 38.5956 10.1242C39.1449 9.75851 39.5229 9.57532 40.0715 9.57532C40.4379 9.57532 40.6207 9.75851 40.8042 9.75851V12.1478H40.0715C39.3388 12.1478 38.7785 12.331 38.4121 12.8799C38.0458 13.2456 37.8629 13.9771 37.8629 14.8918V18.0021H35.1161ZM45.2097 18.3685C43.9174 18.3685 43.0011 17.8189 42.269 17.0875C41.7198 16.3553 41.3528 15.2581 41.3528 13.9771C41.3528 13.0624 41.5363 12.331 41.7198 11.7821C42.0571 11.1123 42.5615 10.5412 43.184 10.1242C43.7339 9.75851 44.466 9.57532 45.2097 9.57532C45.7596 9.57532 46.3088 9.75851 46.858 9.94105C47.2238 10.1242 47.5908 10.49 47.7736 11.0506V9.75786H50.5204V18.0015H47.7736V16.9043C47.5908 17.2706 47.2238 17.6364 46.858 18.0021C46.3088 18.1853 45.7596 18.3685 45.2097 18.3685ZM45.9424 16.1728C46.6752 16.1728 47.0409 15.9896 47.4079 15.4407C47.7736 15.0749 47.9565 14.526 47.9565 13.9771C47.9565 13.2456 47.7736 12.8793 47.4073 12.331C47.0409 11.9652 46.6745 11.7821 45.9418 11.7821C45.3932 11.7821 44.8323 11.9652 44.466 12.331C44.1002 12.8799 43.9167 13.2456 43.9167 13.9771C43.9167 14.526 44.1002 15.0749 44.466 15.4407C44.8323 15.9896 45.3932 16.1721 45.9424 16.1721V16.1728ZM52.5455 18.0021V9.75851H55.1088V11.0506C55.2923 10.49 55.658 10.3068 56.025 9.9417C56.5853 9.75851 56.9523 9.57532 57.5008 9.57532C58.7828 9.57532 59.699 10.1242 60.0648 11.0499C60.4305 10.6732 60.7975 10.3074 61.1632 9.9417C61.7124 9.75851 62.2733 9.57532 62.8232 9.57532C64.8366 9.57532 65.7522 10.6732 65.7522 12.8799V18.0021H63.1889V13.4288C63.1889 12.8799 63.0061 12.5135 62.8226 12.1478C62.6391 11.9659 62.2733 11.7821 61.896 11.7821C61.3465 11.7821 60.9801 11.965 60.7969 12.331C60.614 12.5135 60.4305 13.0631 60.4305 13.7946V18.0021H57.8672V13.4288C57.8672 12.8799 57.6844 12.5135 57.5008 12.1478C57.318 11.9659 56.9516 11.7821 56.5852 11.7821C56.2079 11.7821 55.8408 11.9652 55.4758 12.331C55.2923 12.5135 55.1088 13.0631 55.1088 13.7946V18.0021H52.5455ZM75.8471 13.4288V14.7086H69.7933C69.7933 15.2581 69.9761 15.6245 70.3425 15.9896C70.5254 16.1721 71.0746 16.3553 71.6238 16.3553C72.5394 16.3553 72.9058 16.1721 73.2715 15.6239H75.8471C75.6636 16.3553 75.2972 17.0875 74.3823 17.6364C73.6495 18.0021 72.7229 18.3678 71.6238 18.3678C70.159 18.3678 69.0605 18.0021 68.3278 17.0875C67.9176 16.6805 67.5922 16.196 67.3702 15.6621C67.1483 15.1282 67.0343 14.5555 67.0348 13.9771C67.0348 12.5142 67.584 11.5995 68.3278 10.6732C69.0605 9.94126 70.1592 9.57532 71.6238 9.57532C72.9058 9.57532 73.833 9.94105 74.7486 10.6732C75.4807 11.4163 75.8471 12.331 75.8471 13.4288ZM69.7933 13.0624H73.2715C73.2715 12.5142 73.0893 12.1478 72.9058 11.7827C72.5394 11.4163 72.1737 11.4163 71.6238 11.4163C71.0746 11.4163 70.5254 11.5995 70.159 11.7821C69.9761 12.1478 69.7933 12.5142 69.7933 13.0624ZM77.3126 18.0021V9.75851H79.8868V11.5995C80.0813 11.0469 80.3938 10.5434 80.8024 10.1242C81.1688 9.75851 81.7187 9.57532 82.2673 9.57532C82.4508 9.57532 82.8165 9.75851 83 9.75851V12.1478H82.0844C81.5352 12.1478 80.9853 12.331 80.6196 12.8799C80.0697 13.2456 79.8868 13.9771 79.8868 14.8918V18.0021H77.3126Z"/>
</svg>
