<svg width="100" height="41" viewBox="0 0 185 41" xmlns="http://www.w3.org/2000/svg">
<g clip-path="url(#clip0_651_105)">
<path d="M74.4135 15.5271H80.4611C79.4531 9.0907 73.8831 4.59593 66.6417 4.59593C59.4003 4.59593 51.6558 10.8993 51.6558 21.4849C51.6558 32.0705 57.7831 38.321 66.8275 38.321C75.8722 38.321 80.7263 33.1076 80.7263 24.6233V20.6871H67.4377V25.3415H74.9702C74.8642 30.0226 71.761 32.9747 66.8275 32.9747C61.894 32.9747 57.5973 28.8521 57.5973 21.4316C57.5973 14.0111 61.4164 9.94187 66.6949 9.94187C71.9734 9.94187 73.3261 12.0694 74.3869 15.5275L74.4135 15.5271ZM84.7312 37.8684H90.5135V13.2666H84.7312V37.8684ZM87.6224 9.35665C89.4527 9.35665 90.9646 7.94692 90.9646 6.21791C90.9646 4.48962 89.4527 3.05322 87.6224 3.05322C85.7924 3.05322 84.2539 4.46295 84.2539 6.21827C84.2539 7.97358 85.7658 9.35665 87.6224 9.35665ZM107.834 13.2666H102.98V7.36205H97.1976V13.2666H93.7231V17.7613H97.1976V31.4586C97.1976 36.0864 100.513 38.3739 104.863 38.2406C106.508 38.1876 107.648 37.8684 108.258 37.6557L107.277 33.108C106.959 33.1873 106.295 33.3206 105.579 33.3206C104.12 33.3206 102.953 32.815 102.953 30.4745V17.761H107.807V13.2669L107.834 13.2666ZM112.316 37.8684H132.66V32.895H118.258V5.04782H112.316V37.8684ZM143.747 38.3739C147.593 38.3739 149.901 36.5649 150.962 34.4907H151.148V37.8684H156.718V21.4049C156.718 14.8889 151.439 12.9473 146.745 12.9473C142.05 12.9473 137.62 15.2611 136.347 19.7293L141.758 20.5004C142.342 18.8251 143.96 17.3891 146.798 17.3891C149.636 17.3891 150.962 18.7718 150.962 21.1923V21.2986C150.962 22.9743 149.211 23.0539 144.888 23.5062C140.114 24.0114 135.578 25.4478 135.578 30.9801C135.578 36.5123 139.106 38.3739 143.801 38.3739H143.747ZM145.631 34.0918C143.217 34.0918 141.493 32.9747 141.493 30.8471C141.493 28.7192 143.429 27.6821 146.028 27.3094C147.541 27.0968 150.591 26.7246 151.333 26.1127V29.0118C151.333 31.7512 149.132 34.0651 145.631 34.0651L145.631 34.0918ZM160.962 37.8684H166.638V33.9855H166.983C167.884 35.7675 169.794 38.2939 174.011 38.2939C178.229 38.2939 184.117 33.6929 184.117 25.5804C184.117 17.4687 179.661 12.921 173.985 12.921C168.309 12.921 167.858 15.5271 166.956 17.3091H166.717V5.02151H160.935V37.842H160.962V37.8684ZM166.638 25.5541C166.638 20.7667 168.68 17.6813 172.42 17.6813C176.16 17.6813 178.255 20.9793 178.255 25.5541C178.255 30.1289 176.239 33.5332 172.42 33.5332C168.601 33.5332 166.638 30.3152 166.638 25.5541Z"/>
<path d="M40.7542 16.2983L40.7013 16.139L35.0782 1.43089C34.9718 1.13827 34.7598 0.898993 34.4946 0.739354C34.2304 0.579984 33.9274 0.497157 33.6191 0.500074C33.3011 0.500074 33.0093 0.633047 32.7707 0.819354C32.5209 1.01223 32.3432 1.28392 32.2664 1.59052L28.4736 13.2399H13.1157L9.32323 1.59052C9.24345 1.29791 9.05801 1.03197 8.81939 0.819354C8.5804 0.633047 8.28859 0.500074 7.97054 0.500074C7.65214 0.500074 7.36032 0.553408 7.09511 0.739354C6.82989 0.898993 6.61786 1.13827 6.51148 1.43125L0.88834 16.1386L0.835871 16.2986C-0.835223 20.6604 0.597246 25.5808 4.31031 28.4003H4.3635C4.3635 28.4269 12.931 34.8633 12.931 34.8633L17.1745 38.0813L19.7476 40.023C20.0474 40.2558 20.4159 40.3822 20.7952 40.3822C21.1745 40.3822 21.543 40.2558 21.8428 40.023L24.4159 38.0813L28.6598 34.8633L37.2801 28.4003C39.0872 27.032 40.4011 25.1111 41.0231 22.9279C41.6452 20.7446 41.5415 18.4176 40.7279 16.2986L40.7542 16.2983Z"/>
<path d="M40.7544 16.2982L40.7015 16.1389C37.9164 16.7241 35.3433 17.8942 33.1421 19.5432C33.1155 19.5432 26.4577 24.6232 20.7817 28.9054C23.3956 30.8957 26.0127 32.8816 28.633 34.8632L37.2533 28.4002C39.0605 27.032 40.3745 25.1111 40.9966 22.9279C41.6187 20.7446 41.5151 18.4176 40.7015 16.2986L40.7544 16.2982Z"/>
<path d="M12.9038 34.8634L17.148 38.0814L19.7208 40.023C20.0206 40.2559 20.3891 40.3823 20.7684 40.3823C21.1476 40.3823 21.5161 40.2559 21.8159 40.023L24.3891 38.0814L28.6329 34.8634C28.6329 34.8634 24.9727 32.0972 20.7813 28.9055C16.564 32.0972 12.9038 34.8634 12.9038 34.8634Z"/>
<path d="M8.42129 19.5432C6.22012 17.8942 3.64699 16.6975 0.862195 16.1389L0.809008 16.2986C-0.862086 20.6604 0.570383 25.5807 4.2838 28.4002H4.33663C4.33663 28.4268 12.9041 34.8632 12.9041 34.8632C12.9041 34.8632 16.5644 32.0971 20.7816 28.9054C15.1323 24.6232 8.47448 19.5699 8.42129 19.5432Z"/>
</g>
<defs>
<clipPath id="clip0_651_105">
<rect width="184" height="40" transform="translate(0.117188 0.5)"/>
</clipPath>
</defs>
</svg>
