<svg width="99" height="24" viewBox="0 0 99 24" xmlns="http://www.w3.org/2000/svg">
<path d="M11.645 0.000810836C11.464 0.00689696 11.286 0.0486603 11.1212 0.123708C10.9563 0.198756 10.8079 0.305612 10.6844 0.438159L5.28125 6.22587L1.43115 10.3517C0.933465 10.8856 0.550466 11.5161 0.305819 12.204C0.0140056 13.0389 -0.0706657 13.9323 0.0590972 14.8072V14.8088C0.248871 16.0865 0.853611 17.2663 1.77996 18.1659L6.05313 22.3598L6.06086 22.3675L6.09257 22.3977C8.3386 24.562 11.9397 24.5303 14.1486 22.3234L16.5415 19.9315C17.0806 19.3928 17.0829 18.5173 16.5462 17.977C16.4185 17.8483 16.2666 17.7461 16.0994 17.6763C15.9321 17.6065 15.7527 17.5704 15.5715 17.5701C15.3903 17.5698 15.2108 17.6053 15.0433 17.6746C14.8759 17.7439 14.7237 17.8456 14.5956 17.9739L12.2011 20.3658C11.0549 21.5114 9.16771 21.5284 8.00061 20.403L7.9805 20.3851L3.70888 16.1912C2.55029 15.0541 2.44047 13.3179 3.44592 12.2412L7.29679 8.11538C8.35406 6.98136 10.4972 6.84513 11.7223 7.83671L15.2213 10.6667C15.8137 11.1466 16.6807 11.0537 17.1595 10.46C17.389 10.1747 17.4961 9.80992 17.4572 9.44568C17.4184 9.08144 17.2368 8.7475 16.9522 8.51712L13.4556 5.68712C12.6551 5.03923 11.6867 4.646 10.679 4.48964L12.6976 2.32611C13.2166 1.76878 13.188 0.894086 12.6319 0.373137C12.5002 0.248944 12.3453 0.152096 12.176 0.0881883C12.0068 0.0242809 11.8258 -0.00541702 11.645 0.000810836ZM27.7245 7.64474C27.6243 7.64328 27.5249 7.66192 27.432 7.69954C27.3392 7.73716 27.2548 7.79301 27.1838 7.8638C27.1107 7.9353 27.053 8.021 27.0141 8.11564C26.9753 8.21028 26.9562 8.31187 26.958 8.41417V17.5079C26.958 18.2913 27.2333 18.9591 27.784 19.5112C28.0435 19.7786 28.355 19.9901 28.6992 20.1325C29.0435 20.2749 29.4132 20.3454 29.7856 20.3395H32.2436C32.3458 20.341 32.4472 20.3216 32.5416 20.2824C32.636 20.2433 32.7215 20.1853 32.7927 20.1119C32.8664 20.0426 32.9247 19.9585 32.9637 19.8652C33.0028 19.7718 33.0217 19.6712 33.0193 19.5701V19.5538C33.021 19.4514 33.0018 19.3498 32.9628 19.2552C32.9239 19.1605 32.866 19.0749 32.7927 19.0034C32.7216 18.9299 32.6361 18.8717 32.5417 18.8325C32.4473 18.7932 32.3458 18.7737 32.2436 18.7751H29.7856C29.4366 18.7751 29.1385 18.6512 28.8916 18.4035C28.7718 18.2875 28.677 18.1482 28.613 17.9942C28.5491 17.8402 28.5172 17.6747 28.5195 17.5079V8.41417C28.5209 8.31183 28.5014 8.21029 28.4622 8.11578C28.4229 8.02127 28.3648 7.93579 28.2914 7.86458C28.2204 7.79356 28.1359 7.73751 28.0429 7.69975C27.9499 7.66199 27.8503 7.64328 27.75 7.64474H27.7245ZM55.2723 7.64474C55.172 7.64318 55.0724 7.66176 54.9794 7.69939C54.8864 7.73701 54.8019 7.79292 54.7309 7.8638C54.6575 7.93517 54.5994 8.02081 54.5603 8.11546C54.5212 8.21011 54.5019 8.31176 54.5035 8.41417V17.9391C54.5035 18.5986 54.737 19.165 55.2042 19.6382C55.4265 19.8646 55.6924 20.0435 55.9858 20.164C56.2792 20.2846 56.594 20.3443 56.9111 20.3395H57.5863C57.7952 20.3395 57.9756 20.2636 58.1277 20.1119C58.2016 20.0427 58.26 19.9586 58.2992 19.8653C58.3384 19.7719 58.3574 19.6713 58.3551 19.5701V19.5538C58.3566 19.4513 58.3372 19.3496 58.2979 19.255C58.2587 19.1603 58.2005 19.0747 58.127 19.0034C58.0571 18.9306 57.9731 18.8728 57.8801 18.8335C57.7872 18.7943 57.6872 18.7744 57.5863 18.7751H56.9111C56.6745 18.7751 56.4747 18.6935 56.3117 18.5305C56.2326 18.4539 56.17 18.3619 56.1279 18.2602C56.0857 18.1585 56.0648 18.0492 56.0666 17.9391V12.6731H57.5863C57.7952 12.6731 57.9756 12.597 58.1277 12.4447C58.2015 12.3756 58.2599 12.2917 58.299 12.1985C58.3382 12.1052 58.3573 12.0048 58.3551 11.9037V11.8874C58.3565 11.7851 58.337 11.6835 58.2978 11.589C58.2585 11.4945 58.2004 11.409 58.127 11.3378C58.057 11.2651 57.973 11.2075 57.8801 11.1683C57.7871 11.1292 57.6872 11.1095 57.5863 11.1102H56.0666V8.41417C56.068 8.31183 56.0484 8.21029 56.0092 8.11578C55.97 8.02127 55.9118 7.93579 55.8384 7.86458C55.7675 7.79365 55.6832 7.73765 55.5903 7.6999C55.4975 7.66214 55.398 7.64339 55.2978 7.64474H55.2723ZM65.6678 7.64474C63.9168 7.64474 62.4218 8.26451 61.1828 9.50406C59.9453 10.7436 59.3265 12.2394 59.3265 13.9913C59.3265 16.6193 59.9445 17.2409 61.1828 18.4809C62.4218 19.7194 63.9171 20.339 65.6686 20.3395C66.2023 20.3395 66.7282 20.2745 67.2464 20.1444C67.6352 20.0438 67.8296 19.7935 67.8296 19.3936V19.375C67.8329 19.2566 67.807 19.1391 67.7541 19.0331C67.7012 18.9271 67.623 18.8358 67.5264 18.7673C67.4353 18.6937 67.328 18.643 67.2134 18.6193C67.0988 18.5956 66.9802 18.5996 66.8674 18.6311C66.4749 18.7264 66.0725 18.7747 65.6686 18.7751C64.3507 18.7751 63.2246 18.3106 62.2903 17.3818C61.356 16.4451 60.8889 15.315 60.8889 13.9913C60.8889 12.0058 61.356 11.5375 62.2903 10.6017C63.2246 9.66661 64.3504 9.19907 65.6678 9.19907C66.0736 9.19907 66.4735 9.2499 66.8674 9.35156C67.1098 9.41349 67.3294 9.36859 67.5264 9.21688C67.6222 9.1473 67.6998 9.05557 67.7526 8.9495C67.8054 8.84343 67.8318 8.72616 67.8296 8.60768V8.58214C67.8296 8.18736 67.6352 7.93941 67.2464 7.83826C66.7304 7.70936 66.1997 7.64437 65.6678 7.64474ZM87.7591 7.64474C87.6592 7.64349 87.5601 7.66222 87.4675 7.69984C87.3749 7.73746 87.2908 7.7932 87.2201 7.8638C87.1465 7.9351 87.0883 8.02071 87.0491 8.11536C87.0099 8.21001 86.9904 8.3117 86.9919 8.41417V12.2683C86.119 11.4963 85.1027 11.1102 83.9431 11.1102C82.6705 11.1102 81.5839 11.5608 80.6831 12.4618C79.7823 13.3633 79.3317 14.4509 79.3311 15.7245C79.3304 17.6349 79.7828 18.0854 80.6831 18.9864C81.5844 19.8885 82.671 20.3395 83.9431 20.3395C85.2099 20.3395 86.2935 19.8916 87.1938 18.9957C88.0951 18.0998 88.5483 17.0179 88.5534 15.75V8.41417C88.5548 8.31183 88.5353 8.21029 88.4961 8.11578C88.4569 8.02127 88.3987 7.93579 88.3253 7.86458C88.2544 7.79365 88.1701 7.73765 88.0772 7.6999C87.9843 7.66214 87.8849 7.64339 87.7847 7.64474H87.7591ZM38.3064 11.1102C37.0339 11.1102 35.9472 11.5608 35.0465 12.4618C34.1462 13.3633 33.6961 14.4509 33.6961 15.7245C33.6961 17.6349 34.1462 18.0854 35.0465 18.9864C35.9472 19.8885 37.0339 20.3395 38.3064 20.3395C39.2748 20.3478 40.2198 20.0423 41.0003 19.4687C41.7732 18.9257 42.353 18.1502 42.6554 17.2548C42.7011 17.1396 42.7166 17.0147 42.7005 16.8918C42.6844 16.7689 42.6372 16.6522 42.5634 16.5527C42.4939 16.4488 42.3994 16.3641 42.2885 16.3065C42.1776 16.2488 42.054 16.2201 41.9292 16.223C41.5579 16.223 41.3102 16.3979 41.1859 16.7478C40.9853 17.3394 40.6045 17.8532 40.0969 18.217C39.5789 18.6002 38.9506 18.805 38.3064 18.8006C37.3159 18.8006 36.5165 18.412 35.908 17.6349L39.0079 16.2323L42.1148 14.8289C42.2085 14.7889 42.2929 14.7301 42.3629 14.656C42.4329 14.582 42.4869 14.4943 42.5216 14.3985C42.5577 14.3031 42.574 14.2013 42.5695 14.0993C42.5649 13.9974 42.5397 13.8974 42.4953 13.8056C42.1376 13.0092 41.5568 12.3337 40.8232 11.8611C40.0779 11.3651 39.2014 11.1037 38.3064 11.1102ZM48.5852 11.1102C47.3127 11.1102 46.226 11.5608 45.3253 12.4618C44.424 13.3633 43.9733 14.4509 43.9733 15.7245C43.9733 17.6349 44.4242 18.0854 45.3253 18.9864C46.226 19.8885 47.3124 20.3395 48.5845 20.3395C49.5528 20.3478 50.4978 20.0423 51.2783 19.4687C52.0512 18.9257 52.631 18.1502 52.9334 17.2548C52.979 17.1396 52.9944 17.0146 52.9781 16.8917C52.9619 16.7688 52.9145 16.6522 52.8406 16.5527C52.7712 16.4489 52.6768 16.3643 52.5661 16.3066C52.4554 16.249 52.3319 16.2202 52.2072 16.223C51.8359 16.223 51.5884 16.3979 51.4647 16.7478C51.2637 17.3396 50.8823 17.8535 50.3742 18.217C49.8563 18.6001 49.2284 18.8049 48.5845 18.8006C47.594 18.8006 46.7945 18.412 46.1861 17.6349L49.286 16.2323L52.3928 14.8289C52.4862 14.7887 52.5703 14.7298 52.6401 14.6558C52.7098 14.5817 52.7636 14.4942 52.7981 14.3985C52.8342 14.3031 52.8505 14.2013 52.8459 14.0993C52.8414 13.9974 52.8162 13.8974 52.7718 13.8056C52.4145 13.0094 51.8342 12.3339 51.1012 11.8611C50.3559 11.3651 49.4802 11.1037 48.5852 11.1102ZM73.5382 11.1102C72.2662 11.1102 71.1795 11.5608 70.2782 12.4618C69.378 13.3633 68.9278 14.4509 68.9278 15.7245C68.9278 17.6349 69.378 18.0854 70.2782 18.9864C71.1795 19.8885 72.2662 20.3395 73.5382 20.3395C75.4462 20.3395 75.8971 19.8882 76.7982 18.9864C77.6995 18.0849 78.1501 16.9976 78.1501 15.7245C78.1501 14.4514 77.6995 13.3638 76.7982 12.4618C75.4462 11.1095 74.8105 11.1102 73.5382 11.1102ZM94.6008 11.1102C93.3283 11.1102 92.2416 11.5608 91.3409 12.4618C90.4396 13.3633 89.9889 14.4509 89.9889 15.7245C89.9889 17.6349 90.4398 18.0854 91.3409 18.9864C92.2416 19.8885 93.3283 20.3395 94.6008 20.3395C95.5689 20.3476 96.5136 20.0422 97.2939 19.4687C98.0668 18.9257 98.6466 18.1502 98.949 17.2548C98.9946 17.1396 99.01 17.0146 98.9937 16.8917C98.9775 16.7688 98.9302 16.6522 98.8562 16.5527C98.7868 16.4489 98.6924 16.3643 98.5817 16.3066C98.471 16.249 98.3475 16.2202 98.2228 16.223C97.8515 16.223 97.604 16.3979 97.4803 16.7478C97.2793 17.3396 96.8979 17.8535 96.3898 18.217C95.872 18.6001 95.244 18.8049 94.6001 18.8006C93.6096 18.8006 92.8101 18.412 92.2017 17.6349L95.3016 16.2323L98.4084 14.8289C98.5018 14.7887 98.586 14.7298 98.6557 14.6558C98.7254 14.5817 98.7792 14.4942 98.8137 14.3985C98.8501 14.3032 98.8668 14.2015 98.8627 14.0996C98.8586 13.9976 98.8337 13.8976 98.7897 13.8056C98.4318 13.009 97.8507 12.3336 97.1168 11.8611C96.3715 11.3651 95.495 11.1037 94.6001 11.1102H94.6008ZM38.3064 12.6894C39.2526 12.6894 40.0296 13.0529 40.6375 13.78L35.2916 16.1974C35.2698 16.0493 35.2586 15.8998 35.2584 15.75C35.2584 14.9047 35.5538 14.1836 36.1447 13.5865C36.4245 13.2969 36.7608 13.0679 37.1326 12.9137C37.5045 12.7595 37.904 12.6826 38.3064 12.6894ZM48.5852 12.6894C49.5309 12.6894 50.3077 13.0529 50.9156 13.78L45.5697 16.1974C45.5473 16.0493 45.5356 15.8998 45.5349 15.75C45.5349 14.9047 45.8306 14.1836 46.422 13.5865C46.7018 13.2968 47.0382 13.0678 47.4102 12.9136C47.7822 12.7594 48.1819 12.6833 48.5845 12.6901L48.5852 12.6894ZM73.5382 12.6894C74.3828 12.6894 75.1008 12.9884 75.6922 13.5865C76.2887 14.1836 76.5868 14.9047 76.5863 15.75C76.5868 16.5896 76.2887 17.3082 75.6922 17.9058C75.1008 18.5029 74.3828 18.8011 73.5382 18.8006C72.2713 18.7999 71.9736 18.5034 71.3765 17.9058C71.0905 17.6253 70.8645 17.2896 70.7121 16.919C70.5597 16.5484 70.4842 16.1507 70.4901 15.75C70.4901 14.9047 70.7856 14.1836 71.3765 13.5865C71.6563 13.2969 71.9925 13.0679 72.3644 12.9137C72.7362 12.7595 73.1358 12.6826 73.5382 12.6894ZM83.9431 12.6894C84.7876 12.6894 85.5051 12.9884 86.0955 13.5865C86.385 13.8665 86.6139 14.203 86.7681 14.5751C86.9223 14.9473 86.9985 15.3472 86.9919 15.75C86.9919 16.5896 86.6931 17.3082 86.0955 17.9058C85.5051 18.5029 84.7876 18.8011 83.9431 18.8006C83.098 18.8011 82.3769 18.5029 81.7798 17.9058C81.4938 17.6253 81.2678 17.2896 81.1154 16.919C80.963 16.5484 80.8875 16.1507 80.8935 15.75C80.8935 14.9047 81.1889 14.1836 81.7798 13.5865C82.0598 13.2967 82.3963 13.0676 82.7684 12.9134C83.1405 12.7592 83.5404 12.6824 83.9431 12.6894ZM94.6008 12.6894C95.5465 12.6894 96.3233 13.0529 96.9312 13.78L91.5853 16.1974C91.5634 16.0493 91.5523 15.8998 91.552 15.75C91.552 14.9047 91.8477 14.1836 92.4391 13.5865C92.7188 13.297 93.0549 13.0681 93.4267 12.9139C93.7984 12.7597 94.1977 12.6835 94.6001 12.6901L94.6008 12.6894ZM8.77945 12.8155C8.01762 12.8155 7.40121 13.434 7.40121 14.1972C7.40121 14.9605 8.01762 15.579 8.77945 15.579H18.9438C19.3099 15.579 19.6611 15.4334 19.92 15.1743C20.1789 14.9151 20.3243 14.5637 20.3243 14.1972C20.3243 13.8308 20.1789 13.4793 19.92 13.2202C19.6611 12.9611 19.3099 12.8155 18.9438 12.8155H8.77945Z"/>
</svg>
