<svg viewBox="0 0 91 88" fill="none" xmlns="http://www.w3.org/2000/svg">
<path d="M24.9026 88C22.3134 86.3295 21.8631 83.4038 20.705 80.9029C20.5392 80.5437 20.8414 79.9702 20.9253 79.4951C20.9896 79.132 21.2333 78.6705 21.0929 78.4214C19.7028 75.9591 20.4847 73.4061 20.8141 70.7449C21.1534 71.0887 21.5024 71.4247 21.8319 71.7781C23.1537 73.1937 24.4815 74.6053 25.7838 76.0383C26.1972 76.4921 26.6144 76.5636 27.0219 76.1252C27.5385 75.5729 28.1507 75.0341 28.449 74.3678C30.0984 70.6947 31.664 66.983 33.2627 63.2867C33.951 61.6954 33.5454 59.7584 32.1378 58.6557C29.6675 56.7188 27.1603 54.8281 24.6179 52.9877C24.2397 52.7135 23.5593 52.6768 23.0621 52.7637C21.5297 53.0341 20.0245 53.457 18.4921 53.7389C17.6732 53.8896 17.4549 54.3009 17.4627 55.0637C17.4997 58.6654 17.4997 62.269 17.4997 65.8706C17.4997 66.2955 17.4178 66.7203 17.258 67.1587C14.4426 63.6826 12.9726 59.5769 11.4558 55.4963C11.3056 55.5195 11.1575 55.5427 11.0073 55.5678C11.0073 57.8079 11.0073 60.0481 11.0073 62.2883C10.8787 62.3134 10.75 62.3404 10.6213 62.3655C10.3912 62.0816 10.1358 61.8132 9.93307 61.51C9.12591 60.303 8.47863 58.957 7.50965 57.8968C3.91252 53.961 2.6433 48.8125 0.145783 44.309C-0.0413849 43.971 -0.0394433 43.411 0.100932 43.0363C0.734572 41.3388 1.87903 40.2188 3.62787 39.4405C9.75956 36.7098 15.8191 33.8246 21.8826 30.9472C22.3758 30.7135 22.8574 30.1496 23.0348 29.634C23.4618 28.3941 24.2475 27.5792 25.351 26.9071C28.0903 25.2405 30.7984 23.5218 33.483 21.7702C33.9276 21.4805 34.3565 20.9726 34.5144 20.4802C35.9552 16.0018 38.5892 12.3093 42.0518 9.17503C45.9355 5.65835 50.373 2.91994 54.9508 0.393956C55.2413 0.233669 55.5649 0.13132 55.8749 0C55.9451 0.0637289 56.0153 0.125523 56.0855 0.189252C55.4167 1.73613 54.748 3.283 54.1105 4.75842C57.2884 3.7909 60.4605 2.72875 63.6872 1.87324C66.9334 1.01193 70.2693 0.635356 73.6227 0.540728C73.6695 0.645012 73.7182 0.751228 73.765 0.855511C71.6204 2.70558 69.4777 4.55758 67.3331 6.40765C67.3623 6.50421 67.3915 6.60077 67.4208 6.69733C73.4062 7.41573 79.4307 7.90046 85.3148 9.24649C85.3362 9.36236 85.3596 9.47823 85.3811 9.5941C83.7297 10.2353 82.0784 10.8745 80.2593 11.5813C81.1367 12.2456 81.8756 12.7999 82.6106 13.3599C85.2348 15.3625 87.8571 17.3671 90.4853 19.3659C90.6354 19.4798 90.8245 19.5455 90.9961 19.6324C90.9961 20.148 90.9961 20.6617 90.9961 21.1773C90.7114 21.0363 90.3956 20.9321 90.1441 20.7467C86.5626 18.0797 82.9771 15.4185 79.4268 12.711C78.8166 12.2456 78.3038 12.1201 77.5688 12.3653C71.7802 14.2888 65.9819 16.1736 60.1875 18.0758C59.977 18.1454 59.782 18.2593 59.4096 18.4312C61.564 18.6166 63.5039 18.7672 65.438 18.9526C70.3784 19.4257 75.3189 19.8989 80.2554 20.401C83.8369 20.766 87.4146 21.1754 90.9961 21.5655C90.9961 22.981 90.9961 24.3985 90.9961 25.8141C90.3547 24.9663 89.7581 24.078 89.0484 23.29C88.7189 22.927 88.1886 22.6025 87.709 22.5369C85.847 22.282 83.9695 22.1371 82.0959 21.9537C77.0287 21.4554 71.9596 20.9514 66.8924 20.4628C65.6992 20.3469 64.5002 20.287 63.305 20.2001C63.2895 20.2793 63.2719 20.3585 63.2563 20.4377C72.5036 24.7403 81.7488 29.043 90.9961 33.3457C90.9961 33.7956 90.9961 34.2475 90.9961 34.6975C90.5418 34.5295 90.0739 34.3904 89.6352 34.1896C82.8563 31.0785 76.0812 27.9577 69.3022 24.8466C68.0583 24.2749 66.8008 23.7342 65.3171 23.0776C65.5004 23.458 65.5374 23.5797 65.6076 23.6801C67.6665 26.573 69.7078 29.4795 71.8017 32.3473C72.4626 33.253 73.1703 34.1722 74.0282 34.881C78.2414 38.3667 82.5092 41.7869 86.7614 45.2263C88.1652 46.3618 89.5845 47.48 90.998 48.6039C90.998 49.1833 90.998 49.7626 90.998 50.342C90.7524 50.1952 90.4814 50.0755 90.263 49.8959C87.0188 47.2193 83.7863 44.5291 80.542 41.8525C79.0564 40.6262 77.5512 39.4193 76.0558 38.2045C77.3504 40.2612 78.7464 42.1982 80.1404 44.1352C83.7609 49.1659 87.3795 54.1947 91 59.2254C91 65.5983 91 71.9712 91 78.3441C89.5806 80.1266 88.1613 81.9071 86.6191 83.8441C84.9931 80.3815 83.4451 77.0888 81.897 73.7943C81.819 73.8136 81.7411 73.8348 81.6631 73.8541C81.6631 74.1901 81.6455 74.5281 81.665 74.8641C81.8541 77.9443 81.9029 81.042 82.3006 84.0952C82.5424 85.9394 81.9594 87.102 80.4699 88C79.7544 88 79.0408 88 78.3252 88C78.8965 87.5249 79.4541 87.0325 80.0448 86.5806C80.5908 86.1635 80.698 85.7328 80.3958 85.0858C79.1168 82.3416 77.8846 79.5762 76.6291 76.8223C76.555 76.6601 76.4165 76.5249 76.2021 76.2295C73.8137 80.2231 71.4858 84.1125 69.1599 88C68.6393 88 68.1207 88 67.6002 88C67.7269 87.776 67.8478 87.5481 67.9803 87.328C70.2848 83.4868 72.5757 79.638 74.9055 75.8123C75.3812 75.0302 75.4885 74.3582 75.0557 73.4968C73.2425 69.9029 71.4956 66.2762 69.7175 62.6649C69.6415 62.5123 69.4952 62.3926 69.3412 62.211C69.195 62.4119 69.0858 62.5277 69.0137 62.6649C67.0562 66.3669 65.0987 70.069 63.1588 73.7788C63.0165 74.053 62.9522 74.391 62.9346 74.7019C62.8586 76.1464 62.8001 77.591 62.7592 79.0355C62.6753 82.023 62.6071 85.0105 62.531 87.9981C62.1411 87.9981 61.7512 87.9981 61.3612 87.9981C61.3612 84.3752 61.3612 80.7523 61.3612 77.1236C59.3453 80.7523 57.3313 84.3752 55.3173 87.9981C54.7967 87.9981 54.2781 87.9981 53.7576 87.9981C54.0266 87.5211 54.2489 87.0112 54.5725 86.5729C55.4479 85.3871 55.6117 84.0701 55.522 82.6487C55.4089 80.8546 55.3933 79.0548 55.3348 77.2569C55.1847 72.6993 55.0404 68.1397 54.8786 63.5822C54.8533 62.8618 54.746 62.1454 54.6583 61.2242C54.4088 61.5679 54.2664 61.7263 54.167 61.9098C51.7065 66.3998 49.2382 70.884 46.807 75.3894C46.5419 75.8799 46.3859 76.4747 46.3528 77.0328C46.1305 80.6866 45.957 84.3423 45.7659 87.9981C45.376 87.9981 44.986 87.9981 44.5961 87.9981C44.6897 85.0665 44.7813 82.1369 44.8807 78.9891C44.6507 79.3329 44.5201 79.497 44.4206 79.6766C43.516 81.3046 42.6601 82.9596 41.7028 84.5567C41.0536 85.6401 40.6091 86.7216 40.8918 87.9981C40.4375 87.9981 39.9813 87.9981 39.527 87.9981C39.527 87.1503 39.527 86.3044 39.527 85.165C38.4839 86.2484 37.6417 87.1232 36.7975 87.9981C36.1482 87.9981 35.497 87.9981 34.8478 87.9981C36.1892 86.6945 37.5656 85.4219 38.8544 84.0681C39.2111 83.6935 39.4997 83.0774 39.4977 82.5734C39.4841 79.4584 39.3866 76.3434 39.2872 73.2303C39.2774 72.9001 39.0825 72.5737 38.907 72.0407C38.5034 72.5023 38.2597 72.7495 38.0511 73.0218C36.8033 74.6633 35.5321 76.2893 34.3331 77.9675C33.8203 78.684 33.2198 79.0355 32.3405 79.1243C29.9853 79.358 27.6379 79.6535 25.2886 79.9393C24.2143 80.0706 23.144 80.2386 22.0405 80.3931C22.0892 80.677 22.0892 80.8064 22.1321 80.9203C23.144 83.6066 24.111 86.3237 26.9497 87.747C27.0609 87.803 27.1466 87.9131 27.2422 87.9981C26.4623 88 25.6824 88 24.9026 88ZM39.5816 70.6754C39.7414 70.4224 39.8175 70.349 39.8389 70.264C41.4026 64.0205 42.9779 57.7809 44.4889 51.5258C44.5903 51.1029 44.3504 50.4135 44.0229 50.1025C39.4997 45.8095 34.9394 41.5532 30.3597 37.3201C30.0438 37.0284 29.5057 36.8585 29.0612 36.8373C27.7978 36.7735 26.5286 36.8566 25.2633 36.8006C24.3645 36.7619 23.6411 37.0342 22.9276 37.5537C20.1824 39.5544 17.412 41.5242 14.6415 43.4902C11.7112 45.5681 8.76523 47.6248 5.83684 49.7028C4.66315 50.5351 4.6651 50.5564 5.26169 51.8927C5.58923 52.6285 5.99867 53.3295 6.29891 54.073C6.57187 54.7451 6.94035 54.8571 7.65393 54.6968C12.8147 53.5381 17.9891 52.4354 23.1557 51.3057C23.8771 51.1473 24.5048 51.1106 25.1599 51.6243C27.5795 53.5188 30.0224 55.3862 32.5043 57.1977C33.4362 57.8775 34.027 58.731 34.493 59.7468C36.1424 63.3446 37.8308 66.927 39.5816 70.6754ZM86.8823 81.2969C87.1982 80.9396 87.4126 80.7195 87.6037 80.4781C88.3875 79.4932 89.2219 78.5392 89.9179 77.4963C90.2689 76.971 90.5477 76.2797 90.5457 75.6636C90.5399 71.2567 90.4171 66.8517 90.4171 62.4466C90.4171 61.286 90.1012 60.3474 89.4364 59.4166C81.6104 48.4688 73.8079 37.5054 65.9956 26.5479C65.746 26.1984 65.4653 25.872 65.1085 25.4182C64.235 26.8086 63.502 28.0562 62.6831 29.2477C62.2795 29.8367 62.2932 30.3234 62.5934 30.9375C65.5374 36.9242 68.4834 42.9089 71.3845 48.9168C75.7985 58.0571 80.1774 67.2147 84.5661 76.3666C85.3265 77.954 86.0635 79.5511 86.8823 81.2969ZM56.8244 36.4278C56.7269 36.4008 56.6294 36.3738 56.53 36.3467C56.2843 36.6171 56.0075 36.8682 55.7969 37.1636C52.7905 41.4006 49.7764 45.6319 46.8109 49.8959C46.343 50.5679 45.9745 51.3617 45.7737 52.1534C44.2666 58.0455 42.8122 63.9491 41.348 69.8527C41.077 70.9438 40.6773 72.0349 40.6285 73.1396C40.5447 75.0939 40.6714 77.0599 40.7377 79.02C40.7806 80.3004 40.8742 81.5808 40.9444 82.8611C41.4669 82.2586 41.8217 81.6484 42.161 81.0304C46.2221 73.6262 50.2852 66.224 54.3327 58.8141C54.5277 58.4568 54.6603 58.0358 54.7051 57.6322C55.4226 51.1473 56.1264 44.6585 56.8185 38.1698C56.879 37.5962 56.8244 37.0091 56.8244 36.4278ZM56.7074 82.6622C56.9414 82.4421 57.0018 82.4073 57.0291 82.3552C60.7354 75.3817 64.4339 68.4043 68.1539 61.4386C68.5087 60.7742 68.5068 60.2258 68.1695 59.5479C65.0773 53.3469 62.0183 47.1304 58.9476 40.9178C58.7039 40.4254 58.4465 39.9387 58.0956 39.2551C57.9981 39.7881 57.9298 40.0681 57.8986 40.352C57.4424 44.506 56.9569 48.658 56.5495 52.8158C56.2921 55.4364 55.9451 58.0706 55.9958 60.6912C56.1283 67.5701 56.4578 74.4431 56.7055 81.32C56.7191 81.6986 56.7074 82.0771 56.7074 82.6622ZM45.3272 49.3648C45.5456 49.1736 45.6333 49.1215 45.6879 49.0462C48.9692 44.448 52.2583 39.8538 55.5064 35.2305C55.6819 34.9814 55.6663 34.4194 55.4986 34.1471C54.8747 33.1313 54.204 32.1348 53.4417 31.2195C53.1395 30.8564 52.5585 30.53 52.0984 30.5204C48.9477 30.4624 45.7951 30.4837 42.6425 30.5011C41.3012 30.5088 40.03 30.7173 38.8388 31.4531C36.5499 32.8629 34.1966 34.1703 31.8746 35.5298C31.6367 35.6689 31.4378 35.8697 31.0772 36.1536C35.8753 40.6031 40.5818 44.9656 45.3272 49.3648ZM61.332 31.2967C60.3279 32.915 59.4155 34.2804 58.6298 35.7152C58.4134 36.1111 58.39 36.8006 58.5888 37.2042C62.8469 45.852 67.1829 54.4612 71.4273 63.1148C74.1666 68.6998 76.7889 74.3427 79.4599 79.9605C79.8811 80.8469 80.2807 81.7449 80.7974 82.8747C80.7974 82.1833 80.8169 81.77 80.7935 81.3587C80.62 78.2437 80.4757 75.1268 80.2379 72.0176C80.1638 71.0442 79.9844 70.0207 79.5867 69.1382C77.9022 65.4091 76.1436 61.7109 74.3635 58.0242C70.9555 50.9696 67.5183 43.9305 64.0869 36.8875C63.2173 35.1011 62.3302 33.3225 61.332 31.2967ZM69.9534 2.31548C69.9046 2.24017 69.854 2.16485 69.8052 2.08954C64.4456 2.93346 59.1698 4.0941 54.2567 6.48683C53.4983 6.85569 52.7632 7.41959 52.2271 8.0646C49.094 11.8401 46.0213 15.6638 42.9369 19.4798C42.547 19.9626 42.2078 20.484 41.8295 21.0093C43.4517 21.0093 44.9431 21.0769 46.421 20.9765C47.0468 20.934 47.7604 20.6752 48.242 20.2832C54.0032 15.5808 59.7333 10.8397 65.4633 6.1006C66.9724 4.85305 68.458 3.57847 69.9534 2.31548ZM51.8625 29.2265C51.8099 28.9909 51.8138 28.8827 51.765 28.8132C50.3515 26.8511 48.9633 24.8697 47.4894 22.954C47.234 22.6238 46.6199 22.4055 46.1695 22.4036C42.7322 22.4017 39.293 22.4538 35.8558 22.5272C35.3255 22.5388 34.7152 22.6122 34.2824 22.8787C31.4203 24.6476 28.5913 26.4707 25.7624 28.2937C25.4407 28.5004 25.1872 28.8132 24.7388 29.2265C33.9334 29.2265 42.8473 29.2265 51.8625 29.2265ZM57.4678 34.4774C57.7193 34.2881 57.8187 34.2456 57.8655 34.1703C59.9302 30.9723 62.0007 27.7781 64.0245 24.555C64.1746 24.3155 64.0986 23.7902 63.927 23.5276C63.2524 22.506 62.5252 21.5153 61.7551 20.5613C61.5387 20.2928 61.1312 20.0785 60.7822 20.0263C57.9727 19.5995 55.1711 19.3311 52.4747 20.6134C51.9229 20.8761 51.3146 21.0267 50.7297 21.2237C50.0396 21.4554 49.3455 21.6833 48.5539 21.944C51.5739 26.1887 54.5004 30.306 57.4678 34.4774ZM29.8918 30.8583C29.8567 30.7386 29.8235 30.6189 29.7884 30.4991C28.2014 30.4991 26.6124 30.4779 25.0274 30.5184C24.7232 30.5262 24.3937 30.7405 24.1305 30.9336C23.6216 31.3064 23.2103 31.8509 22.6566 32.1155C19.2622 33.7338 15.8347 35.2865 12.4247 36.874C9.45541 38.2567 6.48998 39.6433 3.53429 41.053C2.85581 41.3775 2.12469 41.7096 1.98431 42.7312C2.42299 42.7563 2.79927 42.8065 3.1736 42.793C6.32035 42.6771 9.46906 42.5825 12.6119 42.3971C13.3157 42.3566 14.0995 42.1306 14.6747 41.7405C18.264 39.3014 21.8163 36.8102 25.3549 34.2978C26.899 33.197 28.3808 32.0074 29.8918 30.8583ZM80.8384 9.81618C80.31 9.70418 80.0429 9.62693 79.7719 9.59217C75.2292 9.03019 70.6884 8.4605 66.1418 7.93908C65.7499 7.89466 65.2333 8.07812 64.9174 8.33304C61.1897 11.338 57.4873 14.3776 53.781 17.4096C52.9543 18.0855 52.1374 18.7711 51.3146 19.4508C51.3419 19.4856 51.3673 19.5184 51.3946 19.5532C61.1195 16.3358 70.8425 13.1204 80.8384 9.81618ZM35.7739 21.1271C37.2069 21.1271 38.4293 21.1541 39.6479 21.1039C39.8818 21.0943 40.1489 20.8239 40.3225 20.6115C44.0307 16.0172 47.7663 11.4442 51.3965 6.79003C52.229 5.72209 52.693 4.37219 53.3267 3.15169C53.2273 3.09375 53.1298 3.03388 53.0303 2.97595C45.7581 7.4698 38.6945 12.1606 35.7739 21.1271ZM26.1309 78.3113C26.1543 78.3769 26.1796 78.4407 26.203 78.5063C28.063 78.2727 29.921 78.0119 31.7868 77.8169C32.5745 77.7339 33.0736 77.3534 33.5279 76.7489C34.9024 74.9182 36.3393 73.1318 37.7002 71.2914C37.8932 71.0307 37.9478 70.5016 37.821 70.2003C37.0568 68.3927 36.2223 66.6122 35.4015 64.8278C35.2085 64.4087 34.9745 64.007 34.686 63.4586C34.4852 63.8332 34.3701 64.0186 34.2843 64.2175C32.709 67.8868 31.1551 71.5637 29.5486 75.2175C29.301 75.7814 28.8857 76.3279 28.4159 76.7296C27.7159 77.3283 26.8971 77.7899 26.1309 78.3113ZM15.9166 63.2133C15.9985 63.1901 16.0804 63.167 16.1603 63.1438C16.1603 60.2354 16.1603 57.329 16.1603 54.2777C15.3122 54.4612 14.5674 54.662 13.809 54.776C12.9687 54.9015 12.8069 55.2993 13.1013 56.0409C14.0527 58.4278 14.9788 60.8225 15.9166 63.2133ZM3.96127 49.1891C4.04706 49.1775 4.13283 49.164 4.21862 49.1524C4.60855 47.5032 4.99849 45.8539 5.41961 44.0695C4.03535 44.1313 2.84411 44.1835 1.4657 44.2433C2.36644 46.0297 3.16386 47.6094 3.96127 49.1891ZM31.7361 34.0969C33.6819 32.9614 35.4931 31.9031 37.3044 30.8448C35.6121 30.642 33.9977 30.642 32.3815 30.6401C31.7849 30.6401 31.5782 31.0012 31.5938 31.513C31.6172 32.3125 31.6796 33.1081 31.7361 34.0969ZM5.88363 47.7368C5.95967 47.7851 6.0357 47.8353 6.11174 47.8836C7.93662 46.5878 9.76151 45.2939 11.5864 43.9981C11.5474 43.917 11.5065 43.8358 11.4675 43.7547C10.0871 43.8358 8.70284 43.8919 7.32638 44.0232C7.08852 44.0464 6.75318 44.3573 6.68104 44.5987C6.37299 45.6318 6.14294 46.6882 5.88363 47.7368ZM21.6466 74.0472C21.2294 75.8374 22.0697 77.3013 23.0251 78.8694C23.7835 78.3383 24.4775 77.8497 25.08 77.4268C23.8848 76.2488 22.7716 75.1538 21.6466 74.0472ZM30.1706 32.635C30.0828 32.5887 29.9931 32.5442 29.9054 32.4979C28.7493 33.3978 27.5931 34.2978 26.437 35.1958C26.4818 35.273 26.5286 35.3522 26.5734 35.4294C27.5424 35.4294 28.5133 35.4623 29.4804 35.4062C29.7202 35.3927 30.1179 35.0992 30.1394 34.9041C30.2174 34.1548 30.1706 33.392 30.1706 32.635ZM8.18814 56.0718C8.62291 56.852 9.04988 57.6206 9.47881 58.3892C9.71082 57.8369 9.75176 57.3657 9.7888 56.8926C9.88823 55.6585 9.56849 55.4616 8.18814 56.0718Z" fill="#10C9B7"/>
</svg>
