<svg width="83" height="24" viewBox="0 0 83 24" xmlns="http://www.w3.org/2000/svg">
<g clip-path="url(#clip0_654_171)">
<path d="M45.2537 16.8688H41.3037V15.598H42.1816V11.9469C42.1816 11.092 42.0198 10.4912 41.6964 10.1214C41.373 9.75171 40.9341 9.58987 40.3797 9.58987C39.6405 9.58987 39.0861 9.84414 38.7165 10.3755C38.3469 10.9071 38.1621 11.4385 38.1389 11.9701V15.5749H39.5249V16.8458H35.5748V15.5749H36.4526V11.9469C36.4526 11.0688 36.2908 10.468 35.9674 10.1214C35.644 9.7749 35.2052 9.58987 34.6738 9.58987C33.9346 9.58987 33.4033 9.84414 33.0106 10.3525C32.6409 10.8609 32.4561 11.3923 32.4331 11.9469V15.598H34.027V16.8688H29.3608V15.598H30.7469V9.75171H29.3376V8.45765H32.4331V9.93657C32.7103 9.45122 33.0569 9.05846 33.5188 8.73495C33.9808 8.43446 34.5352 8.27279 35.2052 8.27279C35.875 8.27279 36.4294 8.43446 36.9377 8.75798C37.4459 9.08149 37.7925 9.56684 37.9773 10.2369C38.2313 9.65927 38.6009 9.19711 39.1091 8.82738C39.6173 8.45765 40.2179 8.27279 40.9341 8.27279C41.7426 8.27279 42.4356 8.5269 42.99 9.03527C43.5444 9.54365 43.8448 10.3293 43.8448 11.3923V15.598H45.2539L45.2537 16.8688ZM55.0714 16.8688H52.0221V15.2051C51.7449 15.7136 51.3753 16.1526 50.8902 16.4991C50.4051 16.8688 49.7814 17.0537 48.973 17.0537C47.8642 17.0537 46.9631 16.684 46.2933 15.9215C45.6233 15.182 45.2999 14.1422 45.2999 12.8482C45.2999 11.6928 45.6003 10.6298 46.2239 9.6823C46.8245 8.73495 47.818 8.2496 49.1808 8.2496C50.5437 8.2496 51.4447 8.75798 52.0221 9.75171V5.19933H50.0354V3.90527H53.6853V15.598H55.0714V16.8688ZM51.9991 12.9867V11.9699C51.9759 11.2768 51.7219 10.6991 51.2599 10.2831C50.7978 9.86717 50.2434 9.63608 49.5966 9.63608C48.765 9.63608 48.1414 9.93657 47.7024 10.5374C47.2635 11.1382 47.0556 11.8777 47.0556 12.7558C47.0556 13.7031 47.2866 14.4426 47.7486 14.9509C48.2106 15.4593 48.7882 15.7136 49.458 15.7136C50.1972 15.7136 50.7978 15.4131 51.2599 14.8355C51.7449 14.2347 51.9759 13.6105 51.9991 12.9867ZM66.2059 16.869H61.7475V15.5981H63.1336V11.9469C63.1336 11.092 62.9718 10.4912 62.6253 10.1214C62.3019 9.75171 61.8399 9.58987 61.3085 9.58987C60.5925 9.58987 60.0149 9.82095 59.5991 10.2831C59.1833 10.7453 58.9523 11.2999 58.9293 11.9007V15.5749H60.3153V16.8458H55.8568V15.5749H57.2428V9.75171H55.8106V8.45765H58.9523V9.89035C59.5529 8.82738 60.5231 8.29581 61.8861 8.29581C62.7178 8.29581 63.4338 8.55008 64.0114 9.05846C64.589 9.56684 64.866 10.3525 64.866 11.4155V15.6212H66.2521V16.8688L66.2059 16.869Z"/>
<path d="M9.30945 0L2.70269 21.2825H0L6.58359 0H9.30945ZM11.7119 0V21.2825H9.30945V0H11.7119ZM21.0214 0L14.4378 21.2825H11.7351L18.3187 0H21.0214ZM23.4238 0V21.2825H21.0214V0H23.4238ZM67.5226 21.9063H83V23.9398H67.5226V21.9063Z"/>
</g>
<defs>
<clipPath id="clip0_654_171">
<rect width="83" height="24"/>
</clipPath>
</defs>
</svg>
