<svg viewBox="0 0 210 41" xmlns="http://www.w3.org/2000/svg">
<g clip-path="url(#clip0_314_101)">
<path d="M128.571 8.0077V34.064H135.924V8.0077H128.571ZM70.7112 7.96362V34.042H78.1315V13.793L83.9174 13.8151C85.8167 13.8151 87.1418 14.2787 88.0472 15.2506C89.2175 16.4873 89.6812 18.4963 89.6812 22.1399V34.042H96.8807V19.6444C96.8807 9.35464 90.3217 7.96362 83.9174 7.96362H70.7112ZM140.429 8.0077V34.064H152.355C158.714 34.064 160.791 33.004 163.021 30.6412C164.611 28.9853 165.627 25.3195 165.627 21.3228C165.627 17.6575 164.766 14.3893 163.242 12.3579C160.548 8.71424 156.617 8.0077 150.743 8.0077H140.429ZM147.717 13.6608H150.875C155.468 13.6608 158.428 15.7138 158.428 21.0579C158.428 26.402 155.468 28.4771 150.875 28.4771H147.717V13.6608ZM117.97 8.0077L111.831 28.6538L105.957 8.0077H98.0065L106.398 34.064H116.998L125.479 8.0077H117.97ZM169.072 34.064H176.426V8.0077H169.072V34.064ZM189.698 8.0077L179.429 34.042H186.673L188.307 29.4269H200.453L201.999 34.0195H209.883L199.525 8.0073L189.698 8.0077ZM194.468 12.7551L198.929 24.944H189.875L194.468 12.7551Z"/>
<path d="M23.2536 12.3355V8.75837C23.6071 8.73633 23.9602 8.71428 24.3137 8.71428C34.1187 8.40531 40.5451 17.1494 40.5451 17.1494C40.5451 17.1494 33.6109 26.7775 26.1685 26.7775C25.175 26.7775 24.203 26.6229 23.2756 26.3139V15.4494C27.0964 15.9131 27.8691 17.591 30.1436 21.411L35.2453 17.1273C35.2453 17.1273 31.5132 12.2473 25.2415 12.2473C24.579 12.2253 23.9161 12.2694 23.2536 12.3355ZM23.254 0.5V5.84367L24.3141 5.77755C37.9399 5.31388 46.8395 16.9506 46.8395 16.9506C46.8395 16.9506 36.6361 29.3604 26.0142 29.3604C25.0864 29.3604 24.1814 29.2722 23.2756 29.1175V32.4298C24.0267 32.5184 24.7994 32.5845 25.5501 32.5845C35.4437 32.5845 42.5987 27.5278 49.5333 21.5657C50.6816 22.4931 55.3853 24.7233 56.3572 25.6951C49.7762 31.2155 34.4281 35.6539 25.7269 35.6539C24.9154 35.6552 24.1045 35.6109 23.2981 35.5212V40.1804H60.8842V0.5L23.254 0.5ZM23.254 26.3135V29.1396C14.1115 27.5057 11.5716 17.9886 11.5716 17.9886C11.5716 17.9886 15.9659 13.1306 23.2536 12.3355L23.254 15.4269H23.2319C19.4112 14.9633 16.408 18.5404 16.408 18.5404C16.408 18.5404 18.1086 24.569 23.254 26.3135ZM7.02219 17.591C7.02219 17.591 12.4325 9.59755 23.2756 8.75837V5.84408C11.2622 6.8151 0.882812 16.9722 0.882812 16.9722C0.882812 16.9722 6.75686 33.9751 23.2536 35.5208V32.4294C11.1516 30.9286 7.02219 17.591 7.02219 17.591Z"/>
</g>
<defs>
<clipPath id="clip0_314_101">
<rect width="209" height="40" transform="translate(0.882812 0.5)"/>
</clipPath>
</defs>
</svg>
