<svg width="98" height="24" viewBox="0 0 98 24" xmlns="http://www.w3.org/2000/svg">
<path d="M69.8883 9.34734C68.4457 9.34734 67.4159 9.83781 66.9106 10.7664L66.6388 11.2692V9.58943H64.2914V19.8009H66.7608V13.7256C66.7608 12.2742 67.5536 11.4416 68.9344 11.4416C70.2512 11.4416 71.0063 12.2523 71.0063 13.6652V19.8007H73.4768V13.227C73.4768 10.7957 72.1354 9.34734 69.8883 9.34734ZM57.9132 9.34734C54.9992 9.34734 53.1947 11.1569 53.1947 14.0691V15.5028C53.1947 18.3033 55.0203 20.0428 57.9593 20.0428C59.9253 20.0428 61.3032 19.326 62.1703 17.8515L60.6394 16.975C59.9988 17.8254 58.9753 18.3523 57.9603 18.3523C56.4725 18.3523 55.5844 17.4384 55.5844 15.9066V15.5007H62.4765V13.8071C62.4765 11.0942 60.6865 9.34734 57.9153 9.34734H57.9132ZM60.2292 13.8498H55.5759V13.6047C55.5759 11.9237 56.4053 10.9961 57.9111 10.9961C59.3612 10.9961 60.2273 11.91 60.2273 13.4418L60.2292 13.8498ZM98 7.90848V5.95515H89.4585V7.90848H92.4532V17.8431H89.4585V19.7965H98V17.8431H95.0043V7.90848H98ZM33.2354 5.67343C29.4207 5.67343 27.0491 8.03896 27.0491 11.8487V13.9083C27.0491 17.7169 29.4197 20.0835 33.2354 20.0835C37.0511 20.0835 39.4218 17.7169 39.4218 13.9083V11.8485C39.4209 8.03477 37.0469 5.67343 33.2354 5.67343ZM36.8696 14.0491C36.8696 16.5784 35.5453 18.0287 33.2354 18.0287C30.9255 18.0287 29.6021 16.5784 29.6021 14.0491V11.7066C29.6021 9.17724 30.9276 7.72696 33.2365 7.72696C35.5455 7.72696 36.8706 9.17705 36.8706 11.7066L36.8696 14.0491ZM47.178 9.34715C45.882 9.34715 44.76 9.88143 44.1748 10.7757L43.9095 11.1826V9.58924H41.561V23.3142H44.0313V18.3428L44.2954 18.7331C44.8513 19.5532 45.9365 20.0426 47.199 20.0426C49.3284 20.0426 51.477 18.6578 51.477 15.563V13.8268C51.477 11.5969 50.1526 9.34715 47.178 9.34715ZM49.0067 15.443C49.0067 17.0887 48.042 18.1111 46.4901 18.1111C45.043 18.1111 44.0334 17.0302 44.0334 15.4837V13.9477C44.0334 12.3826 45.0515 11.2807 46.5111 11.2807C48.0514 11.2807 49.0086 12.3022 49.0086 13.9477L49.0067 15.443ZM80.3026 5.9561L75.3189 19.8007H77.8281L78.7822 16.8331H84.5114L84.521 16.8624L85.4646 19.8007H87.9728L82.9805 5.95496L80.3026 5.9561ZM79.3945 14.8809L81.6426 7.88124L83.8677 14.8809H79.3945ZM22.2194 9.82105C22.4898 9.0134 22.5837 8.15758 22.4947 7.3109C22.4057 6.46422 22.136 5.64623 21.7035 4.91172C21.0617 3.80148 20.0824 2.92254 18.9066 2.40144C17.7308 1.88034 16.4192 1.74395 15.1605 2.01191C14.5927 1.37499 13.8949 0.866036 13.1135 0.519092C12.3322 0.172148 11.4855 -0.00479393 10.6299 9.87661e-05C9.34258 -0.00283115 8.08759 0.401259 7.04597 1.15408C6.00436 1.9069 5.22997 2.96952 4.83452 4.18867C3.99649 4.35976 3.20481 4.70692 2.51243 5.20693C1.82004 5.70695 1.2429 6.3483 0.819586 7.0881C0.174204 8.19639 -0.101131 9.4799 0.0332212 10.7538C0.167573 12.0278 0.70468 13.2264 1.56722 14.1772C1.29792 14.9842 1.20464 15.8391 1.29359 16.6848C1.38254 17.5305 1.65168 18.3476 2.08306 19.0816C2.72431 20.1939 3.70405 21.0748 4.88094 21.597C6.05783 22.1193 7.37102 22.2561 8.63107 21.9875C9.19828 22.6238 9.89535 23.1324 10.6758 23.4793C11.4562 23.8262 12.302 24.0035 13.1567 23.9993C14.444 24.0023 15.699 23.5982 16.7406 22.8454C17.7822 22.0925 18.5566 21.0299 18.9521 19.8108C19.7899 19.6395 20.5814 19.2922 21.2736 18.7922C21.9657 18.2922 22.5427 17.6509 22.9659 16.9111C23.6128 15.8032 23.8892 14.5193 23.755 13.2448C23.6208 11.9704 23.0831 10.7715 22.2194 9.82105ZM13.1567 22.4342C12.0995 22.435 11.0758 22.0657 10.2649 21.3908C10.3005 21.371 10.3698 21.3365 10.4096 21.3104L15.212 18.5515C15.3325 18.4834 15.4326 18.3845 15.5019 18.2651C15.5712 18.1457 15.6072 18.01 15.6063 17.8721V11.1338L17.6352 12.2993C17.6461 12.3046 17.6555 12.3125 17.6625 12.3224C17.6695 12.3322 17.6738 12.3437 17.675 12.3557V17.9329C17.675 20.4169 15.653 22.4313 13.1567 22.4342ZM3.44817 18.3085C2.91891 17.398 2.72786 16.3314 2.9084 15.295C2.94381 15.3169 3.00679 15.3544 3.05081 15.3793L7.85434 18.1393C7.97396 18.209 8.11005 18.2457 8.24864 18.2457C8.38722 18.2457 8.52331 18.209 8.64293 18.1393L14.5028 14.7671V17.0982C14.5038 17.1101 14.5018 17.1222 14.4968 17.1331C14.4919 17.144 14.4842 17.1535 14.4745 17.1607L9.62006 19.9489C7.4587 21.1873 4.69786 20.4511 3.44817 18.3031V18.3085ZM2.19006 7.87381C2.71678 6.96185 3.54942 6.26361 4.54186 5.90162V11.5822C4.54111 11.7201 4.57724 11.8557 4.64653 11.9751C4.71582 12.0945 4.81578 12.1934 4.93616 12.2616L10.7976 15.6298L8.76122 16.7995C8.75132 16.8062 8.73988 16.8103 8.72797 16.8114C8.71605 16.8125 8.70405 16.8106 8.69308 16.8058L3.8394 14.0169C1.67996 12.7736 0.939981 10.0251 2.18565 7.874L2.19006 7.87381ZM18.8619 11.7348L13.0003 8.36638L15.0273 7.19972C15.0372 7.19322 15.0486 7.18925 15.0605 7.18815C15.0723 7.18706 15.0843 7.18887 15.0952 7.19343L19.9491 9.98258C20.6926 10.41 21.2983 11.0394 21.6954 11.797C22.0924 12.5546 22.2644 13.4091 22.1911 14.2604C22.1178 15.1117 21.8023 15.9247 21.2816 16.6041C20.7608 17.2834 20.0564 17.8011 19.2507 18.0965V12.4172C19.2522 12.2791 19.2166 12.143 19.1477 12.023C19.0788 11.903 18.9789 11.8035 18.8585 11.7348H18.8619ZM20.8824 8.70867C20.8353 8.6798 20.7877 8.6516 20.7398 8.6241L15.9365 5.86429C15.8168 5.79466 15.6808 5.75796 15.5422 5.75796C15.4036 5.75796 15.2675 5.79466 15.1479 5.86429L9.28644 9.23153V6.90143C9.28607 6.88945 9.28854 6.87754 9.29366 6.86668C9.29879 6.85583 9.30641 6.84633 9.31592 6.83896L14.1696 4.05077C14.9133 3.62409 15.7637 3.41703 16.6214 3.45383C17.479 3.49063 18.3084 3.76976 19.0124 4.25855C19.7165 4.74734 20.266 5.42557 20.5968 6.21387C20.9276 7.00217 21.0259 7.86793 20.8803 8.70981L20.8824 8.70867ZM8.1803 12.8658L6.15044 11.7003C6.14002 11.6946 6.13109 11.6865 6.12434 11.6768C6.1176 11.667 6.11323 11.6558 6.11159 11.6441V6.06658C6.11089 5.21175 6.35509 4.37443 6.81556 3.6528C7.27602 2.93116 7.93367 2.3551 8.7114 1.99215C9.48913 1.62921 10.3547 1.49441 11.2067 1.60357C12.0587 1.71273 12.8617 2.06132 13.5217 2.60848C13.4861 2.62848 13.4222 2.66277 13.377 2.68886L8.5746 5.44772C8.45422 5.51598 8.35426 5.61488 8.28497 5.73428C8.21568 5.85368 8.17955 5.98927 8.1803 6.12715V12.8658ZM9.28242 10.5005L11.8932 8.99991L14.503 10.5005V13.4993L11.8922 14.9997L9.28147 13.4993L9.28242 10.5005Z"/>
</svg>
