<svg width="184" height="24" viewBox="0 0 184 24" xmlns="http://www.w3.org/2000/svg">
<path d="M79.4432 15.6176H91.6511L85.2711 5.26195L73.4237 23.9771H67.9562L82.3572 1.44551C82.7355 1.0784 83.1496 0.752071 83.5994 0.466538L83.6301 0.451243C84.1102 0.157653 84.662 0.00153515 85.2251 0H85.2711C85.7963 0.0059765 86.3082 0.165534 86.7434 0.458894L86.7358 0.451243C87.194 0.736999 87.6207 1.07027 88.0087 1.44551L102.41 23.9771H96.9422L94.3887 19.8011H82.1808L79.4432 15.6176ZM135.199 19.8011V0.359464H130.644V21.6903C130.644 21.9962 130.708 22.2817 130.836 22.5468L130.828 22.5316C130.973 22.7994 131.156 23.0443 131.373 23.2581C131.501 23.5068 131.717 23.6999 131.979 23.8011C132.291 23.9146 132.628 23.9766 132.96 23.9847H153.756L156.31 19.8088L135.199 19.8011ZM59.9429 16.1606H60.0579C62.2127 16.1606 64.1681 15.2964 65.5944 13.8891C66.3411 13.1957 66.9368 12.3564 67.3444 11.4235C67.752 10.4907 67.9629 9.48415 67.9639 8.46654V8.13002C67.9609 7.10032 67.7495 6.08182 67.3424 5.13558C66.9352 4.18934 66.3406 3.33485 65.5944 2.62333C64.8663 1.90066 64.0026 1.3281 63.0526 0.938357C62.1027 0.54861 61.0851 0.349298 60.0579 0.351813H39.8904V23.9771H44.4683V4.53538H59.7051C60.7327 4.53538 61.6529 4.95602 62.32 5.62906C62.6666 5.96988 62.942 6.37587 63.1302 6.82354C63.3184 7.27121 63.4158 7.75166 63.4166 8.23709V8.35947V8.35182C63.4085 9.33854 63.0184 10.284 62.3277 10.9904C61.9953 11.3647 61.5867 11.6641 61.1292 11.8685C60.6717 12.0729 60.1758 12.1777 59.6745 12.1759H46.6384L60.3033 23.9924H66.8596L57.7421 16.1759L59.9429 16.1606ZM11.8322 23.9771H11.7708C8.55016 23.9771 5.63622 22.6539 3.55046 20.5277C2.42581 19.4792 1.53006 18.2106 0.919173 16.8012C0.308287 15.3919 -0.00460378 13.872 5.11863e-05 12.3365V11.9924C5.11863e-05 8.76482 1.365 5.85851 3.55046 3.8088L3.55812 3.80115C4.63001 2.70843 5.91005 1.8404 7.32303 1.24806C8.73602 0.655709 10.2534 0.350991 11.7862 0.351813H25.8881C29.1011 0.351813 31.9997 1.67495 34.0778 3.80115C36.2173 5.8738 37.5362 8.76482 37.5362 11.9694V12.1683V12.3365C37.5362 15.5488 36.2019 18.4474 34.0625 20.5201C33.0004 21.6152 31.7276 22.4851 30.3203 23.0778C28.9131 23.6705 27.4003 23.9738 25.8728 23.9694H25.6734L11.8322 23.9771ZM25.3283 19.8011H25.5124C26.5009 19.8036 27.4794 19.6032 28.387 19.2124C29.2946 18.8216 30.1119 18.2488 30.7881 17.5296C32.1862 16.127 32.9717 14.2302 32.9736 12.2524V11.9694C32.9728 10.9945 32.7794 10.0294 32.4044 9.12916C32.0294 8.2289 31.4802 7.41118 30.7881 6.72275C30.0979 6.03253 29.278 5.48475 28.3754 5.11074C27.4728 4.73673 26.5051 4.54381 25.5277 4.54302H25.313H12.1082C10.1253 4.54488 8.22342 5.32838 6.81714 6.72275C6.09871 7.40088 5.52627 8.21784 5.13472 9.12381C4.74316 10.0298 4.5407 11.0058 4.53966 11.9924V12.1836V12.1759V12.2294C4.53897 13.2212 4.73973 14.2028 5.12984 15.1151C5.51995 16.0273 6.09132 16.8513 6.80947 17.5373C7.49658 18.2549 8.32243 18.8262 9.23711 19.2166C10.1518 19.6071 11.1363 19.8085 12.1312 19.8088H12.1849L25.3283 19.8011ZM111.88 23.9771H111.688C108.475 23.9771 105.577 22.6539 103.499 20.5277C102.401 19.4684 101.528 18.199 100.934 16.7954C100.34 15.3918 100.036 13.883 100.04 12.3595V11.9771C100.04 8.77247 101.367 5.88146 103.499 3.8088C104.561 2.71372 105.833 1.84376 107.241 1.25105C108.648 0.658347 110.161 0.355093 111.688 0.359464H111.888H111.88H128.275L125.537 4.53538H111.957C109.974 4.53724 108.072 5.32073 106.666 6.71511C105.947 7.39324 105.375 8.21018 104.983 9.11616C104.592 10.0221 104.389 10.9982 104.388 11.9847V12.1759V12.1683V12.2218C104.387 13.2136 104.588 14.1952 104.978 15.1074C105.368 16.0197 105.94 16.8437 106.658 17.5296C107.345 18.2473 108.171 18.8186 109.086 19.209C110 19.5994 110.985 19.8009 111.98 19.8011H128.597L125.859 23.9771H111.88ZM167.452 19.8011H167.391C165.739 19.8089 164.139 19.2254 162.882 18.1568L162.889 18.1644C161.619 17.1419 160.673 15.7736 160.167 14.2256L160.152 14.1644H179.644L182.198 9.98853H160.152C160.65 8.3977 161.593 7.07457 162.843 6.11855L162.859 6.10325C164.134 5.09963 165.712 4.55522 167.337 4.55832H180.91L183.647 0.382411H167.061C163.848 0.382411 160.949 1.70555 158.871 3.83174C157.773 4.89104 156.901 6.1605 156.307 7.56407C155.712 8.96764 155.408 10.4764 155.413 12V12.1989V12.1912V12.3824C155.413 15.587 156.739 18.478 158.871 20.5507C160.949 22.6845 163.848 24 167.061 24H167.26H181.262L184 19.8241L167.452 19.8011Z"/>
</svg>
