<svg width="200" viewBox="0 0 450 41" xmlns="http://www.w3.org/2000/svg">
<path d="M413.886 18.0684V23.5136H420.26V28.9169C420.277 29.3301 420.247 29.7724 420.151 30.1524L420.098 30.3365C420.088 30.378 420.075 30.4203 420.06 30.4635L420.009 30.5961L419.976 30.6645L419.902 30.8048C419.329 31.7994 417.603 33.0604 413.726 33.0604C409.596 33.0604 407.937 31.6133 407.485 30.5967L407.431 30.4635L407.391 30.3365C407.276 29.9203 407.228 29.3995 407.228 28.9169V11.8525C407.228 11.3159 407.282 10.7344 407.443 10.261L407.553 9.97282L407.578 9.91161L407.637 9.78511L407.673 9.71931L407.752 9.58363C408.342 8.64099 409.9 7.38515 413.692 7.38515C416.62 7.38515 418.195 8.10132 419.038 8.84145L419.187 8.9802C419.234 9.0261 419.278 9.07235 419.32 9.11894L419.438 9.25564L419.541 9.39031L419.631 9.5214L419.708 9.64739L419.773 9.76879L419.829 9.88305L419.873 9.99017L419.908 10.0881C419.925 10.1374 419.94 10.1891 419.953 10.2432L419.99 10.41L420.007 10.4967L420.044 10.7589L420.07 11.0098L420.092 11.3526L420.098 11.5286V13.6006H435.759L435.762 12.3106L435.772 11.8494L435.769 11.4919L435.755 11.0751L435.743 10.8512L435.715 10.5018L435.675 10.1437L435.641 9.90447C434.58 3.60133 426.688 1.17587 417.086 0.754023L416.444 0.728519L415.796 0.709646C415.47 0.701395 415.144 0.695274 414.818 0.691283L414.16 0.686182L413.829 0.685162L413.168 0.687712L412.841 0.691283L412.186 0.701994L411.536 0.718827L410.892 0.741271L410.253 0.769326C410.041 0.779868 409.83 0.79143 409.62 0.804012L408.992 0.844819C408.888 0.85162 408.784 0.859101 408.681 0.867263L408.062 0.917251C406.627 1.0412 405.248 1.2182 403.939 1.45437L403.383 1.55945C397.315 2.75458 392.905 5.29584 392 9.90447L391.906 10.4161L391.842 10.8124L391.783 11.2276L391.733 11.6408C391.705 11.9112 391.686 12.1652 391.686 12.3753L391.688 28.2737L391.692 28.4711L391.706 28.7711L391.721 28.9812L391.743 29.2057L391.771 29.45L391.807 29.7188L391.876 30.1804L391.934 30.5344C392.813 36.3923 400.208 38.9978 409.256 39.6124L409.89 39.6522C410.951 39.7134 412.033 39.7471 413.127 39.7573L413.785 39.7599L414.448 39.7573C415.534 39.7483 416.618 39.7132 417.699 39.6522L418.337 39.6124C427.414 38.9978 434.76 36.3923 435.654 30.5344L435.726 30.0182L435.78 29.5811L435.828 29.0914L435.857 28.6696L435.883 28.0728V18.0679L413.886 18.0684ZM305.898 1.68952H290.171V29.3097C290.196 29.7912 290.171 30.3319 290.033 30.7283L289.987 30.8486L289.929 30.9762C289.907 31.0213 289.884 31.0662 289.859 31.1108L289.778 31.2511C289.184 32.2009 287.672 33.4399 284.056 33.4399C280.666 33.4399 279.118 32.3218 278.469 31.3955L278.374 31.2511L278.332 31.1807L278.258 31.043L278.197 30.9114L278.17 30.8486L278.127 30.7283C277.97 30.3319 277.949 29.7912 277.97 29.3102V1.6885H262.247V28.4528L262.244 28.6675L262.25 29.044L262.272 29.5974L262.314 30.2707L262.345 30.6089L262.365 30.789L262.385 30.9211C263.155 35.8725 267.994 38.45 274.827 39.5283L275.409 39.616C276.725 39.802 278.06 39.9367 279.405 40.0195L280.05 40.0572L280.701 40.0889L281.36 40.1144C281.691 40.1259 282.024 40.1351 282.36 40.1419L283.034 40.1531L283.714 40.1582L284.056 40.1593L284.741 40.1567L285.081 40.1531L285.757 40.1419C286.093 40.1351 286.427 40.1261 286.759 40.1149L287.418 40.0894L288.071 40.0572L288.717 40.0195C297.914 39.4329 304.815 36.9187 305.765 30.9211L305.778 30.8614L305.803 30.7043L305.841 30.3911L305.875 30.0116L305.894 29.7377L305.914 29.3174L305.919 29.044L305.917 28.7874L305.907 28.5558L305.898 28.4528V1.68952ZM161.39 1.68952L153.545 30.8741L145.704 1.68952H120.335L118.989 39.0248H134.532L134.952 4.46236L145.646 39.0248H161.415L172.119 4.46236L172.541 39.0248H188.123L186.732 1.68952H161.39ZM67.46 1.68952L55.941 39.0248H72.7387L81.42 4.46236L89.8923 39.0248H106.574L95.1021 1.68952H67.46ZM360.864 31.7489L346.219 1.68952H323.142V38.6356H338.408L337.522 7.61469L353.249 38.6356H375.381V1.68952H360.016L360.864 31.7489ZM219.655 11.4062C219.379 10.6686 219.459 9.8856 219.602 9.476C219.642 9.36718 219.69 9.25802 219.746 9.14852L219.838 8.98479C220.458 7.94931 221.91 6.97708 225.238 6.97708C228.829 6.97708 230.935 8.32167 230.935 10.3386V12.6217H246.267V10.0198C246.267 4.14712 239.865 1.88795 233.025 1.09629L232.461 1.03457L231.897 0.978972L231.332 0.929493L230.768 0.886136L230.204 0.847879L229.642 0.815234C229.455 0.805032 229.269 0.79585 229.082 0.787689L228.527 0.764735L227.975 0.746372L227.427 0.73209L226.884 0.721888L226.348 0.714747L225.556 0.711176L225.208 0.712196L224.514 0.718317L224.169 0.723418L223.484 0.738721C223.258 0.744502 223.032 0.751303 222.806 0.759124L222.135 0.787179C212.781 1.21667 205.483 3.52329 204.022 8.93225C203.591 10.5798 203.484 12.0417 204.171 13.9076C205.253 16.9738 209.508 19.1559 214.392 20.9856L215.148 21.2646L215.529 21.4023L216.296 21.6732L217.067 21.9405L217.842 22.2032L219.004 22.5908L222.058 23.5957L222.8 23.8426L223.529 24.0885L224.244 24.3343L224.941 24.5802C228.27 25.7697 230.937 26.9756 231.896 28.4176C232.427 29.2745 232.312 30.3539 232.055 31.043L232.011 31.1542C231.947 31.3219 231.866 31.487 231.767 31.6485L231.66 31.8102C230.953 32.8007 229.409 33.6455 226.017 33.6455C222.148 33.6455 219.818 32.31 219.818 30.2967L219.813 26.7139H203.311V29.5622C203.311 36.2469 210.376 39.1508 219.224 40.0129L219.882 40.0731C220.323 40.1105 220.768 40.1433 221.216 40.1715L221.891 40.2103C222.683 40.2511 223.482 40.2786 224.288 40.2929L224.98 40.3021L225.328 40.3041L225.675 40.3051C225.907 40.3051 226.137 40.3041 226.367 40.3021L227.054 40.2929L227.393 40.2863L228.072 40.2679C228.297 40.2611 228.521 40.2531 228.743 40.2439L229.409 40.2133C229.85 40.1905 230.286 40.1633 230.718 40.1317L231.362 40.0817L231.998 40.0246C232.209 40.0045 232.418 39.9833 232.626 39.9608L233.246 39.8904C240.736 38.9896 246.308 36.5468 247.426 31.8499C247.581 31.1491 247.676 30.5023 247.727 29.9106L247.754 29.525C247.758 29.4617 247.761 29.3993 247.764 29.3378L247.774 28.9771V28.6328L247.765 28.3054L247.747 27.9947L247.721 27.7019L247.707 27.5616L247.673 27.2944L247.634 27.0444L247.591 26.8123L247.523 26.4976L247.453 26.2232L247.36 25.9207L247.318 25.7967C246.238 22.5454 241.497 20.249 236.23 18.3587L235.474 18.0914L234.713 17.8292L233.949 17.5716L232.802 17.1941L231.281 16.7039L228.686 15.875L227.619 15.5282L227.27 15.4134L226.587 15.1849L225.923 14.9569C222.655 13.8194 220.185 12.7023 219.655 11.4062ZM17.412 11.3138C17.1299 10.6084 17.1741 9.86622 17.3185 9.43468L17.378 9.2735L17.446 9.11333C17.9642 7.99216 19.3805 6.83681 23.0407 6.83681C26.6779 6.83681 28.8197 8.19364 28.8197 10.2279V12.5386H44.3319V9.9162C44.3319 4.31239 38.5248 1.95885 32.0363 1.03814L31.4705 0.961629C30.9978 0.900977 30.5227 0.847063 30.0457 0.799931L29.4739 0.746882L28.9021 0.699444L28.3303 0.658127L27.7611 0.622421C27.5718 0.611236 27.3823 0.600864 27.1927 0.591306L26.6286 0.565801L26.0678 0.544378L25.5105 0.527545L24.9582 0.515303L24.4136 0.506631L23.6065 0.5H23.3423C23.1095 0.5 22.8778 0.50102 22.6473 0.503061L21.9574 0.511732C21.4998 0.519893 21.0466 0.531795 20.598 0.547438L19.9268 0.574983L19.5946 0.591306L18.9345 0.628032C18.7153 0.641294 18.4978 0.655747 18.282 0.671389L17.6363 0.721378C17.1027 0.765585 16.5771 0.816934 16.0594 0.875424L15.4434 0.948877L14.836 1.02947L14.2387 1.11721C14.0405 1.14781 13.8445 1.17944 13.6508 1.21208L13.0722 1.3141C7.05269 2.42507 2.71372 4.75515 1.61943 8.79809C1.16743 10.4717 1.08927 11.9438 1.74262 13.8306C2.89299 17.0901 7.58285 19.361 12.83 21.2687L13.6015 21.5452L13.9898 21.6819L14.7689 21.9512L15.943 22.3486L17.5063 22.8658L19.8104 23.6243L20.9302 23.9987L22.0186 24.371L22.7238 24.62C22.8393 24.6611 22.9543 24.7026 23.0687 24.7444L23.745 24.9939C26.6252 26.0773 28.8817 27.1929 29.7517 28.5012C30.3227 29.3515 30.1893 30.4314 29.92 31.1425L29.8741 31.2577C29.806 31.4233 29.7226 31.5864 29.6243 31.7464L29.5164 31.9071C28.7925 32.915 27.2369 33.7796 23.8002 33.7796C19.9158 33.7796 17.5921 32.4212 17.5921 30.3804L17.57 26.7878H0.882812V29.6423C0.882812 37.6558 10.9465 40.2898 22.0917 40.4878L22.7892 40.4969L23.4893 40.5L24.1817 40.4974C24.5272 40.4944 24.8699 40.4893 25.2097 40.4821L25.8894 40.4638C26.2264 40.4536 26.5615 40.4407 26.8945 40.425L27.5572 40.3914L28.2114 40.3516C28.4289 40.3373 28.6453 40.322 28.8605 40.3057L29.5003 40.2521C29.7132 40.2334 29.9242 40.2135 30.1332 40.1924L30.7577 40.1261C38.5138 39.2539 44.2937 36.7845 45.4577 31.9535C45.6059 31.3183 45.7116 30.6799 45.7746 30.0396L45.8051 29.6571L45.8238 29.2913C45.8283 29.1746 45.8312 29.0577 45.8323 28.9409L45.8298 28.6068L45.8187 28.289L45.8 27.9881L45.7746 27.7029L45.7431 27.4346L45.7074 27.1832L45.6463 26.8373L45.5809 26.5302L45.4925 26.1808L45.3922 25.8416C44.3158 22.6291 39.7168 20.3429 34.5419 18.4632L33.7806 18.1913L33.3983 18.0572L32.6277 17.793L31.8554 17.5333L31.0822 17.2783L30.3091 17.0278L26.9005 15.9414L25.8096 15.5904L25.1018 15.3588L24.4111 15.1283L23.7399 14.8987L23.4128 14.784L22.7756 14.5554C19.9583 13.5251 17.8903 12.4942 17.412 11.3138Z"/>
</svg>
