<svg width="92" height="24" viewBox="0 0 92 24" xmlns="http://www.w3.org/2000/svg">
<path d="M39.7145 16.0031L38.7219 19.0687C38.6946 19.1708 38.5997 19.2402 38.4944 19.2346H36.0997C35.9551 19.2346 35.9141 19.1517 35.9341 19.0277L40.0678 7.07621C40.2085 6.66983 40.2787 6.24229 40.2753 5.81215C40.2734 5.77668 40.2852 5.74184 40.3082 5.71487C40.3313 5.68791 40.3638 5.67089 40.3991 5.66737H43.7068C43.8065 5.66737 43.8514 5.68826 43.8725 5.79126L48.5619 19.0487C48.6029 19.1487 48.583 19.2346 48.4622 19.2346H45.7752C45.7263 19.2413 45.6766 19.2305 45.6349 19.2039C45.5932 19.1774 45.5623 19.1369 45.5477 19.0896L44.494 16.0031H39.7145ZM40.458 13.4143H43.7248L43.4103 12.4C42.9771 11.0207 42.4003 9.22564 42.0914 8.06999H42.0704C41.7401 9.45793 40.9958 11.7367 40.458 13.4143ZM48.8911 14.1764C48.8902 11.2146 51.1013 8.72902 54.8848 8.72902C55.0496 8.72902 55.2571 8.74991 55.5674 8.7699V4.68944C55.5637 4.65659 55.5724 4.62354 55.592 4.59692C55.6116 4.5703 55.6405 4.55208 55.6729 4.54593L58.3161 4.54449C58.416 4.54449 58.441 4.58536 58.441 4.66837V16.9099C58.4359 17.4155 58.4635 17.9209 58.5236 18.4228C58.5236 18.5028 58.5103 18.5476 58.4417 18.5831L58.3792 18.6087C57.0914 19.1571 55.7063 19.439 54.3071 19.4377C51.2479 19.4377 48.8913 17.6979 48.8913 14.1762M55.5676 11.2345C55.3206 11.1549 55.0612 11.121 54.8021 11.1345C54.4286 11.1072 54.0533 11.1564 53.6994 11.2791C53.3454 11.4018 53.0201 11.5955 52.7432 11.8484C52.4664 12.1012 52.2439 12.4079 52.0892 12.7498C51.9345 13.0916 51.8509 13.4615 51.8436 13.8368L51.8468 14.0341C51.8468 16.0849 53.0252 16.9758 54.5957 16.9758C54.9243 16.9898 55.2529 16.9479 55.5676 16.8518V11.2345ZM70.2714 13.813L70.2788 14.0301C70.2788 17.2827 68.1705 19.4364 65.19 19.4364C61.655 19.4364 60.0844 16.7648 60.0844 14.0921C60.0435 13.3945 60.1471 12.6959 60.3885 12.0403C60.63 11.3847 61.0041 10.7862 61.4874 10.2824C61.9708 9.77867 62.5528 9.38051 63.197 9.11297C63.8413 8.84542 64.5338 8.71427 65.231 8.72776C68.4733 8.72776 70.1857 11.1068 70.2714 13.813ZM62.9989 14.048C62.9989 15.8708 63.8461 17.0306 65.231 17.0306C66.4284 17.0306 67.3393 15.9947 67.3393 14.0888C67.3393 12.4731 66.6778 11.1273 65.1074 11.1273C63.9099 11.1273 62.9989 12.2041 62.9989 14.048ZM72.1008 4.54413L74.6222 4.54305C74.7877 4.54305 74.8288 4.56411 74.8288 4.70907V8.95555C75.2814 8.83381 75.7455 8.76035 76.2135 8.73641L76.5648 8.72758C77.2005 8.69595 77.836 8.7932 78.4333 9.01352C79.0307 9.23384 79.5775 9.57268 80.041 10.0098C80.5046 10.4469 80.8753 10.9732 81.1311 11.5573C81.3869 12.1413 81.5224 12.7711 81.5295 13.4089L81.5258 13.658C81.5258 17.5315 78.4666 19.4373 75.3255 19.4373C74.2257 19.445 73.1312 19.2845 72.0798 18.9614C72.0431 18.9406 72.0123 18.9105 71.9906 18.8742C71.9689 18.8379 71.957 18.7966 71.956 18.7543V4.68944C71.956 4.5895 71.9969 4.54449 72.1008 4.54449M76.2262 11.1691L76.0489 11.1716C75.6366 11.1667 75.2258 11.2227 74.8297 11.3376V16.951C74.9968 16.9897 75.1668 17.0151 75.3379 17.0266L75.5948 17.0338C76.0032 17.057 76.4118 16.9917 76.7927 16.8423C77.1736 16.6929 77.5179 16.4629 77.802 16.168C78.0862 15.8732 78.3035 15.5204 78.4392 15.1337C78.5749 14.747 78.6258 14.3355 78.5884 13.9273C78.6341 13.5871 78.6075 13.2411 78.5103 12.912C78.4131 12.5828 78.2475 12.278 78.0244 12.0176C77.8013 11.7571 77.5258 11.5468 77.2159 11.4006C76.906 11.2544 76.5687 11.1754 76.2262 11.1691ZM85.5646 14.8374C85.6643 16.0182 86.4945 16.992 88.5201 16.992C89.391 17.0082 90.2562 16.846 91.0623 16.5152C91.1252 16.4742 91.187 16.4942 91.187 16.6152V18.5827C91.187 18.7277 91.1462 18.7898 91.0424 18.8318C90.1498 19.2322 89.183 19.4392 88.2051 19.4393L87.8795 19.4316C83.9941 19.4316 82.629 16.7599 82.629 14.1913C82.629 11.4041 84.2994 8.85363 87.3904 8.72776L87.631 8.7229C88.2184 8.70132 88.8039 8.80311 89.3497 9.02175C89.8955 9.24038 90.3897 9.57102 90.8004 9.99242C91.2112 10.4138 91.5294 10.9167 91.7347 11.4686C91.9399 12.0206 92.0277 12.6095 91.9924 13.1975C92.0075 13.6623 91.974 14.1275 91.8925 14.5853C91.8894 14.6283 91.871 14.6687 91.8406 14.6992C91.8102 14.7296 91.7699 14.7481 91.727 14.7511C91.1959 14.8015 90.6638 14.8298 90.1306 14.8358L85.5646 14.8374ZM88.2516 12.8286C88.5968 12.8415 88.9424 12.8278 89.2854 12.7877V12.6426C89.2792 12.4188 89.2287 12.1986 89.1366 11.9946C89.0446 11.7907 88.913 11.6072 88.7494 11.4548C88.5858 11.3025 88.3936 11.1843 88.1839 11.1072C87.9742 11.0301 87.7513 10.9956 87.5282 11.0058C87.0276 10.9978 86.5429 11.1823 86.1738 11.5213C85.8047 11.8603 85.5792 12.3281 85.5436 12.8286H88.2516ZM13.533 8.84787L19.9058 24H15.7289L13.8223 19.1746H9.15866L13.533 8.84787ZM27.0607 0V23.9971L17.0561 0H27.0607ZM10.0088 0L0 23.9971V0H10.0088Z"/>
</svg>
