<svg width="101" height="24" viewBox="0 0 101 24" xmlns="http://www.w3.org/2000/svg">
<path d="M77.1135 0L83.6743 6.53859H94.4308V17.256L101 23.7946V0H77.1135ZM8.41667 1.60531L0 22.3947H5.50871L7.06579 18.2787H16.4125L18.1295 22.3947H23.7603L14.443 1.60531H8.41667ZM26.1295 1.60531V22.3737H31.3395V9.4139L36.9702 15.9609H37.7614L43.3921 9.43905V22.3947H48.602V1.60531H44.0613L37.3616 9.33846L30.6661 1.60531H26.1295ZM52.5705 1.60531V22.3947H61.227C69.5553 22.3947 73.347 18.0105 73.347 12.0335C73.347 6.33322 69.4038 1.60531 61.7868 1.60531H52.5705ZM57.7762 5.41949H61.1092C66.033 5.41949 67.9688 8.39958 67.9688 12C67.9688 15.0513 66.4033 18.5889 61.1681 18.5889H57.7762V5.41949ZM11.5477 6.56374L14.8765 14.6615H8.45033L11.5477 6.56374ZM83.6659 7.85051L76.9157 14.5693V24H86.3676L93.1178 17.2644H83.6659V7.85051Z"/>
</svg>
