<svg width="116" height="24" viewBox="0 0 116 24" xmlns="http://www.w3.org/2000/svg">
<path d="M115.536 6.13075V0H93.032C88.334 0 86.217 2.90557 85.869 5.72397V5.81114V0H79.257V6.13075H85.84H115.536ZM85.84 8.33898L79.228 7.96126V15.0218C79.228 17.23 78.126 17.8983 74.298 17.8983H69.02C65.859 17.8983 64.525 16.9976 64.525 15.0218V7.29298L57.826 6.79903V15.5738H57.681C57.304 13.0169 56.347 10.0533 49.967 9.61743L29 8.22276C29 11.4479 31.291 13.3656 34.887 13.7433L49.503 15.2252C50.663 15.3124 51.504 15.661 51.504 16.6199C51.504 17.6659 50.634 17.7821 49.3 17.7821H28.739V8.22276L22.04 7.78692V24H49.329C55.419 24 57.362 20.8329 57.652 18.1889H57.797C58.551 22.3729 62.205 24 68.382 24H75.197C82.418 24 85.84 21.7918 85.84 16.6199V8.33898ZM107.097 9.58838L86.13 8.33898C86.13 11.5642 88.247 13.7143 91.843 14.0048L106.778 15.1671C107.938 15.2542 108.634 15.5448 108.634 16.5036C108.634 17.4044 107.822 17.753 106.14 17.753H85.782V24H106.575C113.129 24 116 21.7046 116 16.4746C116 11.7676 113.419 9.99516 107.097 9.58838ZM57.826 0H64.525V6.13075H57.826V0ZM18.357 7.49637L11.078 6.76998L0 24H8.149L18.357 7.49637ZM56.608 0H36.163C31.407 0 29.319 2.96368 28.826 5.81114V0H17.487C15.892 0 15.138 0.493946 14.384 1.59806L11.252 6.13075H56.608V0Z"/>
</svg>
