<svg width="39" height="24" viewBox="0 0 39 24" xmlns="http://www.w3.org/2000/svg">
<path fill-rule="evenodd" clip-rule="evenodd" d="M32.8642 23.8293V18.679H30.7267V23.8293H32.8642ZM21.5509 21.6916V18.7565H19.4798V20.999C19.4798 21.6508 19.4525 21.8332 19.4135 22.0039C19.2692 22.4733 18.7699 22.6828 18.2609 22.6828C17.553 22.6828 17.2253 22.4074 17.0927 21.9767C17.0573 21.827 17.0358 21.6744 17.0283 21.5209C17.0147 21.3521 17.0283 21.1697 17.0283 20.9738V18.7565H14.9299V21.7051C14.9299 22.3705 15.1542 22.8652 15.5208 23.2047C16.1488 23.8176 17.2117 24 18.1946 24C19.3881 24 20.3047 23.8293 20.96 23.1911C21.3013 22.8652 21.5509 22.4345 21.5509 21.6916ZM11.3785 21.3249C11.2741 21.308 11.1684 21.2996 11.0626 21.2997H8.70284C8.59766 21.2997 8.49266 21.3081 8.38885 21.3249C8.42786 21.2861 8.50587 21.2085 8.58387 21.1038L9.64675 19.3579C9.79106 19.1232 9.85737 18.9661 9.88272 18.9001C9.91003 18.9661 9.97438 19.1212 10.1187 19.3695L11.2069 21.1309C11.2596 21.2085 11.3376 21.2861 11.3785 21.3249ZM15.3375 23.8293L10.618 16.7876H7.96955L8.66383 17.6101C8.67944 17.623 8.70154 17.636 8.73014 17.6489C8.70154 17.6618 8.67944 17.6747 8.66383 17.6877L4.54886 23.8293H6.93398L7.57756 22.774C7.59813 22.7333 7.61134 22.6893 7.61656 22.644C7.64192 22.644 7.70822 22.6693 7.77258 22.6693H12.0338C12.1001 22.6667 12.1482 22.6576 12.1781 22.6421C12.1765 22.6787 12.1853 22.715 12.2035 22.7468L12.8724 23.8293H15.3375ZM30.1495 21.1833C30.1495 20.6091 29.9154 19.9418 29.1802 19.0184L27.4094 16.7876H24.9463L26.3485 18.3531C26.5844 18.613 26.8867 18.8477 26.8867 18.8477C26.5433 18.6664 26.16 18.5731 25.7712 18.5761C24.9599 18.5761 24.133 18.743 23.3997 19.1484C22.6118 19.579 22.0872 20.2949 22.0872 21.2473C22.0872 21.9787 22.4149 22.5393 22.8342 22.968C23.78 23.9069 25.4962 24 26.1261 24C27.0564 24 28.5113 23.7905 29.3382 23.0475C29.5999 22.8128 29.8078 22.5249 29.9477 22.2032C30.0877 21.8816 30.1565 21.5337 30.1495 21.1833ZM28.1056 21.2473C28.1056 21.7827 27.7507 22.1862 27.306 22.4074C26.9394 22.6033 26.5064 22.6557 26.1261 22.6557C25.7459 22.6557 25.2993 22.5781 24.9326 22.3957C24.486 22.1726 24.1467 21.7439 24.1467 21.2745C24.1467 20.7119 24.5777 20.2696 25.0906 20.0485C25.4046 19.9049 25.7849 19.8526 26.0852 19.8526C26.3758 19.8526 26.7951 19.8914 27.1227 20.0213C27.7117 20.2696 28.1056 20.7391 28.1056 21.2473ZM32.1855 6.48368e-06C30.6504 -0.00210899 29.1599 0.513505 27.9574 1.46266C26.7549 0.513505 25.2644 -0.00210899 23.7293 6.48368e-06C22.1942 -0.00210899 20.7037 0.513505 19.5012 1.46266C18.2987 0.513505 16.8083 -0.00210899 15.2731 6.48368e-06C13.738 -0.00210899 12.2476 0.513505 11.0451 1.46266C10.0401 0.672803 8.83185 0.180476 7.55864 0.0420801C6.28542 -0.0963162 4.99876 0.124816 3.84605 0.680144C2.69334 1.23547 1.72119 2.10254 1.04098 3.18201C0.36077 4.26149 0 5.50972 0 6.78371C0 8.0577 0.36077 9.30593 1.04098 10.3854C1.72119 11.4649 2.69334 12.3319 3.84605 12.8873C4.99876 13.4426 6.28542 13.6637 7.55864 13.5253C8.83185 13.3869 10.0401 12.8946 11.0451 12.1048C12.2478 13.0532 13.7383 13.5681 15.2731 13.5655C16.808 13.5681 18.2985 13.0532 19.5012 12.1048C20.704 13.0532 22.1944 13.5681 23.7293 13.5655C25.2642 13.5681 26.7547 13.0532 27.9574 12.1048C28.8108 12.7749 29.813 13.2323 30.8803 13.4388C31.9476 13.6453 33.0491 13.5949 34.0929 13.2917C35.1366 12.9886 36.0923 12.4416 36.8802 11.6963C37.6682 10.951 38.2655 10.0291 38.6224 9.00749C38.9792 7.98586 39.0852 6.89415 38.9316 5.82347C38.7779 4.75279 38.3691 3.73418 37.7391 2.85266C37.1092 1.97113 36.2764 1.25226 35.3103 0.756014C34.3442 0.259772 33.2728 0.000559407 32.1855 6.48368e-06ZM9.92953 10.9971C9.14651 11.5704 8.21892 11.9163 7.24999 11.9964C6.28105 12.0765 5.30879 11.8875 4.4414 11.4506C3.57401 11.0137 2.84552 10.3459 2.337 9.52163C1.82849 8.69735 1.55989 7.74887 1.56111 6.78177C1.56025 5.81483 1.82911 4.86661 2.33777 4.04261C2.84643 3.21861 3.57495 2.55113 4.44227 2.11444C5.30959 1.67776 6.28171 1.48899 7.25047 1.56913C8.21923 1.64927 9.14664 1.99518 9.92953 2.56839C8.97533 3.76769 8.45618 5.25233 8.45618 6.78177C8.45618 8.31121 8.97533 9.79778 9.92953 10.9971ZM11.0451 9.88943C10.3752 8.99055 10.0147 7.90068 10.0173 6.78177C10.0147 5.66286 10.3752 4.57299 11.0451 3.67411C11.7159 4.57226 12.0787 5.66247 12.0748 6.78177C12.0763 7.90023 11.7152 8.99132 11.0451 9.88943ZM18.3857 10.9932C17.4817 11.652 16.3899 12.0068 15.2692 12.0058C14.1508 12.0078 13.0612 11.6529 12.1606 10.9932C13.1148 9.7939 13.6339 8.30927 13.6339 6.77983C13.6339 5.25039 13.1148 3.76575 12.1606 2.56645C13.061 1.90606 14.1506 1.55045 15.2692 1.5519C16.4355 1.5519 17.512 1.92823 18.3857 2.56645C17.4315 3.76575 16.9124 5.25039 16.9124 6.77983C16.9124 8.30927 17.4315 9.7939 18.3857 10.9932ZM19.5012 9.88749C18.8314 8.98861 18.4709 7.89874 18.4735 6.77983C18.4718 5.66225 18.8322 4.57387 19.5012 3.67605C20.1724 4.57428 20.5329 5.66458 20.529 6.78371C20.5311 7.90195 20.1707 8.98914 19.5012 9.88749ZM26.8419 10.9952C25.9701 11.6353 24.8917 12.0078 23.7254 12.0078C22.607 12.0098 21.5174 11.6548 20.6168 10.9952C21.571 9.79584 22.0901 8.31121 22.0901 6.78177C22.0901 5.25233 21.571 3.76769 20.6168 2.56839C21.4885 1.93017 22.5592 1.55384 23.7254 1.55384C24.8917 1.55384 25.9682 1.93017 26.8419 2.56839C25.8877 3.76769 25.3685 5.25233 25.3685 6.78177C25.3685 8.31121 25.8877 9.79584 26.8419 10.9952ZM27.9574 9.88943C27.2875 8.99055 26.9271 7.90068 26.9296 6.78177C26.9257 5.66264 27.2863 4.57234 27.9574 3.67411C28.6285 4.57234 28.9891 5.66264 28.9852 6.78177C28.9873 7.90002 28.6269 8.99108 27.9574 9.88943ZM32.1855 12.0078C31.0271 12.0078 29.9427 11.6237 29.0729 10.9932C30.0271 9.7939 30.5463 8.30927 30.5463 6.77983C30.5463 5.25039 30.0271 3.76575 29.0729 2.56645C29.8558 1.99324 30.7832 1.64733 31.752 1.56719C32.7208 1.48705 33.6929 1.67582 34.5602 2.11251C35.4275 2.54919 36.156 3.21667 36.6647 4.04067C37.1734 4.86467 37.4422 5.81289 37.4414 6.77983C37.4416 7.46644 37.3058 8.14638 37.0418 8.78077C36.7778 9.41517 36.3906 9.99159 35.9025 10.4771C35.4144 10.9626 34.8349 11.3477 34.1971 11.6103C33.5593 11.873 32.8758 12.008 32.1855 12.0078Z"/>
</svg>
