<svg width="75" height="24" viewBox="0 0 75 24" xmlns="http://www.w3.org/2000/svg">
<path d="M74.5089 16.3878C74.3964 16.3878 74.2839 16.4626 74.2089 16.6496C73.4552 18.8229 72.4014 20.1359 71.5389 20.1359C71.0514 20.1359 70.8639 19.5748 70.8639 18.7519C70.8639 16.6122 72.1389 12.0748 72.7764 9.97631C72.8514 9.71446 72.8889 9.49003 72.8889 9.30299C72.8889 8.70075 72.5514 8.39775 71.7264 8.39775C70.8639 8.39775 69.8851 8.73441 68.9814 10.3504C68.6814 8.92519 67.7064 8.32294 66.3489 8.32294C64.8114 8.32294 63.3039 9.33666 62.0664 10.9489C60.8251 12.5611 59.3589 13.0885 58.2676 12.8229C59.0551 10.9152 59.3551 9.44888 59.3551 8.39775C59.3551 6.71446 58.5301 5.70075 57.1801 5.70075C55.1476 5.70075 53.9814 7.64963 53.9814 9.67332C53.9814 11.2481 54.6939 12.8603 56.2764 13.6496C54.9601 16.6122 53.0439 19.313 52.2901 19.313C51.3526 19.313 51.0526 14.7007 51.1276 11.3978C51.1651 9.52743 51.3151 9.41521 51.3151 8.85037C51.3151 8.51372 51.0901 8.28928 50.2239 8.28928C48.2288 8.28928 47.5913 9.97257 47.5163 11.9252C47.4788 12.6733 47.3664 13.384 47.1789 14.0985C46.3538 17.0611 44.6213 19.3504 43.4926 19.3504C42.9676 19.3504 42.8176 18.8267 42.8176 18.1496C42.8176 16.01 44.0176 13.313 44.0176 11.0237C44.0176 9.3404 43.2676 8.28554 41.8801 8.28554C40.2226 8.28554 38.0813 10.2382 36.0151 13.8741C36.6901 11.0985 36.9526 8.4015 34.9613 8.4015C34.5113 8.4015 34.0976 8.51372 33.7201 8.73816C33.5923 8.79718 33.485 8.89263 33.4115 9.01246C33.3381 9.1323 33.3019 9.27114 33.3076 9.41147C33.4951 12.3741 30.9001 19.9863 28.4588 19.9863C28.0088 19.9863 27.7838 19.5 27.7838 18.7145C27.7838 16.5748 29.0588 12.0374 29.6963 9.93516C29.7664 9.70455 29.8043 9.46538 29.8088 9.22444C29.8088 8.66334 29.4713 8.36409 28.6463 8.36409C27.7838 8.36409 26.8051 8.70075 25.9013 10.3092C25.5638 8.88778 24.6263 8.28928 23.2688 8.28928C21.0525 8.28928 18.6075 10.6085 17.5163 13.6496C16.0538 17.7007 13.1588 21.6359 9.21002 21.6359C5.64001 21.6359 3.75751 18.6733 3.75751 13.9863C3.75751 7.20075 8.76002 1.68703 12.4425 1.68703C14.2088 1.68703 15.0375 2.80923 15.0375 4.53741C15.0375 6.63591 13.875 7.57481 13.875 8.39775C13.875 8.62219 14.0625 8.88404 14.475 8.88404C16.0875 8.88404 17.97 7.01372 17.97 4.42519C17.97 1.83666 15.9375 0 12.255 0C6.12751 0 0 6.11222 0 13.99C0 20.2481 3.08251 24 8.42252 24C12.0675 24 15.2625 21.187 16.9538 17.8878C17.1413 20.6259 18.3825 22.0474 20.2988 22.0474C21.99 22.0474 23.3438 21.0374 24.3975 19.2756C24.8101 21.1085 25.8601 22.01 27.2551 22.01C28.8301 22.01 30.1876 21 31.4251 19.1633C31.4251 20.6222 31.7251 22.01 33.0076 22.01C33.6076 22.01 34.3201 21.8604 34.4326 21.3367C35.7863 15.8229 39.0976 11.2855 40.1101 11.2855C40.4101 11.2855 40.4851 11.5848 40.4851 11.9214C40.4851 13.4252 39.4351 16.5 39.4351 18.4489C39.4351 20.5885 40.3351 21.9726 42.2176 21.9726C44.2838 21.9726 46.3876 19.4626 47.7789 15.7481C48.2289 19.2007 49.1701 21.9726 50.6364 21.9726C52.4401 21.9726 55.7101 18.1496 57.6676 14.0985C58.4176 14.2107 59.5839 14.1733 60.7126 13.3878C60.2251 14.5848 59.9626 15.8978 59.9626 17.1733C59.9626 20.9252 61.7626 21.9726 63.3039 21.9726C64.9951 21.9726 66.3489 20.9626 67.4026 19.2007C67.7401 20.7718 68.6401 21.9352 70.2601 21.9352C72.7802 21.9352 74.9964 19.3504 74.9964 17.2107C75.0339 16.7618 74.7714 16.3878 74.5089 16.3878ZM21.8775 19.9489C20.865 19.9489 20.4525 18.9389 20.4525 17.3978C20.4525 14.7382 22.29 10.2756 24.2101 10.2756C25.0351 10.2756 25.3726 11.2481 25.3726 12.4863C25.3726 15.187 23.6476 19.9489 21.8775 19.9489ZM56.9514 12C56.3514 11.2893 56.1264 10.2756 56.1264 9.41147C56.1264 8.32668 56.5389 7.42519 56.9889 7.42519C57.4389 7.42519 57.6264 7.87406 57.6264 8.54738C57.5889 9.5985 57.2139 11.2107 56.9514 12ZM64.8826 19.9489C63.8701 19.9489 63.4576 18.7519 63.4576 17.3978C63.4576 14.813 65.2951 10.2756 67.2151 10.2756C68.0401 10.2756 68.3401 11.2481 68.3401 12.4863C68.3776 15.187 66.6901 19.9489 64.8826 19.9489Z"/>
</svg>
