<svg width="162" height="24" viewBox="0 0 162 24" xmlns="http://www.w3.org/2000/svg">
<g clip-path="url(#clip0_654_224)">
<path d="M67.9112 14.9686H70.2859V21.5067H74.4295V23.6045H67.9116L67.9112 14.9686ZM76.8848 19.311V19.2858C76.8848 16.8049 78.8646 14.7959 81.5075 14.7959C84.1495 14.7959 86.1046 16.7838 86.1046 19.2605V19.2858C86.1046 21.7657 84.1248 23.7757 81.4819 23.7757C78.839 23.7757 76.8842 21.7903 76.8842 19.311H76.8848ZM83.6844 19.311V19.2858C83.6844 18.039 82.7921 16.954 81.4822 16.954C80.1717 16.954 79.318 18.0138 79.318 19.2605V19.2858C79.318 20.5316 80.209 21.6176 81.5075 21.6176C82.8048 21.6176 83.6844 20.5571 83.6844 19.311ZM89.0086 19.8169V14.9718H91.4174V19.7708C91.4174 21.0166 92.0391 21.6071 92.9937 21.6071C93.9474 21.6071 94.57 21.0387 94.57 19.8302V14.9686H96.9779V19.755C96.9779 22.5441 95.4013 23.7624 92.9681 23.7624C90.5349 23.7624 89.0054 22.5157 89.0054 19.815M100.609 14.9708H103.912C106.968 14.9708 108.741 16.7471 108.741 19.2365V19.2618C108.741 21.7508 106.942 23.6029 103.862 23.6029H100.609V14.9686V14.9718V14.9708ZM103.946 21.4827C105.366 21.4827 106.305 20.6942 106.305 19.3V19.2747C106.305 17.8925 105.364 17.091 103.946 17.091H102.979V21.4827H103.946ZM112.19 14.9686H119.036V17.0673H114.56V18.5336H118.607V20.5189H114.56V23.6045H112.19V14.9686ZM122.336 14.9686H124.71V21.5067H128.854V23.6045H122.336V14.9686ZM135.053 14.9077H137.338L140.982 23.6029H138.439L137.814 22.0606H134.511L133.901 23.6029H131.405L135.049 14.9077H135.053ZM137.132 20.1987L136.178 17.7441L135.211 20.1987H137.132ZM144.039 14.9711H148.085C149.393 14.9711 150.3 15.3182 150.872 15.9078C151.376 16.4001 151.629 17.0689 151.629 17.9178V17.943C151.629 19.2621 150.931 20.1387 149.868 20.5934L151.911 23.6029H149.171L147.448 20.9876H146.409V23.6029H144.035V14.9686L144.039 14.9718V14.9711ZM147.977 19.1162C148.783 19.1162 149.249 18.7224 149.249 18.0937V18.0693C149.249 17.3907 148.762 17.0468 147.964 17.0468H146.412V19.1203H147.979L147.977 19.1171V19.1162ZM155.053 14.9686H161.937V17.0039H157.402V18.31H161.511V20.1997H157.402V21.5692H162V23.6045H155.053V14.9686ZM62.7155 20.3231C62.3833 21.081 61.6831 21.6176 60.7538 21.6176C59.4597 21.6176 58.5655 20.5316 58.5655 19.2858V19.2596C58.5655 18.0128 59.4341 16.9533 60.7295 16.9533C61.7052 16.9533 62.4494 17.5587 62.7655 18.3854H65.2645C64.8636 16.3319 63.075 14.7949 60.7516 14.7949C58.1118 14.7949 56.1289 16.8049 56.1289 19.2851V19.3104C56.1289 21.7903 58.0833 23.775 60.7269 23.775C62.9848 23.775 64.7516 22.2974 65.2177 20.3193H62.7124L62.7155 20.3225V20.3231Z"/>
<path d="M41.8397 10.3257C41.665 10.3257 41.4926 10.332 41.3205 10.3374C41.2926 10.3392 41.2652 10.3456 41.2395 10.3563C41.1939 10.3719 41.1529 10.3985 41.1201 10.4338C41.0874 10.469 41.0639 10.5119 41.0518 10.5584L40.3133 13.1337C39.995 14.2408 40.1134 15.2634 40.6487 16.0137C41.1392 16.7084 41.9555 17.1158 42.9468 17.1632L46.9531 17.4057C47.0721 17.412 47.1752 17.4688 47.2379 17.5636C47.3047 17.6653 47.3195 17.7925 47.2787 17.9075C47.2463 17.9994 47.1881 18.08 47.1111 18.1399C47.0341 18.1997 46.9415 18.2362 46.8443 18.2451L42.6813 18.4876C40.42 18.5921 37.9865 20.4341 37.1328 22.6803L36.8329 23.4729C36.82 23.5058 36.8152 23.5412 36.8188 23.5763C36.8224 23.6113 36.8343 23.645 36.8535 23.6746C36.8727 23.7042 36.8987 23.7287 36.9294 23.7463C36.96 23.7638 36.9944 23.7738 37.0297 23.7755H51.3667C51.45 23.7758 51.5312 23.7489 51.5978 23.6988C51.6644 23.6488 51.7127 23.5783 51.7353 23.4982C51.9896 22.5846 52.1177 21.6406 52.1162 20.6924C52.1162 14.9703 47.5192 10.332 41.846 10.332"/>
<path d="M35.5821 23.4426L35.8472 22.5114C36.1665 21.4042 36.0482 20.3817 35.5138 19.6314C35.0214 18.9366 34.2057 18.5293 33.2141 18.4819L14.4212 18.2394C14.3627 18.2384 14.3052 18.2235 14.2536 18.1961C14.2019 18.1686 14.1576 18.1294 14.1241 18.0815C14.0912 18.0311 14.0705 17.9739 14.0633 17.9143C14.0562 17.8547 14.0629 17.7942 14.0829 17.7376C14.1156 17.6451 14.1743 17.5641 14.2521 17.5042C14.3298 17.4443 14.4233 17.4081 14.5211 17.4L33.4897 17.1575C35.7416 17.0536 38.1747 15.2109 39.0284 12.9647L40.1102 10.1116C40.1541 9.9906 40.165 9.86015 40.1418 9.73358C38.9094 4.1681 33.9795 0 28.0855 0C22.6522 0 18.0424 3.53653 16.3879 8.45274C15.2743 7.60784 13.8798 7.21855 12.4886 7.36421C9.8839 7.62568 7.78739 9.74337 7.52857 12.3717C7.46196 13.0281 7.51036 13.691 7.67159 14.3308C3.41466 14.4568 0 17.9747 0 22.2973C0 22.6882 0.0278437 23.0732 0.0841641 23.4489C0.107262 23.6312 0.262934 23.7679 0.447082 23.7676H35.1531C35.2509 23.766 35.3456 23.7329 35.4229 23.6731C35.5003 23.6133 35.5561 23.5301 35.5821 23.436"/>
</g>
<defs>
<clipPath id="clip0_654_224">
<rect width="162" height="24"/>
</clipPath>
</defs>
</svg>
