<svg width="98" height="24" viewBox="0 0 98 24" xmlns="http://www.w3.org/2000/svg">
<path d="M29.9341 9.65539C30.2092 9.66895 30.4842 9.62632 30.7424 9.53011C31.0006 9.4339 31.2366 9.2861 31.4361 9.09569C31.6356 8.90528 31.7944 8.67623 31.9029 8.42242C32.0115 8.16861 32.0674 7.89535 32.0674 7.61921C32.0674 7.34307 32.0115 7.06981 31.9029 6.816C31.7944 6.5622 31.6356 6.33314 31.4361 6.14273C31.2366 5.95232 31.0006 5.80452 30.7424 5.70831C30.4842 5.6121 30.2092 5.56948 29.9341 5.58303C29.3948 5.58303 28.8776 5.79781 28.4962 6.18013C28.1149 6.56245 27.9006 7.08099 27.9006 7.62167C27.9006 8.16235 28.1149 8.68089 28.4962 9.06321C28.8776 9.44552 29.3948 9.66031 29.9341 9.66031M96.9662 16.6162C96.6575 16.3952 96.4174 16.3608 96.2214 16.7833C92.811 24.1912 87.0584 20.4921 87.6317 20.8213C88.9057 20.2318 92.2622 17.5398 91.7526 13.8162C91.4439 11.5418 89.4986 10.5347 87.4308 10.8933C83.8244 11.5221 82.4916 15.4275 83.1678 18.8809C83.2903 19.4703 83.501 19.9616 83.7068 20.443C79.6349 23.7687 78.013 17.4661 77.8268 16.7096C77.8268 16.6752 80.9775 14.0372 81.8546 7.7543C82.7758 1.16679 80.6786 -0.031835 78.5373 0.00255176C74.5683 0.0713252 73.5001 8.37818 74.9407 15.3046C74.8182 15.3341 74.2547 15.6485 73.358 15.6829C72.7063 13.6344 69.9329 11.8414 69.2077 12.5291C67.3947 14.2583 69.6487 17.638 71.2363 17.9082C70.2808 23.7982 64.3175 22.3392 65.4298 14.9608C67.3702 11.3453 68.85 5.97111 68.5854 2.7191C68.4874 1.56961 67.6446 0.0320303 65.7287 0.105716C62.039 0.253088 61.6372 8.56485 62.0733 14.4597C62.0488 14.3123 61.843 15.1769 60.3338 15.6043C59.9761 13.6197 56.7813 11.6253 56.0316 12.5832C54.6253 14.3762 57.0606 17.5791 58.217 17.805C57.2664 23.6901 51.2982 22.236 52.4105 14.8576C54.3509 11.2372 55.8307 5.86303 55.5661 2.61594C55.473 1.46645 54.6253 -0.0711341 52.7094 0.00255176C49.0197 0.149923 48.6228 8.46168 49.054 14.3565C49.0295 14.2092 48.8237 15.0983 47.2507 15.5208C47.1968 12.9418 43.9922 11.7579 43.2229 12.5832C41.8509 14.0471 43.5366 17.0584 45.0948 17.805C44.1442 23.6901 38.1759 22.236 39.2882 14.8576C41.2286 11.2372 42.7084 5.86303 42.4438 2.61594C42.3458 1.46645 41.503 -0.0711341 39.5871 0.00255176C35.8974 0.149923 35.6034 8.87432 36.0346 14.7741C34.8194 19.9911 30.7475 26.5049 31.2816 13.4576C31.3306 12.539 31.3845 12.1902 30.9337 11.8512C30.5907 11.586 29.8165 11.7137 29.3902 11.7235C28.8757 11.7432 28.7483 12.0428 28.6307 12.4997C28.3661 13.6786 28.322 14.8232 28.2828 16.3854C28.2678 17.0876 28.1455 17.7834 27.9202 18.4486C27.636 19.4458 26.0386 21.2683 25.1664 20.9637C23.9512 20.5462 24.3481 17.1075 24.5784 14.7495C24.7695 12.8828 24.1619 12.0477 22.6037 11.7432C21.6972 11.5516 21.1435 11.5811 20.1929 11.2814C19.2962 11.0014 19.0953 9.3017 17.1843 9.86663C16.1406 10.1761 16.8119 12.3965 16.5571 14.0422C15.3223 22.1427 12.7547 22.3637 11.5591 18.4289C16.9295 5.23916 13.1124 0.0418527 10.878 0.0418527C8.55051 0.0418527 5.88981 1.6482 7.01681 11.9298C6.46801 11.7726 6.30141 11.6842 5.70361 11.6842C2.3128 11.6842 0 14.4351 0 17.8247C0 21.2142 2.3128 23.9652 5.70361 23.9652C7.70281 23.9652 9.10911 23.0515 10.1724 21.6416C10.8682 22.6388 11.7159 23.9799 13.2594 23.921C17.8703 23.7392 19.2129 14.2583 19.3697 13.7278C19.8597 13.8064 20.3301 13.9488 20.7858 14.0225C21.5453 14.1404 21.5992 14.4401 21.5796 15.2015C21.3836 21.6564 22.5694 23.9111 25.2595 23.9111C26.7589 23.9111 28.1015 22.4374 29.0178 21.3764C29.7038 22.8009 30.8014 23.8669 32.2714 23.9111C35.8386 23.9996 37.2008 18.311 37.0734 19.0577C36.9754 19.6472 38.2347 23.8817 41.8999 23.8964C46.4472 23.9161 47.2899 18.9054 47.3879 18.0654C47.4075 17.918 47.4026 17.8984 47.3879 18.0654V18.1145C48.2015 17.9863 48.9605 17.6246 49.5734 17.0731C49.5734 17.0731 50.7298 23.975 55.0222 23.8964C59.4812 23.8129 60.3191 19.2837 60.4318 18.4044C60.4514 18.2177 60.4465 18.1931 60.4318 18.4044V18.4289C62.1419 17.805 62.5927 17.1763 62.5927 17.1763C62.5927 17.1763 63.5139 23.9406 68.0415 23.9996C72.0791 24.0487 73.5736 19.9075 73.5785 18.1735C74.2645 18.1833 75.5238 17.7707 75.4895 17.7461C75.4895 17.7461 76.9693 23.6606 81.1 23.9652C83.0355 24.1076 84.4908 22.8697 85.3189 22.3097C87.2691 23.8915 93.7518 25.9105 97.8482 18.9496C98.4264 17.9475 97.1818 16.7685 96.9662 16.6162ZM5.53211 21.6711C3.5574 21.6711 2.2883 19.8339 2.2883 17.8591C2.2883 15.8794 3.4496 14.0422 5.42921 14.0422C6.32101 14.0422 6.81591 14.1404 7.50681 14.7495C7.63421 15.2408 7.99191 16.3903 8.16341 16.911C8.39861 17.6086 8.67301 18.198 8.94741 18.8465C8.55541 20.497 7.24711 21.6711 5.53211 21.6711ZM10.3537 14.8036C10.2753 14.6759 10.29 14.7545 10.1969 14.6316C9.52851 12.7983 9.1435 10.8734 9.05521 8.92345C8.96211 6.089 9.43741 2.76332 10.8241 2.76332C11.7698 2.76332 12.7694 9.50311 10.3537 14.8036ZM38.2151 11.8512C37.9946 10.1663 37.9799 2.66507 39.7831 2.86647C40.7729 3.26929 39.1461 10.353 38.2151 11.8512ZM51.3374 11.8512C51.1169 10.1663 51.1071 2.66507 52.9054 2.86647C53.8952 3.26929 52.2684 10.353 51.3374 11.8512ZM64.3567 11.9544C64.1362 10.2694 64.1215 2.76823 65.9247 2.97455C66.9145 3.37736 65.2877 10.4561 64.3567 11.9544ZM78.7284 2.42927C80.3748 2.25734 80.3062 9.45399 77.0085 13.993C76.5822 12.3523 75.9305 2.98929 78.7284 2.42927ZM85.6374 17.9033C85.1082 15.2359 86.4704 13.4821 87.8767 13.2857C88.3667 13.2071 89.0821 13.5313 89.2242 14.1208C89.4545 15.2506 89.1899 16.9208 86.0392 19.0331C85.8597 18.6744 85.7248 18.295 85.6374 17.9033Z"/>
</svg>
