<svg width="89" height="24" viewBox="0 0 89 24" xmlns="http://www.w3.org/2000/svg">
<path d="M23.2327 12.0886C23.1437 11.9332 23.017 11.8025 22.8641 11.7085C22.7112 11.6144 22.537 11.56 22.3575 11.5501H21.6826C21.5044 11.5612 21.3318 11.6162 21.1803 11.7102C21.0288 11.8042 20.9032 11.9342 20.8149 12.0886L15.4415 23.244C15.2895 23.5353 15.4563 23.7529 15.7901 23.7529H17.0324C17.5219 23.7529 17.7481 23.528 17.8779 23.2588C18.0151 22.9896 18.308 22.3958 18.36 22.2778C18.4341 22.1119 18.6677 22.016 19.0089 22.016H24.7902C25.1202 22.016 25.339 22.075 25.4392 22.2778C25.5059 22.4069 25.8026 22.9379 25.9435 23.2219C26.0172 23.3867 26.1399 23.5252 26.2949 23.6188C26.45 23.7124 26.6302 23.7566 26.8112 23.7455H28.6135C28.9435 23.7455 29.0956 23.4911 28.9769 23.2588C28.8508 23.0338 23.2327 12.0886 23.2327 12.0886ZM19.8433 20.2901C19.5132 20.2901 19.3538 20.043 19.4947 19.7443L21.6122 15.2379C21.7568 14.9392 21.983 14.9392 22.1165 15.2379L24.1746 19.7443C24.3118 20.043 24.1524 20.2901 23.8186 20.2901H19.8433ZM64.7327 12.1734V23.2403C64.7327 23.5464 65.0034 23.7492 65.3371 23.7492H66.8056C67.1357 23.7492 67.4101 23.539 67.4101 23.2108V12.1549C67.4101 11.8267 67.1913 11.5538 66.8613 11.5538H65.3371C65.0034 11.5501 64.7327 11.753 64.7327 12.1734ZM40.1427 19.1064C39.9536 18.8371 40.0611 18.5384 40.3763 18.4389C40.3763 18.4389 41.6446 18.0627 42.2527 17.5169C42.8634 16.9761 43.1675 16.1943 43.165 15.1715C43.1817 14.5897 43.0597 14.0122 42.809 13.4862C42.5774 13.0344 42.2325 12.6495 41.8077 12.3688C41.3263 12.0683 40.7953 11.8548 40.2391 11.7382C39.6272 11.6091 38.8077 11.5649 38.8077 11.5649C38.4062 11.5478 38.0044 11.538 37.6025 11.5354H31.5023C31.3423 11.5364 31.1891 11.6 31.0759 11.7125C30.9628 11.825 30.8988 11.9774 30.8978 12.1365V23.1924C30.8978 23.5206 31.1685 23.7308 31.5023 23.7308H32.9411C33.2712 23.7308 33.5456 23.5206 33.5456 23.1924V18.7929C33.5456 18.7929 33.553 18.7929 33.553 18.7855L36.2898 18.7781C36.6198 18.7781 37.05 19.0031 37.2465 19.2723L40.0871 23.244C40.3504 23.598 40.5988 23.7308 40.9326 23.7308H42.8164C43.1465 23.7308 43.2021 23.4173 43.0871 23.2588C42.9685 23.1186 40.1427 19.1064 40.1427 19.1064ZM38.9894 16.8568C38.7282 16.9053 38.4645 16.9398 38.1995 16.9601C37.798 16.9747 37.3962 16.982 36.9943 16.9822H34.1649C34.0049 16.9812 33.8517 16.9176 33.7385 16.8051C33.6254 16.6926 33.5614 16.5402 33.5604 16.3811V14.1389C33.5604 13.8107 33.8311 13.5378 34.1649 13.5378H36.9906C37.3207 13.5378 37.8658 13.5526 38.1958 13.56C38.1958 13.56 38.6186 13.5747 38.9857 13.6632C39.3053 13.7178 39.6091 13.8411 39.8757 14.0246C40.0788 14.1605 40.2405 14.3493 40.343 14.5704C40.4379 14.7881 40.4869 15.0228 40.4869 15.26C40.4869 15.4973 40.4379 15.732 40.343 15.9496C40.2421 16.1718 40.0802 16.361 39.8757 16.4954C39.6102 16.6785 39.3077 16.8018 38.9894 16.8568ZM82.7589 11.5501C82.4288 11.5501 82.1544 11.7677 82.1544 12.0886V19.1654C82.1544 19.4936 81.9653 19.571 81.7317 19.3387L74.608 11.9927C74.476 11.8548 74.3172 11.7452 74.1412 11.6703C73.9653 11.5955 73.7758 11.5571 73.5845 11.5575H72.242C71.8193 11.5575 71.6376 11.7825 71.6376 12.0074V23.3215C71.6376 23.5464 71.8564 23.764 72.1864 23.764H73.5288C73.8589 23.764 74.0925 23.5833 74.0925 23.2772L74.0999 15.8242C74.0999 15.496 74.289 15.4186 74.5227 15.6583L81.9542 23.3362C82.0852 23.4778 82.2455 23.5894 82.4242 23.6633C82.6028 23.7371 82.7955 23.7715 82.9888 23.764H83.9975C84.1575 23.763 84.3106 23.6994 84.4238 23.5869C84.5369 23.4743 84.6009 23.322 84.6019 23.1629V12.1513C84.6009 11.9921 84.5369 11.8398 84.4238 11.7273C84.3106 11.6148 84.1575 11.5511 83.9975 11.5501H82.7589ZM53.7041 18.4462C53.5446 18.7376 53.2739 18.7302 53.1145 18.4462L49.6323 12.0886C49.5525 11.9258 49.4279 11.7888 49.273 11.6935C49.1181 11.5982 48.9393 11.5485 48.7572 11.5501H46.8659C46.7059 11.5511 46.5527 11.6148 46.4396 11.7273C46.3264 11.8398 46.2624 11.9921 46.2615 12.1513V23.1998C46.2615 23.528 46.4802 23.7529 46.8659 23.7529H48.0415C48.3715 23.7529 48.6125 23.5427 48.6125 23.2293C48.6125 23.0781 48.62 15.1936 48.6274 15.1936C48.6422 15.1936 52.9772 23.2219 52.9772 23.2219C53.0091 23.2874 53.0589 23.3426 53.1209 23.3812C53.1829 23.4198 53.2545 23.4403 53.3277 23.4403C53.4008 23.4403 53.4725 23.4198 53.5345 23.3812C53.5965 23.3426 53.6462 23.2874 53.6781 23.2219C53.6781 23.2219 58.0502 15.2084 58.0577 15.2084C58.0725 15.2084 58.0651 22.9896 58.0651 23.2219C58.0651 23.5427 58.321 23.7455 58.6547 23.7455H60.0045C60.3346 23.7455 60.609 23.5796 60.609 23.1444V12.1476C60.608 11.9884 60.544 11.8361 60.4309 11.7236C60.3177 11.6111 60.1646 11.5474 60.0045 11.5465H58.1949C58.0101 11.5422 57.8278 11.5889 57.6682 11.6813C57.5085 11.7737 57.3776 11.9083 57.29 12.0701L53.7041 18.4462ZM0 17.6386C0 23.598 6.12987 23.8967 7.35733 23.8967C11.4291 23.8967 13.146 22.8015 13.2165 22.7572C13.392 22.6629 13.5377 22.5219 13.6372 22.35C13.7368 22.178 13.7863 21.982 13.7802 21.7837V17.6681C13.7807 17.5774 13.7631 17.4875 13.7284 17.4036C13.6937 17.3198 13.6426 17.2435 13.5782 17.1794C13.5137 17.1153 13.437 17.0645 13.3527 17.03C13.2683 16.9955 13.1779 16.978 13.0867 16.9785H7.97662C7.59096 16.9785 7.3425 17.2846 7.3425 17.6681V18.0959C7.3425 18.4794 7.59096 18.7855 7.97662 18.7855H10.9322C11.0699 18.7855 11.2019 18.8399 11.2993 18.9367C11.3966 19.0336 11.4513 19.1649 11.4513 19.3018V21.2194C10.8691 21.4591 8.21025 22.2299 6.07054 21.721C2.97037 20.9871 2.72933 18.4389 2.72933 17.6792C2.72933 17.0412 2.92588 13.8329 6.73063 13.512C9.81225 13.2502 11.8407 14.4856 11.863 14.5003C12.2264 14.6884 12.6009 14.552 12.8049 14.1721L13.1905 13.4014C13.35 13.0879 13.2944 12.756 12.905 12.4942C12.8827 12.4795 10.7171 11.3178 7.36475 11.3178C0.203958 11.3104 0 16.9933 0 17.6386ZM82.0803 8.50037H74.0517C73.7587 8.50037 73.5029 8.35655 73.3582 8.1021C73.2136 7.84764 73.2136 7.56368 73.3582 7.30923L77.3781 0.398379C77.4466 0.275768 77.5472 0.173955 77.6694 0.10381C77.7915 0.0336637 77.9305 -0.00218135 78.0715 0.000102721C78.2126 -0.00218135 78.3516 0.0336637 78.4737 0.10381C78.5958 0.173955 78.6965 0.275768 78.765 0.398379L82.7848 7.30923C82.8607 7.42767 82.9011 7.56521 82.9011 7.70566C82.9011 7.84612 82.8607 7.98365 82.7848 8.1021C82.7125 8.22377 82.6094 8.32453 82.4858 8.39439C82.3622 8.46425 82.2224 8.50079 82.0803 8.50037ZM87.5982 21.2121C88.3659 21.2121 89 21.8353 89 22.606C88.998 22.9751 88.8497 23.3286 88.5873 23.5896C88.3248 23.8506 87.9694 23.9981 87.5982 24C87.2271 23.9981 86.8717 23.8506 86.6092 23.5896C86.3468 23.3286 86.1984 22.9751 86.1965 22.606C86.1984 22.2369 86.3468 21.8835 86.6092 21.6225C86.8717 21.3615 87.2271 21.214 87.5982 21.2121ZM87.6057 23.7935C88.2472 23.7935 88.7367 23.2772 88.7367 22.6097C88.7367 21.9422 88.2546 21.4259 87.6057 21.4259C86.9567 21.4259 86.4672 21.9422 86.4672 22.6097C86.4672 23.2735 86.9493 23.7935 87.6057 23.7935ZM87.0643 21.791H87.691C88.0667 21.791 88.2546 21.9435 88.2546 22.2483C88.2546 22.5101 88.0877 22.6982 87.8319 22.6982L88.2991 23.4173H88.0136L87.5538 22.6982H87.3275V23.4173H87.0568V21.791H87.0643ZM87.335 22.488H87.6502C87.8541 22.488 87.9876 22.4438 87.9876 22.2336C87.9876 22.0455 87.8207 21.9939 87.6502 21.9939H87.335V22.488Z"/>
</svg>
