<svg width="60" height="24" viewBox="0 0 60 24" xmlns="http://www.w3.org/2000/svg">
<path d="M0 0V1.641H11.679V0H0ZM13.335 0V1.641H29.976C29.976 1.641 28.275 0 26.025 0H13.335ZM33.243 0V1.641H43.311L42.711 0H33.243ZM50.529 0L49.929 1.641H59.907V0H50.529ZM0 3.192V4.836H11.679V3.192H0ZM13.335 3.195V4.836H31.905C31.905 4.836 31.692 3.573 31.314 3.195H13.335ZM33.243 3.195V4.836H44.415L43.86 3.195H33.243ZM49.335 3.195L48.78 4.836H59.91V3.195H49.335ZM3.357 6.39V8.034H8.415V6.39H3.357ZM16.689 6.39V8.034H21.75V6.39H16.689ZM26.667 6.39V8.034H31.725C31.725 8.034 32.046 7.164 32.046 6.39H26.667ZM36.597 6.39V8.034H45.567L44.967 6.39H36.597ZM48.231 6.39L47.631 8.034H56.643V6.39H48.231ZM3.36 9.582V11.223H8.418V9.582H3.36ZM16.692 9.582V11.223H29.613C29.613 11.223 30.693 10.383 31.038 9.582H16.692ZM36.6 9.582V11.223H41.658V10.311L41.979 11.226H51.246L51.588 10.311V11.226H56.646V9.582H47.151L46.647 10.974L46.143 9.582H36.6ZM3.36 12.78V14.421H8.418V12.78H3.36ZM16.692 12.78V14.421H31.038C30.693 13.623 29.61 12.78 29.61 12.78H16.692ZM36.6 12.78V14.421H41.658V12.78H36.6ZM42.576 12.78L43.188 14.421H50.136L50.718 12.78H42.576ZM51.588 12.78V14.421H56.646V12.78H51.588ZM3.36 15.969V17.61H8.418V15.969H3.36ZM16.692 15.969V17.61H21.75V15.969H16.692ZM26.67 15.969V17.61H32.049C32.0232 17.0502 31.9151 16.4972 31.728 15.969H26.67ZM36.6 15.969V17.61H41.658V15.969H36.6ZM43.725 15.969L44.319 17.61H48.975L49.575 15.969H43.725ZM51.588 15.969V17.61H56.646V15.969H51.588ZM0.0899999 19.161V20.808H11.769V19.161H0.0899999ZM13.335 19.161V20.808H31.314C31.692 20.43 31.908 19.161 31.908 19.161H13.335ZM33.333 19.161V20.808H41.655V19.161H33.333ZM44.874 19.161L45.483 20.808H47.853L48.423 19.161H44.874ZM51.585 19.161V20.808H60V19.161H51.585ZM0.0899999 22.359V24H11.769V22.359H0.0899999ZM13.335 22.359V23.997H26.025C28.275 23.997 29.976 22.359 29.976 22.359H13.335ZM33.333 22.359V24H41.655V22.359H33.333ZM46.029 22.359L46.614 23.997H46.716L47.31 22.359H46.029ZM51.585 22.359V24H60V22.359H51.585Z"/>
</svg>
