<svg viewBox="0 0 96 41" xmlns="http://www.w3.org/2000/svg">
<g clip-path="url(#clip0_314_106)">
<path d="M0.882812 1.05774H8.36035V8.5207H0.882812V1.05774Z"/>
<path d="M8.17405 39.9398V13.0357H1.06909V39.9131H8.17405V39.9398ZM55.2217 40.2054V33.6187C54.1839 33.6187 53.3057 33.5657 52.6671 33.4594C51.9221 33.3531 51.3632 33.0876 50.9907 32.7157C50.6181 32.3439 50.3785 31.8128 50.2455 31.0957C50.1392 30.4317 50.0859 29.5554 50.0859 28.493V19.1178H55.2219V13.0357H50.0859V2.57167H42.9808V28.5726C42.9808 30.777 43.1671 32.6361 43.5397 34.1233C43.9122 35.5841 44.5509 36.7793 45.4291 37.6822C46.3071 38.5854 47.4781 39.2228 48.8884 39.6211C50.3253 40.0194 52.1349 40.2054 54.2904 40.2054H55.2217ZM95.8828 39.9398V0.5H88.7778V39.9398H95.8828ZM36.1419 15.6917C34.1727 13.5669 31.4053 12.5046 27.8925 12.5046C26.1895 12.5046 24.6194 12.8498 23.2358 13.5404C21.8253 14.2309 20.6545 15.187 19.6965 16.4087L19.3239 16.9133V13.0357H12.3255V39.9131H19.3774V25.5981V26.5809V26.1028C19.4572 23.5798 20.0693 21.7206 21.2403 20.5256C22.4909 19.2507 24.0077 18.6133 25.7374 18.6133C27.7864 18.6133 29.3565 19.2507 30.3942 20.4724C31.4054 21.6941 31.9376 23.4206 31.9376 25.6248V39.9133H39.096V24.6685C39.1225 20.8441 38.1113 17.8163 36.1421 15.6917M85.1057 26.448C85.1057 24.5091 84.7598 22.7031 84.0945 21.0035C83.4025 19.3302 82.4446 17.843 81.2471 16.5681C80.023 15.2931 78.5594 14.3106 76.8565 13.5935C75.1531 12.8763 73.2639 12.5311 71.2149 12.5311C69.2722 12.5311 67.4362 12.903 65.7331 13.62C64.03 14.3637 62.5398 15.3463 61.2893 16.5946C60.0385 17.8428 59.0273 19.3302 58.3088 21.0298C57.5637 22.7298 57.2178 24.5622 57.2178 26.5011C57.2178 28.44 57.5637 30.2724 58.2556 31.9722C58.9475 33.6719 59.932 35.1593 61.156 36.4074C62.3803 37.6556 63.8969 38.6648 65.6533 39.382C67.4095 40.1257 69.3522 40.4976 71.4277 40.4976C77.4419 40.4976 81.1673 37.762 83.4025 35.2124L78.2933 31.3346C77.2288 32.6096 74.6742 34.3359 71.481 34.3359C69.4852 34.3359 67.8354 33.8844 66.5846 32.9548C65.334 32.0519 64.4823 30.777 64.03 29.21L63.9502 28.9711H85.1057V26.448ZM64.0034 23.978C64.0034 22.0126 66.2653 18.5865 71.1351 18.56C76.0048 18.56 78.2935 21.9859 78.2935 23.9515L64.0034 23.978Z"/>
</g>
<defs>
<clipPath id="clip0_314_106">
<rect width="95" height="40" transform="translate(0.882812 0.5)"/>
</clipPath>
</defs>
</svg>
