<svg viewBox="0 0 159 41" xmlns="http://www.w3.org/2000/svg">
<path d="M0.117188 3.81833H6.29211V26.2931H17.717V31.993H0.117188V3.81833ZM20.4419 12.9057H26.3669V31.9805H20.4419V12.9057ZM23.4044 3.41833C24.0843 3.41833 24.7489 3.61994 25.3141 3.99765C25.8794 4.37536 26.32 4.91222 26.5802 5.54033C26.8404 6.16845 26.9084 6.85961 26.7758 7.52641C26.6432 8.19321 26.3158 8.8057 25.835 9.28644C25.3543 9.76718 24.7418 10.0946 24.075 10.2272C23.4082 10.3598 22.7171 10.2918 22.0889 10.0316C21.4608 9.77142 20.924 9.33083 20.5463 8.76554C20.1685 8.20025 19.9669 7.53566 19.9669 6.85579C19.9669 5.94412 20.3291 5.06979 20.9737 4.42515C21.6184 3.7805 22.4927 3.41833 23.4044 3.41833ZM51.1666 3.81833H57.0915V20.6556L63.8164 12.8807H71.0788L63.3039 21.7181L70.9163 31.993H63.4664L57.1665 22.5556H57.0915V31.993H51.1666V3.81833ZM29.6543 12.9057H35.3043V15.5182H35.3792C35.9492 14.5451 36.7718 13.7443 37.7599 13.2008C38.7479 12.6572 39.8647 12.3911 40.9917 12.4307C47.0041 12.4307 48.1041 16.3807 48.1041 21.5181V31.993H42.2292V22.7056C42.2292 20.4931 42.2292 17.7057 39.1417 17.7057C36.0542 17.7057 35.5792 20.1181 35.5792 22.6056V32.043H29.6543V12.9057Z"/>
<path d="M85.8437 21.8229C85.8557 21.3419 85.7698 20.8636 85.5913 20.4168C85.4127 19.9701 85.1452 19.5643 84.805 19.2241C84.4648 18.8839 84.059 18.6164 83.6123 18.4379C83.1656 18.2593 82.6872 18.1734 82.2062 18.1854C81.1703 18.1199 80.1502 18.4648 79.3666 19.1455C78.583 19.8262 78.0988 20.788 78.0188 21.8229H85.8437ZM90.8436 30.2853C89.8548 31.4704 88.6154 32.4214 87.2147 33.0698C85.8141 33.7182 84.2871 34.048 82.7437 34.0352C76.8188 34.0352 72.0688 30.0853 72.0688 23.9479C72.0688 17.8104 76.8188 13.873 82.7437 13.873C88.2811 13.873 91.7561 17.8229 91.7561 23.9479V25.8103H78.0063C78.1696 26.8699 78.712 27.8342 79.5328 28.5239C80.3536 29.2136 81.3969 29.5819 82.4687 29.5603C83.313 29.5591 84.1433 29.3441 84.8821 28.9354C85.6208 28.5266 86.2441 27.9375 86.6937 27.2228L90.8436 30.2853ZM104.118 19.1104C103.151 19.0806 102.197 19.3402 101.377 19.856C100.558 20.3718 99.9118 21.1204 99.5206 22.0058C99.1295 22.8913 99.0116 23.8733 99.1819 24.8262C99.3522 25.7791 99.8031 26.6594 100.477 27.3545C101.15 28.0496 102.016 28.5279 102.963 28.728C103.91 28.9281 104.896 28.8409 105.793 28.4777C106.69 28.1145 107.459 27.4918 108 26.6892C108.541 25.8867 108.83 24.9409 108.831 23.9729C108.884 23.3305 108.798 22.6843 108.58 22.0779C108.362 21.4715 108.016 20.9191 107.565 20.4581C107.115 19.997 106.571 19.6381 105.97 19.4056C105.368 19.1731 104.724 19.0724 104.081 19.1104M114.331 33.5853H108.831V31.0853C108.144 32.0017 107.256 32.7486 106.235 33.2686C105.215 33.7886 104.089 34.068 102.943 34.0853C97.2435 34.0853 93.4936 29.9728 93.4936 24.1604C93.4936 18.8229 96.8185 13.923 102.243 13.923C103.384 13.8228 104.532 13.9975 105.591 14.4325C106.65 14.8674 107.59 15.55 108.331 16.423H108.406V5.4231H114.331V33.5853Z"/>
<path d="M155.225 0.500243H121.137C120.364 0.493568 119.619 0.793652 119.066 1.33481C118.513 1.87597 118.197 2.61413 118.188 3.38771V37.6123C118.197 38.3859 118.513 39.124 119.066 39.6652C119.619 40.2063 120.364 40.5064 121.137 40.4998H155.225C155.609 40.5047 155.99 40.434 156.347 40.2915C156.704 40.1491 157.029 39.9378 157.304 39.6696C157.579 39.4015 157.799 39.0818 157.95 38.7288C158.102 38.3758 158.182 37.9964 158.187 37.6123V3.38771C158.182 3.00359 158.102 2.62419 157.95 2.27119C157.799 1.91819 157.579 1.59849 157.304 1.33036C157.029 1.06223 156.704 0.850908 156.347 0.708476C155.99 0.566044 155.609 0.495287 155.225 0.500243Z"/>
<path fill="#fff" d="M124.233 15.2182H130.17V34.3055H124.233V15.2182ZM127.196 5.73083C127.875 5.73083 128.54 5.93244 129.105 6.31015C129.671 6.68786 130.111 7.22472 130.371 7.85283C130.631 8.48095 130.7 9.17211 130.567 9.83891C130.434 10.5057 130.107 11.1182 129.626 11.5989C129.145 12.0797 128.533 12.4071 127.866 12.5397C127.199 12.6723 126.508 12.6043 125.88 12.3441C125.252 12.0839 124.715 11.6433 124.337 11.078C123.96 10.5128 123.758 9.84816 123.758 9.16829C123.758 8.25662 124.12 7.38229 124.765 6.73765C125.41 6.093 126.284 5.73083 127.196 5.73083ZM133.883 15.2182H139.57V17.8307H139.645C140.215 16.8576 141.038 16.0568 142.026 15.5133C143.014 14.9697 144.131 14.7036 145.258 14.7432C151.27 14.7432 152.37 18.6932 152.37 23.8306V34.3055H146.445V25.0181C146.445 22.8056 146.445 20.0182 143.358 20.0182C140.27 20.0182 139.795 22.4306 139.795 24.9181V34.3555H133.87L133.883 15.2182Z"/>
</svg>
