<svg width="100" height="41" viewBox="0 0 201 41" xmlns="http://www.w3.org/2000/svg">
<g clip-path="url(#clip0_651_111)">
<path d="M6.66992 26.665C6.66992 28.9458 7.17852 30.6969 7.84297 31.7562C8.71406 33.1438 10.0137 33.7319 11.3391 33.7319C13.0477 33.7319 14.6109 33.3142 17.6234 29.2115C20.0371 25.9231 22.8813 21.3077 24.7945 18.4142L28.0348 13.5119C30.2859 10.1073 32.8914 6.32269 35.8785 3.75731C38.318 1.66308 40.9488 0.5 43.5965 0.5C48.0418 0.5 52.2762 3.03615 55.5164 7.79308C59.0629 13.0031 60.7844 19.565 60.7844 26.3369C60.7844 30.3627 59.9785 33.3204 58.607 35.6573C57.282 37.9173 54.7 40.1754 50.3559 40.1754V33.7319C54.0754 33.7319 55.0035 30.3665 55.0035 26.5154C55.0035 21.0273 53.7039 14.9369 50.841 10.585C48.8098 7.49808 46.177 5.61192 43.2801 5.61192C40.1473 5.61192 37.6262 7.93885 34.7926 12.0869C33.2863 14.2908 31.7398 16.9765 30.0035 20.0073L28.0922 23.3415C24.2523 30.0446 23.2797 31.5715 21.3602 34.0912C17.9953 38.5031 15.1219 40.1758 11.3391 40.1758C6.85156 40.1758 4.01406 38.2623 2.25703 35.3792C0.821484 33.0296 0.117188 29.9469 0.117188 26.4346L6.66992 26.665Z"/>
<path d="M5.28394 8.24808C8.28784 3.68846 12.6238 0.5 17.596 0.5C20.4757 0.5 23.3386 1.33923 26.3281 3.74231C29.598 6.37039 33.0835 10.6973 37.4316 17.8285L38.9902 20.3877C42.7542 26.5612 44.8957 29.7373 46.1488 31.235C47.7605 33.1585 48.8894 33.7319 50.3558 33.7319C54.0749 33.7319 55.0031 30.3665 55.0031 26.5154L60.7839 26.3369C60.7839 30.3627 59.9781 33.3204 58.6066 35.6573C57.2816 37.9173 54.6996 40.1754 50.3554 40.1754C47.655 40.1754 45.2628 39.5981 42.6171 37.1408C40.5835 35.2546 38.2058 31.9038 36.3765 28.8919L30.9359 19.9431C28.2054 15.4519 25.7015 12.1035 24.2523 10.5869C22.6929 8.95615 20.689 6.98692 17.4906 6.98692C14.9019 6.98692 12.7035 8.77577 10.864 11.5115L5.28394 8.24808Z"/>
<path d="M17.4906 6.98731C14.902 6.98731 12.7035 8.77577 10.8641 11.5115C8.2625 15.3769 6.66992 21.1354 6.66992 26.665C6.66992 28.9458 7.17852 30.6969 7.84297 31.7562L2.25625 35.3792C0.821875 33.0296 0.117188 29.9469 0.117188 26.4346C0.117188 20.0469 1.89766 13.3892 5.28398 8.24808C8.28789 3.68846 12.6238 0.5 17.5961 0.5L17.4906 6.98731Z"/>
<path d="M73.5222 1.75464H81.1023L93.9906 24.7123L106.881 1.75464H114.296V39.4777H108.113V10.5662L96.8089 30.5869H91.0078L79.7062 10.5662V39.4777H73.5226L73.5222 1.75464ZM133.672 15.82C129.237 15.82 126.566 19.1058 125.927 23.1754H140.978C140.668 18.9831 138.212 15.82 133.672 15.82ZM119.797 25.4931C119.797 16.9308 125.417 10.6989 133.78 10.6989C142.005 10.6989 146.916 16.8516 146.916 25.95V27.6223H125.927C126.672 32.0489 129.655 35.0319 134.465 35.0319C138.303 35.0319 140.702 33.8789 142.976 31.7704L146.261 35.7319C143.166 38.5339 139.229 40.15 134.246 40.15C125.193 40.15 119.796 33.6504 119.796 25.4931M154.414 16.3593H148.723V11.3743H154.415V3.12964H160.381V11.3743H169.028V16.3596H160.381V28.9962C160.381 33.3104 161.782 34.8435 165.225 34.8435C166.796 34.8435 167.697 34.7104 169.028 34.4923V39.4239C167.37 39.885 165.788 40.0969 164.075 40.0969C157.634 40.0969 154.415 36.6319 154.415 29.6962L154.414 16.3593ZM194.15 21.2077C192.952 18.2289 190.279 16.0354 186.351 16.0354C181.245 16.0354 177.978 19.6019 177.978 25.4123C177.978 31.0766 180.986 34.8158 186.106 34.8158C190.132 34.8158 193.005 32.51 194.15 29.6412V21.2077ZM200.117 39.4769H194.26V35.5431C192.623 37.8593 189.644 40.1508 184.819 40.1508C177.06 40.1508 171.874 33.7546 171.874 25.4123C171.874 16.9912 177.184 10.6993 185.148 10.6993C189.085 10.6993 192.174 12.2493 194.26 14.9846V11.3743H200.117L200.117 39.4769Z"/>
</g>
<defs>
<clipPath id="clip0_651_111">
<rect width="200" height="40" transform="translate(0.117188 0.5)"/>
</clipPath>
</defs>
</svg>
