<svg viewBox="0 0 187 41" xmlns="http://www.w3.org/2000/svg">
<g clip-path="url(#clip0_314_91)">
<path d="M186.883 18.4815V15.207H182.821V10.1168L182.684 10.1586L178.868 11.3273L178.794 11.3502V15.207H172.772V13.0586C172.772 12.0582 172.995 11.2924 173.436 10.7822C173.873 10.2775 174.499 10.0211 175.296 10.0211C175.87 10.0211 176.464 10.1564 177.062 10.423L177.212 10.4899V7.04187L177.141 7.01642C176.583 6.81533 175.825 6.7146 174.885 6.7146C173.7 6.7146 172.624 6.97242 171.685 7.48405C170.746 7.99569 170.006 8.72733 169.489 9.65714C168.973 10.5859 168.711 11.6582 168.711 12.8451V15.2073H165.883V18.4819H168.711V32.2757H172.772V18.4815H178.794V27.2473C178.794 30.8575 180.495 32.6873 183.85 32.6873C184.43 32.6839 185.008 32.6196 185.574 32.4953C186.177 32.3655 186.587 32.2357 186.829 32.0971L186.883 32.0655V28.7608L186.718 28.8702C186.497 29.0175 186.223 29.1375 185.901 29.2266C185.578 29.3175 185.308 29.3633 185.099 29.3633C184.313 29.3633 183.732 29.1513 183.371 28.7328C183.006 28.311 182.821 27.5724 182.821 26.5397V18.4815H186.883ZM156.815 29.3637C155.341 29.3637 154.179 28.8742 153.36 27.911C152.536 26.9422 152.119 25.5619 152.119 23.8073C152.119 21.9975 152.536 20.5811 153.361 19.5953C154.18 18.6164 155.331 18.1193 156.782 18.1193C158.189 18.1193 159.31 18.5939 160.113 19.531C160.92 20.4724 161.329 21.8775 161.329 23.7084C161.329 25.5619 160.944 26.9859 160.185 27.9382C159.431 28.8837 158.297 29.3637 156.815 29.3637ZM156.996 14.7957C154.184 14.7957 151.95 15.6204 150.359 17.247C148.767 18.8739 147.96 21.1248 147.96 23.9386C147.96 26.611 148.748 28.7604 150.301 30.3266C151.855 31.8928 153.969 32.6866 156.584 32.6866C159.31 32.6866 161.499 31.8506 163.09 30.2015C164.682 28.5542 165.488 26.3244 165.488 23.5761C165.488 20.8622 164.731 18.6968 163.239 17.1411C161.745 15.5848 159.644 14.7957 156.996 14.7957ZM141.413 14.7957C139.5 14.7957 137.918 15.2855 136.71 16.251C135.494 17.2222 134.877 18.4964 134.877 20.0379C134.877 20.839 135.01 21.5506 135.273 22.1542C135.536 22.7601 135.944 23.2931 136.486 23.7408C137.024 24.1848 137.854 24.6499 138.954 25.1226C139.879 25.5037 140.568 25.8262 141.007 26.0801C141.435 26.3291 141.739 26.5793 141.91 26.823C142.077 27.0611 142.162 27.3877 142.162 27.7902C142.162 28.9371 141.304 29.495 139.539 29.495C138.884 29.495 138.137 29.3582 137.319 29.0884C136.507 28.8224 135.74 28.4333 135.046 27.9346L134.877 27.8139V31.7266L134.939 31.7557C135.514 32.0211 136.238 32.2448 137.092 32.4211C137.944 32.5971 138.718 32.687 139.391 32.687C141.466 32.687 143.138 32.195 144.357 31.2237C145.585 30.2455 146.207 28.9419 146.207 27.3466C146.207 26.1964 145.872 25.2095 145.211 24.4139C144.556 23.6248 143.418 22.9001 141.832 22.2597C140.567 21.7517 139.757 21.3302 139.423 21.0066C139.101 20.6939 138.938 20.2517 138.938 19.6921C138.938 19.1953 139.14 18.7979 139.554 18.4757C139.972 18.1521 140.553 17.9873 141.282 17.9873C141.959 17.9873 142.651 18.0942 143.339 18.3037C144.027 18.5135 144.631 18.7946 145.136 19.1379L145.301 19.2513V15.5393L145.238 15.5121C144.773 15.3121 144.159 15.1411 143.414 15.003C142.672 14.8655 141.998 14.7957 141.413 14.7957ZM124.292 29.3637C122.818 29.3637 121.656 28.8742 120.837 27.911C120.013 26.9422 119.597 25.5619 119.597 23.8073C119.597 21.9975 120.014 20.5811 120.838 19.5953C121.657 18.6164 122.807 18.1193 124.259 18.1193C125.667 18.1193 126.787 18.5939 127.59 19.531C128.397 20.4724 128.807 21.8775 128.807 23.7084C128.807 25.5619 128.421 26.9859 127.662 27.9382C126.908 28.8837 125.775 29.3637 124.292 29.3637ZM124.473 14.7957C121.66 14.7957 119.427 15.6204 117.836 17.247C116.245 18.8739 115.437 21.1248 115.437 23.9386C115.437 26.6121 116.225 28.7604 117.778 30.3266C119.331 31.8928 121.446 32.6866 124.062 32.6866C126.786 32.6866 128.976 31.8506 130.568 30.2015C132.159 28.5542 132.966 26.3244 132.966 23.5761C132.966 20.8622 132.209 18.6968 130.716 17.1411C129.221 15.5848 127.121 14.7957 124.473 14.7957ZM109.273 18.163V15.207H105.262V32.275H109.273V23.5437C109.273 22.059 109.609 20.8393 110.273 19.9182C110.928 19.0081 111.801 18.5466 112.867 18.5466C113.228 18.5466 113.634 18.6062 114.073 18.7244C114.508 18.8415 114.823 18.9688 115.008 19.1026L115.177 19.2251V15.1779L115.112 15.1499C114.738 14.991 114.21 14.911 113.541 14.911C112.533 14.911 111.631 15.235 110.859 15.8731C110.181 16.4342 109.69 17.2037 109.316 18.163H109.273ZM98.0795 14.7957C96.2395 14.7957 94.5978 15.191 93.2017 15.9695C91.8031 16.7495 90.7208 17.8641 89.9848 19.2804C89.2521 20.6939 88.8801 22.3448 88.8801 24.1859C88.8801 25.7982 89.2408 27.2782 89.9536 28.5822C90.6671 29.8888 91.677 30.911 92.955 31.6201C94.2316 32.3281 95.7069 32.687 97.3398 32.687C99.246 32.687 100.873 32.3055 102.179 31.5535L102.231 31.523V27.8448L102.063 27.9681C101.462 28.4034 100.801 28.748 100.1 28.9906C99.3913 29.2382 98.7454 29.3633 98.1786 29.3633C96.6046 29.3633 95.3414 28.8706 94.4241 27.899C93.505 26.9255 93.0389 25.5593 93.0389 23.8397C93.0389 22.1095 93.525 20.7081 94.4826 19.6735C95.4377 18.6426 96.7034 18.1197 98.2448 18.1197C99.5631 18.1197 100.848 18.5666 102.063 19.4491L102.231 19.5713V15.6957L102.177 15.6651C101.719 15.4088 101.096 15.1971 100.321 15.0368C99.5504 14.8768 98.7962 14.7957 98.0795 14.7957ZM86.1177 15.207H82.1064V32.275H86.1177V15.207ZM84.1531 7.93605C83.493 7.93605 82.9172 8.16114 82.4442 8.6066C81.969 9.05387 81.7278 9.61678 81.7278 10.2808C81.7278 10.9346 81.9661 11.487 82.4362 11.9222C82.9038 12.3561 83.4814 12.5761 84.1531 12.5761C84.8244 12.5761 85.4042 12.3561 85.8772 11.923C86.3531 11.487 86.5947 10.9346 86.5947 10.2808C86.5947 9.64005 86.3597 9.0826 85.8968 8.62478C85.4344 8.16769 84.8473 7.93605 84.1531 7.93605ZM74.1454 13.9481V32.2746H78.2389V8.4586H72.5735L65.3722 26.1484L58.3841 8.4586H52.488V32.275H56.3348V13.9462H56.4671L63.8464 32.275H66.749L74.0132 13.9477L74.1454 13.9481Z"/>
<path d="M19.7513 19.3869H0.882812V0.5H19.7513V19.3869Z"/>
<path d="M40.5848 19.3869H21.7163V0.5H40.5848V19.3869Z"/>
<path d="M19.7509 40.248H0.882812V21.3611H19.7509V40.248Z"/>
<path d="M40.5848 40.248H21.7163V21.3611H40.5848V40.248Z"/>
</g>
<defs>
<clipPath id="clip0_314_91">
<rect width="186" height="40" transform="translate(0.882812 0.5)"/>
</clipPath>
</defs>
</svg>
