<svg width="100" height="26" viewBox="0 0 100 26" xmlns="http://www.w3.org/2000/svg">
<path fill="none" d="M87.4 1H13C6.37258 1 1 6.37258 1 13C1 19.6274 6.37258 25 13 25H87.4C94.0274 25 99.4 19.6274 99.4 13C99.4 6.37258 94.0274 1 87.4 1Z" stroke="#2C4755" stroke-width="0.5" stroke-linecap="round" stroke-linejoin="round" fill="none"/>
<path fill="none" d="M13 19.2667V6.67871L22.5328 19.2667V6.67871" stroke="#2C4755" stroke-width="0.5" stroke-linecap="round" stroke-linejoin="round"/>
<path fill="none" d="M26.6899 8.9291C27.684 8.9291 28.4899 8.12321 28.4899 7.1291C28.4899 6.13499 27.684 5.3291 26.6899 5.3291C25.6958 5.3291 24.8899 6.13499 24.8899 7.1291C24.8899 8.12321 25.6958 8.9291 26.6899 8.9291Z"/>
<path fill="none" d="M26.6899 11.5339V19.2667M42.7675 8.56751V19.2667M40.8787 11.5339H44.6563M65.5723 19.2667V15.1315C65.5723 13.1443 63.9619 11.5339 61.9747 11.5339C59.9875 11.5339 58.3771 13.1443 58.3771 15.1315M58.3771 19.2667V11.5339M38.0083 19.2667V15.1315C38.0083 13.1443 36.4003 11.5339 34.4131 11.5339C32.4259 11.5339 30.8155 13.1443 30.8155 15.1315M30.8155 19.2667V11.5339M53.1523 18.6019C52.543 19.0346 51.8141 19.267 51.0667 19.2667C50.1136 19.2654 49.1999 18.8863 48.526 18.2123C47.852 17.5383 47.4728 16.6246 47.4715 15.6715V15.1315C47.4715 13.1443 49.0795 11.5339 51.0667 11.5339C53.0539 11.5339 54.6643 13.1443 54.6643 15.1315V15.4003H47.4715M76.5115 15.1315C76.5115 13.1443 74.9011 11.5339 72.9139 11.5339C70.9267 11.5339 69.3163 13.1443 69.3163 15.1315V15.6715C69.3163 17.6563 70.9267 19.2667 72.9163 19.2667C74.9011 19.2667 76.5115 17.6587 76.5115 15.6715M76.5115 19.2667V6.67871M80.2075 15.1315C80.2318 14.1938 80.6213 13.3026 81.2931 12.6479C81.9649 11.9932 82.8659 11.6268 83.8039 11.6268C84.742 11.6268 85.643 11.9932 86.3148 12.6479C86.9866 13.3026 87.3761 14.1938 87.4003 15.1315V15.6715C87.3761 16.6093 86.9866 17.5004 86.3148 18.1551C85.643 18.8098 84.742 19.1762 83.8039 19.1762C82.8659 19.1762 81.9649 18.8098 81.2931 18.1551C80.6213 17.5004 80.2318 16.6093 80.2075 15.6715V15.1315Z" stroke="#2C4755" stroke-width="0.5" stroke-linecap="round" stroke-linejoin="round"/>
</svg>
