<svg viewBox="0 0 117 41" xmlns="http://www.w3.org/2000/svg">
<path d="M21.2685 0.5C9.62462 0.5 0.187012 9.45223 0.187012 20.5018C0.187012 31.2272 9.08701 39.9795 20.2663 40.4757C20.6001 40.4907 20.9342 40.4988 21.2685 40.5C26.6682 40.5 31.5896 38.5756 35.3187 35.4102C32.7923 37.0107 29.8633 37.861 26.8726 37.8623C21.8494 37.8623 17.3539 35.4984 14.3317 31.7693C11.9993 29.1595 10.49 25.2999 10.3847 20.9737V20.0272C10.49 15.6965 11.9993 11.8377 14.3281 9.22799C17.353 5.50248 21.8494 3.14217 26.8726 3.14217C29.9614 3.14217 32.8494 4.0319 35.3223 5.58713C31.6076 2.43795 26.7177 0.520712 21.3496 0.5H21.2685Z"/>
<path d="M14.0417 9.22486C15.9761 7.05818 18.4742 5.7497 21.2037 5.7497C27.3427 5.7497 32.3163 12.3524 32.3163 20.4996C32.3163 28.6395 27.3391 35.2422 21.2037 35.2422C18.4742 35.2422 15.9761 33.9374 14.0417 31.7707C17.063 35.4998 21.5594 37.8601 26.5826 37.8601C29.5734 37.8593 32.5025 37.0089 35.0287 35.4079C39.345 31.7464 42.0646 26.4269 42.0646 20.4996C42.0646 14.5722 39.345 9.25008 35.0323 5.5876C32.5053 3.98588 29.5745 3.1366 26.5826 3.13904C21.563 3.13904 17.0639 5.49935 14.0417 9.22486Z"/>
<path d="M76.3083 26.0445C73.649 26.0445 71.4859 23.786 71.4859 21.0141C71.4859 18.2423 73.649 15.9838 76.3083 15.9838C78.9676 15.9838 81.128 18.2459 81.128 21.0141C81.128 23.7824 78.9649 26.0445 76.3083 26.0445ZM76.3083 14.5942C75.4349 14.5897 74.5715 14.7808 73.7814 15.1534C72.9914 15.5259 72.2948 16.0706 71.7426 16.7474V14.8869H70.2585V31.0929H71.7426V25.2782C72.2933 25.9571 72.9895 26.5037 73.7797 26.8775C74.57 27.2512 75.4341 27.4427 76.3083 27.4377C79.7772 27.4377 82.5977 24.5569 82.5977 21.0141C82.5977 17.4714 79.7763 14.5942 76.3083 14.5942ZM59.7502 26.4318C55.5645 26.4318 52.1587 23.016 52.1587 18.8195C52.1587 14.623 55.5636 11.2073 59.7502 11.2073C63.9368 11.2073 67.3417 14.623 67.3417 18.8195C67.3417 23.016 63.9368 26.4318 59.7502 26.4318ZM59.7502 9.86011C54.7828 9.86011 50.7412 13.8774 50.7412 18.8195C50.7412 23.7617 54.7828 27.779 59.7502 27.779C64.7175 27.779 68.7591 23.7581 68.7591 18.8195C68.7591 13.881 64.7175 9.86011 59.7502 9.86011ZM103.402 14.6438C102.898 14.6625 102.403 14.7897 101.953 15.0166C101.003 15.4984 100.345 16.2305 99.9231 17.1662L99.8915 17.2364L99.8771 14.9643H98.3894V27.1036H99.8807V20.7332C99.8807 19.8362 100.028 19.1077 100.338 18.4008C100.623 17.7434 101.024 17.159 101.597 16.6943C101.916 16.4224 102.29 16.2231 102.693 16.11C103.096 15.997 103.52 15.9729 103.933 16.0396L104.365 16.1242C104.45 15.7199 104.654 15.2057 104.738 14.8014C104.302 14.6868 103.852 14.6344 103.402 14.6438ZM90.2207 16.0018C92.8484 16.0018 94.6846 17.6867 94.9944 20.255H85.465C85.8234 17.8524 87.8181 16.0018 90.2207 16.0018ZM90.2207 14.6122C86.7518 14.6122 83.9313 17.4967 83.9313 21.0358C83.9313 24.5749 86.7527 27.4557 90.2207 27.4557C92.7044 27.4557 94.8539 25.9851 95.8769 23.8499L94.5964 23.1394C93.8291 24.8666 92.1586 26.0625 90.2207 26.0625C87.7091 26.0625 85.6442 24.0471 85.4226 21.486H96.4965L96.5145 21.0358C96.5145 17.2508 93.9246 14.6122 90.2207 14.6122ZM110.711 26.0445C108.052 26.0445 105.889 23.786 105.889 21.0141C105.889 18.2423 108.052 15.9838 110.711 15.9838C113.371 15.9838 115.534 18.2459 115.534 21.0141C115.534 23.7824 113.371 26.0445 110.711 26.0445ZM115.277 14.886V16.7465C114.725 16.0697 114.028 15.525 113.238 15.1524C112.448 14.7799 111.585 14.5888 110.711 14.5933C107.243 14.5933 104.422 17.4741 104.422 21.0132C104.422 24.5523 107.244 27.4368 110.711 27.4368C111.586 27.4411 112.449 27.2494 113.24 26.8757C114.03 26.5019 114.726 25.9557 115.277 25.2773V27.1063H116.762V14.886H115.277Z"/>
</svg>
