<svg width="130" height="24" viewBox="0 0 130 24" xmlns="http://www.w3.org/2000/svg">
<path d="M35.0875 6.88817C35.259 6.88831 35.4235 6.95688 35.5448 7.07882C35.6661 7.20077 35.7343 7.36612 35.7344 7.53858V19.9638C35.7344 20.3141 35.4193 20.5976 35.0875 20.5976H33.4117C33.0969 20.5976 32.7815 20.3475 32.7815 19.9973V18.8466C31.9355 20.0973 30.4755 20.9647 28.3521 20.9647C24.8018 20.9647 22.6118 18.5962 22.6118 15.0772V7.50514C22.6118 7.15492 22.9272 6.87133 23.259 6.87133H24.9346C25.0174 6.87123 25.0994 6.88755 25.1759 6.91937C25.2525 6.95118 25.322 6.99787 25.3806 7.05674C25.4391 7.11562 25.4856 7.18553 25.5172 7.26247C25.5489 7.33941 25.5651 7.42188 25.565 7.50514V14.5937C25.565 16.8783 26.7594 18.396 29.1151 18.396C31.4211 18.396 32.7815 16.8285 32.7815 14.6269V7.50514C32.7815 7.15492 33.0966 6.87133 33.412 6.87133H35.0875M10.3687 0C4.62845 0 0 4.48644 0 10.4741C0 16.478 4.6287 20.9479 10.3687 20.9479C11.3217 20.9491 12.2705 20.82 13.1889 20.5642L14.317 23.4831C14.4333 23.7999 14.6653 24 15.0802 24H16.8718C17.3034 24 17.6183 23.7167 17.4192 23.1661L15.9592 19.3469C18.8296 17.5287 20.7375 14.3098 20.7375 10.4572C20.7372 4.48669 16.1085 0 10.3687 0ZM14.8812 16.5615L13.5705 13.1425C13.4545 12.8589 13.2221 12.5922 12.7245 12.5922H11.0157C10.5843 12.5922 10.2525 12.8755 10.4515 13.4261L12.1768 17.9126C11.6129 18.0627 10.9989 18.1293 10.3687 18.1293C6.17143 18.1293 3.18525 14.8104 3.18525 10.4741C3.18525 6.13771 6.17118 2.81883 10.3687 2.81883C14.5658 2.81883 17.552 6.13771 17.552 10.4741C17.552 13.009 16.5404 15.1772 14.8812 16.5615ZM129.948 19.8975C130.098 20.2477 129.915 20.5813 129.501 20.5813H127.626C127.277 20.5813 126.995 20.4144 126.879 20.0642L123.412 10.691L119.895 20.0642C119.746 20.4312 119.497 20.5813 119.149 20.5813H117.473C117.124 20.5813 116.876 20.4312 116.726 20.0642L113.176 10.6407L109.675 20.0639C109.526 20.4141 109.277 20.5811 108.929 20.5811H107.17C106.822 20.5811 106.573 20.4141 106.424 20.0639L102.956 10.6407L99.3728 20.0639C99.2235 20.431 98.9747 20.5811 98.6264 20.5811H96.9506C96.6022 20.5811 96.3534 20.431 96.2041 20.0639L92.7037 10.6407L89.2032 20.0639C89.0871 20.4141 88.805 20.5811 88.4567 20.5811H86.6318C86.2005 20.5811 86.0347 20.2308 86.184 19.897L90.9287 7.42192C91.078 7.05486 91.3268 6.87133 91.6752 6.87133H93.7156C94.0642 6.87133 94.313 7.03827 94.462 7.42192L97.8796 16.528L101.264 7.42192C101.413 7.05486 101.662 6.87133 102.011 6.87133H104.018C104.366 6.87133 104.615 7.03827 104.765 7.42192L108.116 16.528L111.467 7.42192C111.616 7.05486 111.865 6.87133 112.213 6.87133H114.237C114.586 6.87133 114.834 7.03827 114.984 7.42192L118.385 16.528L121.703 7.42192C121.852 7.05486 122.101 6.87133 122.449 6.87133H124.49C124.838 6.87133 125.087 7.03827 125.236 7.42192L129.948 19.8975ZM51.3291 6.88843H49.6535C49.482 6.88857 49.3175 6.95713 49.1962 7.07908C49.0749 7.20102 49.0067 7.36638 49.0066 7.53883V8.67295C48.1606 7.38874 46.5016 6.47134 44.5439 6.47134C40.8445 6.47134 37.6758 9.40682 37.6758 13.6931C37.6758 18.0295 40.861 20.9481 44.5274 20.9481C46.5181 20.9481 48.1273 20.031 49.0231 18.7468V19.9475C49.0231 20.2977 49.3384 20.5813 49.6703 20.5813H51.3458C51.4286 20.5814 51.5107 20.5651 51.5872 20.5333C51.6637 20.5015 51.7333 20.4548 51.7918 20.3959C51.8504 20.337 51.8968 20.2671 51.9285 20.1902C51.9601 20.1132 51.9764 20.0308 51.9763 19.9475V7.53858C51.9595 7.17177 51.6777 6.88843 51.3291 6.88843ZM44.8588 18.2128C42.4203 18.2128 40.6782 16.2115 40.6782 13.7263C40.6782 11.2079 42.4035 9.27306 44.8588 9.27306C47.281 9.27306 49.0396 11.2079 49.0396 13.7263C49.0228 16.2279 47.2645 18.2128 44.8588 18.2128ZM71.3196 18.6462C71.6847 19.0967 71.3693 19.4469 71.1703 19.597C70.0092 20.481 68.4662 20.9647 66.7906 20.9647C62.5603 20.9647 59.7399 17.8457 59.7399 13.7429C59.7399 9.64013 62.5603 6.48793 66.7906 6.48793C68.4664 6.48793 69.9924 6.97164 71.1705 7.85535C71.3693 8.0057 71.6514 8.30589 71.3196 8.80619L70.5233 9.92346C70.2082 10.3574 69.8431 10.2405 69.528 10.0404C68.7815 9.5901 67.9022 9.20644 66.8902 9.20644C64.4184 9.20644 62.7759 11.2077 62.7759 13.7429C62.7759 16.2781 64.4184 18.2628 66.8902 18.2628C67.9187 18.2628 68.7318 17.8625 69.4782 17.4289C69.7933 17.2619 70.1252 17.1118 70.4735 17.5789L71.3196 18.6462ZM79.2165 6.50452C75.2348 6.50452 72.0663 9.64013 72.0663 13.7263C72.0663 17.8457 75.2515 20.9479 79.2163 20.9479C83.198 20.9479 86.3668 17.8291 86.3668 13.7263C86.3833 9.65672 83.198 6.50452 79.2165 6.50452ZM79.2165 18.1959C76.7778 18.1959 75.0357 16.2279 75.0357 13.7429C75.0357 11.2245 76.761 9.28991 79.2165 9.28991C81.655 9.28991 83.3971 11.2245 83.3971 13.7429C83.3971 16.2279 81.6718 18.1959 79.2165 18.1959ZM57.2016 0.366808C57.5668 0.366808 57.8321 0.68384 57.8321 1.01746V19.9307C57.8321 20.2809 57.5833 20.5811 57.2016 20.5811H55.5261C55.1778 20.5811 54.8792 20.264 54.8792 19.9307V1.0338C54.8792 0.683585 55.1943 0.3834 55.5261 0.3834H57.2019"/>
</svg>
