<svg width="87" height="24" viewBox="0 0 87 24" xmlns="http://www.w3.org/2000/svg">
<path d="M12.3872 18.7141C11.5529 17.0775 10.5741 15.4243 8.66486 15.4243C8.29987 15.4243 7.93538 15.4845 7.60081 15.6367L6.95221 14.3428C7.74252 13.6671 9.01983 13.1312 10.6615 13.1312C13.2154 13.1312 14.526 14.3574 15.5666 15.9224C16.1843 14.5862 16.4779 12.7817 16.4779 10.545C16.4779 4.9595 14.7253 2.09141 10.6314 2.09141C6.59724 2.09141 4.85418 4.9595 4.85418 10.545C4.85418 16.1011 6.59724 18.9396 10.6315 18.9396C11.2727 18.9396 11.8533 18.8693 12.3872 18.7141ZM13.3872 20.6635C12.5029 20.8997 11.5632 21.0301 10.6314 21.0301C5.25961 21.0301 0 16.758 0 10.5451C0 4.27292 5.25961 0 10.6314 0C16.0934 0 21.3025 4.24244 21.3025 10.545C21.3025 14.0507 19.6611 16.8996 17.2757 18.7411C18.0465 19.892 18.84 20.6565 19.9448 20.6565C21.1506 20.6565 21.6369 19.7278 21.7183 18.9993H23.2887C23.3805 19.9693 22.8937 24 18.5049 24C15.8466 24 14.4412 22.4644 13.3872 20.6635ZM24.756 15.3337V8.15124C24.756 7.33323 24.4527 6.96996 23.5101 6.96996H22.5066V5.06129H29.0634V15.2431C29.0634 16.9596 29.9956 17.7165 31.4151 17.7165C32.5799 17.7165 33.7453 17.2028 34.3738 16.03V8.15124C34.3738 7.33307 34.0696 6.96979 33.1276 6.96979H32.0635V5.06112H38.6817V15.7267C38.6817 16.7889 39.0766 17.2731 40.2925 17.2731H40.5056V19.2427L34.5871 20.1818V18.1519H34.4652C33.3203 19.5448 31.7091 20.4848 29.4083 20.4848C26.8238 20.4848 24.7558 19.1824 24.7558 15.3337M49.1137 18.5763C51.4449 18.5763 52.3305 16.555 52.3771 12.4851C52.4223 8.50418 51.4449 6.57705 49.1137 6.57705C47.077 6.57705 45.7999 8.5052 45.7999 12.4851C45.7999 16.5558 47.0561 18.5763 49.1137 18.5763ZM49.1137 20.4848C44.898 20.4848 41.0966 17.2721 41.0966 12.4851C41.0966 7.78796 44.8064 4.66685 49.1136 4.66685C53.6034 4.66685 57.2012 7.84792 57.2012 12.4851C57.2012 17.2721 53.6034 20.4848 49.1137 20.4848ZM57.337 20.1816V18.2728H57.9755C59.5568 18.2728 59.7087 17.8184 59.7087 16.4549V8.15124C59.7087 7.33323 59.2831 6.96996 58.3105 6.96996H57.4591V5.06129H63.4683L63.7724 8.18257H63.8946C64.5636 5.93924 66.3571 4.75746 68.039 4.75746C69.4273 4.75746 70.5114 5.54565 70.5114 7.14203C70.5114 8.25285 69.9755 9.43515 68.4752 9.43515C67.1267 9.43515 66.864 8.52552 65.7486 8.52552C64.756 8.52552 63.9852 9.46546 63.9852 10.8484V16.4549C63.9852 17.8182 64.3199 18.2728 65.8708 18.2728H66.7522V20.1816H57.337ZM77.3419 17.9596C79.2577 17.9596 80.0476 16.1517 80.0476 14.3347V11.9095C78.6495 13.3531 75.3957 13.4039 75.3957 15.9797C75.3957 17.2422 76.1464 17.9596 77.3418 17.9596M80.1392 17.9493C79.3484 19.4642 77.7263 20.4846 75.4568 20.4846C72.822 20.4846 71.1194 19.09 71.1194 16.6361C71.1194 11.6978 78.0206 13.0101 80.0475 9.73813V9.38417C80.0475 6.86953 79.0543 6.47577 77.9598 6.47577C74.8891 6.47577 76.2872 9.76692 73.4597 9.76692C72.102 9.76692 71.5748 8.9501 71.5748 8.03099C71.5748 6.17228 73.8047 4.66702 77.9907 4.66702C81.9523 4.66702 84.3852 5.7582 84.3852 9.68766V15.9599C84.3852 16.9293 84.7402 17.4553 85.5915 17.4553C85.956 17.4553 86.26 17.3542 86.4928 17.1925L87 18.4237C86.5842 19.0607 85.4792 20.1818 83.3812 20.1818C81.5577 20.1818 80.4123 19.3333 80.26 17.9495L80.1392 17.9493Z"/>
</svg>
