<svg width="109" height="24" viewBox="0 0 109 24" xmlns="http://www.w3.org/2000/svg">
<path d="M95.827 6.62877C97.3883 6.62877 98.654 5.36872 98.654 3.81438C98.654 2.26004 97.3883 1 95.827 1C94.2657 1 93 2.26004 93 3.81438C93 5.36872 94.2657 6.62877 95.827 6.62877Z"/>
<path d="M71.7341 0.000253229C72.5839 0.000253229 73.2845 0.66827 73.3315 1.50317L73.3341 1.59331V22.0618C73.3341 22.938 72.6142 23.6546 71.7341 23.6546C70.9611 23.6546 70.2942 23.0975 70.1609 22.3535C69.0679 23.4424 67.6808 24 66.0539 24C61.8406 24 58.4273 20.2033 58.4273 15.531C58.4273 10.8584 61.8408 7.06179 66.0539 7.06179C67.6182 7.06179 68.9358 7.55305 70.0072 8.55837L70.1344 8.68169V1.59306C70.1344 0.71689 70.8543 0.000253229 71.7344 0.000253229M88.4283 0.000253229C89.2782 0.000253229 89.9784 0.66827 90.0258 1.50317L90.0283 1.59331V22.0618C90.0283 22.938 89.3084 23.6546 88.4283 23.6546C87.6548 23.6546 86.9881 23.0975 86.8551 22.3535C85.7613 23.4424 84.375 24 82.7481 24C78.5348 24 75.1215 20.2033 75.1215 15.531C75.1215 10.8584 78.5351 7.06179 82.7481 7.06179C84.3125 7.06179 85.6301 7.55305 86.701 8.55837L86.8281 8.68169V1.59306C86.8281 0.716637 87.5485 0 88.4281 0M49.7603 7.03495C53.3074 7.03495 56.2939 9.74348 57.147 13.4069L57.176 13.5601C57.2193 13.804 57.259 14.1142 57.2803 14.5485C57.3322 15.528 56.5801 16.532 55.2678 16.5903L55.147 16.5928V16.5396H45.4137C45.8138 18.9554 47.6272 20.7873 49.7603 20.7873C51.5739 20.7873 52.6939 19.7787 53.2807 19.274C53.8937 18.7698 54.7204 18.6105 55.3871 19.0618C56.1873 19.6194 56.3206 20.761 55.6542 21.5044C54.2941 23.0177 52.4008 23.9734 49.7603 23.9734C45.547 23.9734 42.1334 20.1768 42.1334 15.5042C42.1334 10.8316 45.547 7.03495 49.7603 7.03495ZM103.642 3.52849L103.735 3.53127C104.558 3.58243 105.182 4.27526 105.226 5.0866L105.228 5.17726V7.40744H106.695C107.496 7.40744 108.162 8.09749 108.108 8.92023C108.057 9.66067 107.439 10.2049 106.728 10.2456L106.642 10.2482H105.228V22.0886C105.228 22.9645 104.536 23.6548 103.602 23.7078C102.752 23.7078 102.052 23.0398 102.004 22.2054L102.002 22.1152V10.2745H100.642C99.842 10.2745 99.1748 9.5842 99.2284 8.76121C99.2798 8.02076 99.8979 7.47683 100.609 7.43606L100.695 7.43353H102.028V5.12408C102.028 4.22563 102.751 3.52621 103.642 3.52824M40.96 7.14155C41.7068 7.27425 42.2934 7.91137 42.2934 8.70777C42.2934 9.50139 41.6982 10.1714 40.9384 10.2664L40.8532 10.2745H40.5332C37.4874 9.93441 35.2691 12.2973 35.2017 15.2079L35.1999 15.3446V22.0615C35.1999 22.9909 34.4266 23.7075 33.4931 23.6543C32.67 23.6037 32.0458 22.9109 32.0025 22.0995L32 22.0084V8.99975C32 8.12383 32.7199 7.40719 33.6 7.40719C34.3722 7.40719 35.145 7.9762 35.1974 8.89947L35.2002 8.99975V9.21246C36.4534 7.64573 38.6399 6.79666 40.9603 7.14155M95.5218 8.81413C96.3714 8.81413 97.0717 9.48215 97.119 10.317L97.1215 10.4072V22.0615C97.1215 22.938 96.4017 23.6543 95.5218 23.6543C94.6717 23.6543 93.9715 22.9866 93.9244 22.1517L93.9219 22.0615V10.4072C93.9219 9.53077 94.6417 8.81413 95.5218 8.81413ZM66.0808 10.2213C63.6272 10.2213 61.6539 12.611 61.6539 15.5313C61.6539 18.4781 63.6272 20.8405 66.0808 20.8405C68.5075 20.8405 70.5078 18.4778 70.5078 15.5313C70.5078 12.5842 68.5345 10.2213 66.0808 10.2213ZM82.7479 10.2213C80.2943 10.2213 78.3214 12.611 78.3214 15.5313C78.3214 18.4781 80.2943 20.8405 82.7479 20.8405C85.2015 20.8405 87.1748 18.4778 87.1748 15.5313C87.1748 12.5842 85.2015 10.2213 82.7479 10.2213ZM49.7338 10.2482C47.8571 10.2482 46.2355 11.6427 45.5902 13.6386L45.547 13.7789H53.9207C53.3074 11.7346 51.6535 10.2482 49.7338 10.2482Z"/>
<path d="M27 12.1927C27 10.5542 25.6694 9.25308 24.0485 9.25308C23.2826 9.25203 22.5458 9.54547 21.9918 10.0722C19.9597 8.62654 17.1773 7.68673 14.0804 7.56652L15.435 1.25308L19.8385 2.19289C19.887 3.3014 20.8062 4.19295 21.9436 4.19295C23.1048 4.19295 24.0482 3.25314 24.0482 2.09613C24.0482 0.939581 23.1048 0 21.9436 0C21.1209 0 20.3952 0.481972 20.0564 1.18091L15.1452 0.144569C15 0.120436 14.8548 0.144569 14.7579 0.216968C14.637 0.289367 14.5643 0.409572 14.5405 0.554371L13.0401 7.5902C9.89515 7.68673 7.06431 8.62654 5.00792 10.0966C4.45405 9.56981 3.71739 9.27628 2.95154 9.27721C1.30615 9.27721 0 10.6022 0 12.2169C0 13.4217 0.725538 14.4334 1.74208 14.8917C1.6926 15.1863 1.66828 15.4846 1.66938 15.7833C1.66938 20.3129 6.96785 24 13.5 24C20.0324 24 25.3308 20.3371 25.3308 15.7833C25.3308 15.4939 25.3064 15.1804 25.2582 14.8915C25.7775 14.655 26.2176 14.2749 26.5264 13.7965C26.8351 13.3181 26.9994 12.7614 26.9998 12.1927M6.72531 14.2888C6.72531 13.1323 7.66892 12.1927 8.83061 12.1927C9.99185 12.1927 10.9352 13.1323 10.9352 14.2888C10.9352 15.4454 9.99185 16.3854 8.83061 16.3854C7.66892 16.4093 6.72531 15.4454 6.72531 14.2888ZM18.5079 19.8553C17.0564 21.301 14.298 21.3975 13.4998 21.3975C12.6773 21.3975 9.91915 21.2769 8.49138 19.8553C8.43975 19.8051 8.39872 19.7451 8.3707 19.6789C8.34268 19.6127 8.32825 19.5415 8.32825 19.4696C8.32825 19.3978 8.34268 19.3266 8.3707 19.2604C8.39872 19.1942 8.43975 19.1342 8.49138 19.084C8.54179 19.0326 8.602 18.9917 8.66848 18.9639C8.73496 18.936 8.80637 18.9216 8.8785 18.9216C8.95063 18.9216 9.02204 18.936 9.08852 18.9639C9.155 18.9917 9.21521 19.0326 9.26562 19.084C10.1852 19.9999 12.1207 20.3129 13.4998 20.3129C14.8788 20.3129 16.8383 19.9999 17.7335 19.084C17.7839 19.0325 17.8441 18.9917 17.9106 18.9638C17.9771 18.9359 18.0485 18.9215 18.1207 18.9215C18.1929 18.9215 18.2643 18.9359 18.3308 18.9638C18.3973 18.9917 18.4575 19.0325 18.5079 19.084C18.6016 19.1908 18.6533 19.3278 18.6533 19.4696C18.6533 19.6115 18.6016 19.7485 18.5079 19.8553ZM18.1205 16.4093C16.9592 16.4093 16.0158 15.4698 16.0158 14.3132C16.0158 13.1567 16.9592 12.2171 18.1205 12.2171C19.2822 12.2171 20.2255 13.1567 20.2255 14.3132C20.2255 15.4454 19.2822 16.4093 18.1205 16.4093Z"/>
</svg>
