<svg width="128" height="41" viewBox="0 0 228 41" xmlns="http://www.w3.org/2000/svg">
<path d="M81.7516 0.5C90.4627 0.5 97.4335 2.67804 102.759 7.52652C106.4 10.8314 108.434 15.5379 108.377 20.4716C108.368 22.9066 107.865 25.3145 106.9 27.5494C105.934 29.7843 104.525 31.7997 102.759 33.4735C97.774 38.0568 90.0087 40.5 81.761 40.5C73.5134 40.5 65.871 38.0568 60.8108 33.4735C58.9825 31.8441 57.5266 29.8392 56.5424 27.5955C55.5582 25.3517 55.0687 22.9219 55.1075 20.4716C55.1075 15.5663 57.1694 10.8599 60.8108 7.52652C65.54 3.22728 73.9012 0.5 81.7516 0.5ZM81.78 35.2538C86.1403 35.2538 90.179 33.7292 93.0165 30.9167C95.854 28.0758 97.1119 24.6667 97.1119 20.4716C97.1119 16.4564 95.7121 12.697 93.0165 10.0265C90.2357 7.28031 86.0835 5.72727 81.78 5.72727C77.4764 5.72727 73.3337 7.27084 70.5245 10.0265C67.8289 12.697 66.4196 16.4564 66.4196 20.4716C66.362 24.3584 67.8369 28.1113 70.5245 30.9167C73.3337 33.7008 77.4575 35.2538 81.78 35.2538ZM35.9922 16.6174C37.5055 17.0025 38.9747 17.517 40.3998 18.161C41.7206 18.7726 42.9318 19.5981 43.9845 20.6042C45.8478 22.5549 46.9071 25.1686 46.8787 27.8674C46.899 29.2907 46.5852 30.6988 45.9626 31.9785C45.3399 33.2581 44.4259 34.3735 43.294 35.2348C41.2877 36.7514 39.0121 37.8729 36.588 38.5398C32.9369 39.6912 29.1218 40.235 25.2948 40.1496C21.9655 40.1496 20.1305 39.7614 17.6052 39.2311L16.8769 39.0795C14.0938 38.4645 11.3762 37.5829 8.76163 36.447C8.64471 36.3676 8.50551 36.3278 8.36438 36.3333C8.15696 36.3383 7.9597 36.4243 7.81477 36.5729C7.66984 36.7215 7.58873 36.9211 7.58879 37.1288V39.0511H2.02729V25.0549H6.98346C7.01623 26.4734 7.46705 27.8505 8.27925 29.0133C10.2844 31.4754 12.4409 32.4223 14.4934 33.1799C17.9646 34.3163 21.606 34.9223 25.238 35.036C30.4685 35.036 33.5235 33.767 34.1856 33.4924L34.2708 33.4545L34.3275 33.4356C34.9139 33.2178 37.2785 32.3561 37.2785 29.7235C37.2785 27.1288 35.0653 26.5606 33.6181 26.1913L33.41 26.1439C31.8021 25.7083 28.0945 25.3106 24.0463 24.8845L22.6086 24.7329C18.8127 24.3441 15.0353 23.7912 11.287 23.0758C6.57675 22.0341 4.72292 20.3106 3.569 19.2405L3.49334 19.1648C1.8112 17.369 0.877433 14.9979 0.882836 12.536C0.882836 7.83902 4.09867 4.99811 8.05225 3.25568C12.3532 1.41734 16.9864 0.485734 21.6628 0.518947C29.4186 0.547356 35.7273 3.07577 37.9973 4.25001C38.9148 4.74243 39.3688 4.13637 39.3688 3.68182V2.27084H44.3533V14.4678H39.889C39.4921 12.6563 38.5158 11.0239 37.1082 9.81818C36.2517 9.13009 35.3069 8.56 34.2991 8.12311C30.5581 6.53742 26.5288 5.74736 22.4668 5.80303C18.2767 5.80303 14.2664 6.60796 12.2518 7.83902C10.9969 8.62185 10.3664 9.58775 10.3601 10.7367C10.3601 12.375 11.741 13.0284 12.4409 13.2273C14.2948 13.7955 18.4186 14.2027 21.625 14.5246L23.5545 14.7235C26.6473 15.036 33.1263 15.8977 35.9922 16.6174ZM207.822 7.17614V2.64016H227.883V7.09091H223.381C221.754 7.09091 221.092 7.40341 219.862 8.78598L206.365 24.2216C206.224 24.4122 206.16 24.6488 206.185 24.8845V31.911C206.206 32.2379 206.244 32.5634 206.299 32.8864C206.379 33.0923 206.507 33.2767 206.671 33.4246C206.835 33.5726 207.032 33.6801 207.245 33.7386C207.652 33.7969 208.063 33.8286 208.474 33.8333H213.071V38.2841H188.725V33.8333H193.076C193.488 33.8286 193.898 33.7969 194.306 33.7386C194.523 33.6787 194.724 33.5712 194.894 33.4237C195.064 33.2763 195.199 33.0927 195.289 32.8864C195.334 32.5723 195.362 32.2563 195.375 31.9394V24.9129C195.375 24.6761 195.375 24.6761 195.062 24.3068L181.717 9.13637C180.998 8.38826 179.768 7.18561 177.877 7.18561H173.545V2.73485H198.023V7.18561H195.072C194.41 7.18561 193.956 7.84849 194.523 8.56818L202.837 18.5208C202.922 18.6345 202.979 18.6345 203.093 18.5492C203.206 18.464 211.548 8.65341 211.605 8.56818C211.675 8.47808 211.726 8.37482 211.756 8.26451C211.785 8.1542 211.792 8.03909 211.776 7.92603C211.76 7.81297 211.722 7.70426 211.663 7.60635C211.605 7.50844 211.527 7.42333 211.435 7.35607C211.269 7.23987 211.07 7.18011 210.867 7.18561L207.822 7.17614ZM148.386 7.14773H152.973C155.063 7.14773 155.432 7.95265 155.46 9.90341L155.725 24.7329L131.304 2.72538H113.853V7.17614H117.75C120.559 7.17614 120.758 8.72917 120.758 10.1117V31.0682C120.758 32.2803 120.767 33.8617 119.036 33.8617H114.25V38.2841H134.718V33.8333H129.724C127.719 33.8333 127.643 32.9148 127.606 30.964V13.142L155.725 38.2462H162.885L162.507 9.87501C162.545 7.81061 162.687 7.11932 164.805 7.11932H169.279V2.66856H148.386V7.14773Z"/>
</svg>
