<svg width="108" height="24" viewBox="0 0 108 24" xmlns="http://www.w3.org/2000/svg">
<g clip-path="url(#clip0_654_162)">
<path d="M23.8282 22.2364C22.5105 22.2364 21.4783 21.9354 20.6211 21.1116L21.3832 20.351C22.0023 21.0004 22.8437 21.2541 23.8124 21.2541C25.0982 21.2541 25.8922 20.7945 25.8922 19.8756C25.8922 19.1943 25.495 18.8139 24.5901 18.7345L23.3042 18.6238C21.7802 18.4971 20.9704 17.8158 20.9704 16.5322C20.9704 15.1061 22.177 14.2505 23.844 14.2505C24.9552 14.2505 25.9555 14.52 26.6541 15.0901L25.9078 15.835C25.3522 15.4074 24.638 15.2171 23.8282 15.2171C22.6849 15.2171 22.0816 15.7084 22.0816 16.5004C22.0816 17.1661 22.4628 17.5623 23.447 17.6415L24.7013 17.7522C26.0667 17.8792 27.0032 18.4019 27.0032 19.8598C27.0032 21.3651 25.7173 22.2364 23.8282 22.2364ZM30.4795 22.1415C29.1457 22.1415 28.4789 21.2065 28.4789 20.0499V15.2646H27.4947V14.3931H28.4789V11.9531H29.6222V14.3931H31.289V15.2646H29.6222V20.0181C29.6222 20.7312 29.9555 21.1592 30.6858 21.1592H31.289V22.1415H30.4795ZM37.2008 18.5446H35.01C33.8351 18.5446 33.2634 19.02 33.2634 19.923C33.2634 20.8261 33.819 21.2541 35.0574 21.2541C35.7244 21.2541 36.3117 21.2065 36.8038 20.7312C37.0738 20.4777 37.2008 20.0341 37.2008 19.3842V18.5446ZM37.2008 22.1415V21.3966C36.5659 22.0305 35.9942 22.2366 34.9463 22.2366C33.8667 22.2366 33.2318 22.0305 32.7395 21.5236C32.3585 21.143 32.1522 20.5568 32.1522 19.939C32.1522 18.5764 33.1046 17.6888 34.8509 17.6888H37.2008V16.944C37.2008 15.8036 36.6291 15.2328 35.2002 15.2328C34.2004 15.2328 33.692 15.4707 33.2318 16.1202L32.4538 15.4074C33.1523 14.5042 33.9462 14.2505 35.2163 14.2505C37.3117 14.2505 38.3436 15.1537 38.3436 16.8488V22.1415H37.2008ZM42.8208 22.2364C40.8521 22.2364 39.3597 20.9055 39.3597 18.2436C39.3597 15.5817 40.8521 14.2505 42.8208 14.2505C43.9004 14.2505 44.583 14.5358 45.3925 15.4074L44.6148 16.136C44.0274 15.4863 43.5669 15.2646 42.8208 15.2646C42.0587 15.2646 41.4237 15.5657 41.0109 16.152C40.6458 16.659 40.5028 17.2613 40.5028 18.2436C40.5028 19.2259 40.6458 19.828 41.0109 20.3352C41.4237 20.9213 42.0587 21.2223 42.8208 21.2223C43.5669 21.2223 44.0274 20.9848 44.6148 20.3352L45.3925 21.08C44.583 21.9512 43.9004 22.2364 42.8208 22.2364ZM51.6504 22.1415L49.1738 18.1484L47.6496 19.8914V22.1415H46.5065V10.8594H47.6498V18.4021L51.1741 14.3457H52.603L49.9515 17.3246L53.0633 22.1415H51.6504ZM57.674 16.3347C57.4482 16.1095 57.1472 15.9895 56.7562 15.9895C56.3651 15.9895 56.0791 16.1095 55.8534 16.3347C55.4469 16.7402 55.4019 17.416 55.4019 18.227C55.4019 19.0379 55.4469 19.7286 55.8534 20.1339C56.0791 20.3592 56.3649 20.4796 56.7562 20.4796C57.1472 20.4796 57.4482 20.3592 57.674 20.1339C58.08 19.7286 58.1254 19.0379 58.1254 18.227C58.1254 17.416 58.08 16.7402 57.674 16.3347ZM59.1938 21.2754C58.712 21.7861 57.9146 22.2364 56.7562 22.2364C55.5975 22.2364 54.8151 21.7859 54.3338 21.2754C53.6265 20.5396 53.4459 19.6535 53.4459 18.227C53.4459 16.8154 53.6265 15.9293 54.3338 15.1933C54.8151 14.683 55.5975 14.2322 56.7562 14.2322C57.9146 14.2322 58.712 14.6827 59.1938 15.1935C59.9008 15.9293 60.0814 16.8154 60.0814 18.2272C60.0814 19.6535 59.9008 20.5396 59.1938 21.2754ZM64.4773 22.1463H62.9427L60.0538 14.3225H62.115L63.7101 19.1579L65.2901 14.3221H67.3511L64.4773 22.1463ZM71.988 16.6653C71.7774 16.1996 71.341 15.8543 70.6789 15.8543C70.017 15.8543 69.5805 16.1996 69.37 16.6651C69.2496 16.9505 69.2042 17.1604 69.1892 17.5061H72.1685C72.1533 17.1604 72.1084 16.9503 71.988 16.6651M69.1892 18.8423C69.1892 19.8486 69.8062 20.5844 70.9046 20.5844C71.7623 20.5844 72.1835 20.3442 72.6803 19.8484L73.8689 21.0048C73.0713 21.8006 72.3039 22.2364 70.8896 22.2364C69.0388 22.2364 67.2634 21.3954 67.2634 18.2267C67.2634 15.6737 68.6476 14.232 70.6789 14.232C72.8606 14.232 74.0946 15.824 74.0946 17.9714V18.8423H69.1892ZM79.3269 16.4547C79.0259 16.1545 78.7702 15.9895 78.2889 15.9895C77.6871 15.9895 77.0247 16.44 77.0247 17.431V22.1463H75.0687V14.3225H76.9798V15.0733C77.3557 14.6227 78.1083 14.2322 78.9508 14.2322C79.7182 14.2322 80.2599 14.4276 80.8016 14.9682L79.3269 16.4547ZM88.7718 22.1463C87.162 22.1463 86.4849 21.02 86.4849 19.9088V11.1211H88.4409V19.7884C88.4409 20.2543 88.6366 20.4943 89.1327 20.4943H89.8852V22.1463H88.7718ZM84.1101 15.8124V22.1463H82.1541V15.8124H81.3418V14.3259H82.1541V13.3495C82.1541 12.2383 82.8462 11.112 84.4413 11.112H85.5546V12.7638H84.8024C84.336 12.7638 84.1103 13.0192 84.1103 13.4697V14.3259H85.5546V15.8122L84.1101 15.8124ZM94.394 16.3347C94.1683 16.1095 93.8672 15.9895 93.476 15.9895C93.0849 15.9895 92.7988 16.1095 92.5731 16.3347C92.1669 16.7402 92.1217 17.416 92.1217 18.227C92.1217 19.0379 92.1669 19.7286 92.5731 20.1339C92.7988 20.3592 93.0849 20.4796 93.476 20.4796C93.867 20.4796 94.1683 20.3592 94.394 20.1339C94.8 19.7286 94.8454 19.0379 94.8454 18.227C94.8454 17.416 94.8 16.7402 94.394 16.3347ZM95.9135 21.2754C95.432 21.7861 94.6344 22.2364 93.476 22.2364C92.3175 22.2364 91.5353 21.7859 91.0538 21.2754C90.3465 20.5396 90.1657 19.6535 90.1657 18.227C90.1657 16.8154 90.3465 15.9293 91.0538 15.1933C91.5351 14.683 92.3173 14.2322 93.476 14.2322C94.6344 14.2322 95.432 14.6827 95.9135 15.1935C96.6208 15.9293 96.8016 16.8154 96.8016 18.2272C96.8016 19.6535 96.6208 20.5396 95.9135 21.2754ZM105.579 22.1463H103.969L102.329 17.2358L100.689 22.1463H99.0795L96.6721 14.3225H98.7485L100.012 19.1579L101.607 14.3221H103.036L104.647 19.1579L105.911 14.3221H107.972L105.579 22.1463Z"/>
<path d="M13.3475 15.4053L4.1875 13.188L4.63195 11.3596L13.7919 13.5769L13.3475 15.4053Z"/>
<path d="M13.9616 13.2177L5.56836 8.9373L6.42603 7.26172L14.8192 11.5424L13.9616 13.2177Z"/>
<path d="M15.2543 10.9518L8.15625 4.76233L9.39635 3.3457L16.4946 9.53476L15.2543 10.9518Z"/>
<path d="M17.2073 8.95984L11.9138 1.17647L13.4739 0.119629L18.7672 7.90342L17.2073 8.95984Z"/>
<path d="M13.2009 17.6921L3.78931 17.1793L3.89203 15.3005L13.3036 15.8134L13.2009 17.6921Z"/>
<path d="M15.1523 22.1177V14.3232H17.0357L17.037 23.9994H0L0.000421875 14.3152H1.88557V22.1177H15.1523Z"/>
<path d="M3.76318 18.3621H13.2528V20.2435H3.76318V18.3621Z"/>
</g>
<defs>
<clipPath id="clip0_654_162">
<rect width="108" height="24"/>
</clipPath>
</defs>
</svg>
