<svg width="71" height="24" viewBox="0 0 71 24" xmlns="http://www.w3.org/2000/svg">
<path d="M3.5074 14.5646V0.00356857H0V14.7465C0 20.2862 3.87305 23.9497 8.88565 23.9497C11.3458 23.9497 13.49 22.9866 15.084 21.3421V23.5395H18.5487V0.00356857H15.0378V14.5646C15.0378 18.3208 12.5315 20.8356 9.29745 20.8356C6.0137 20.7928 3.51095 18.3636 3.51095 14.5646M22.01 23.5858H25.3363V21.4313C26.8877 23.0365 29.0745 23.9996 31.4424 23.9996C32.6209 24.0105 33.7899 23.786 34.8815 23.3392C35.9731 22.8925 36.9654 22.2323 37.801 21.397C38.6366 20.5617 39.2987 19.568 39.7489 18.4735C40.1992 17.379 40.4286 16.2055 40.4238 15.0212C40.4281 13.8371 40.1984 12.6641 39.7479 11.57C39.2974 10.4759 38.6352 9.48257 37.7997 8.64766C36.9642 7.81276 35.972 7.15288 34.8807 6.70632C33.7894 6.25976 32.6206 6.03541 31.4424 6.04628C29.0745 6.04628 26.9338 7.0094 25.3825 8.61461V0H22.01V23.5858ZM25.3363 15.0247C25.3363 13.4581 25.9557 11.9555 27.0582 10.8477C28.1607 9.73993 29.656 9.11758 31.2152 9.11758C32.7743 9.11758 34.2696 9.73993 35.3721 10.8477C36.4746 11.9555 37.094 13.4581 37.094 15.0247C37.094 18.3172 34.4528 20.9747 31.2152 20.9747C30.4391 20.9752 29.6706 20.8212 28.9542 20.5216C28.2377 20.222 27.5873 19.7828 27.0407 19.2292C26.4941 18.6757 26.0621 18.0188 25.7696 17.2965C25.477 16.5743 25.3298 15.8045 25.3363 15.0247ZM42.4261 14.9712C42.4261 20.1008 46.3914 23.9497 51.4963 23.9497C54.5955 23.9497 57.1479 22.5728 58.8803 20.2827L56.4166 18.4527C55.1386 20.1471 53.4559 20.9711 51.4963 20.9711C48.6244 20.9711 46.2991 18.8665 45.8447 16.0735H59.743V14.9712C59.743 9.84527 56.1433 6.04271 51.223 6.04271C46.2104 6.04271 42.4261 10.1199 42.4261 14.9712ZM51.1306 9.02126C53.6369 9.02126 55.735 10.7585 56.3243 13.416H45.8873C46.5263 10.7585 48.6243 9.02126 51.1306 9.02126ZM71 9.43148V6.27101H69.8143C67.947 6.27101 66.5802 7.14139 65.714 8.5183V6.41012H62.4338V23.5823H65.8064V13.7834C65.8064 11.1259 67.4003 9.38511 69.6332 9.38511H71V9.43148Z"/>
</svg>
