<svg width="80" height="24" viewBox="0 0 80 24" xmlns="http://www.w3.org/2000/svg">
<g clip-path="url(#clip0_654_198)">
<path d="M21.8917 15.1573C20.5916 15.1573 19.3733 14.6047 18.2664 13.7051L18.536 12.4351L18.5477 12.388C18.7877 11.0359 19.5491 8.76623 21.8917 8.76623C23.6486 8.76623 25.0777 10.2009 25.0777 11.9647C25.0717 13.7226 23.6428 15.1573 21.8917 15.1573ZM21.8917 5.5267C18.8989 5.5267 16.5799 7.4787 15.6371 10.6889C14.1963 8.51933 13.1069 5.91478 12.4686 3.72168H9.24753V12.1352C9.24753 13.7932 7.9005 15.1454 6.24893 15.1454C4.59737 15.1454 3.2505 13.7932 3.2505 12.1352V3.72168H0.0290895V12.1352C0.0173707 15.5807 2.81096 18.4086 6.24284 18.4086C9.67471 18.4086 12.4688 15.5807 12.4688 12.1352V10.7242C13.0953 12.0352 13.8625 13.3581 14.7938 14.5341L12.82 23.847H16.1174L17.5463 17.0916C18.7996 17.8971 20.2403 18.4028 21.8919 18.4028C25.4233 18.4028 28.2989 15.4983 28.2989 11.9529C28.2989 8.41344 25.4233 5.5267 21.8919 5.5267"/>
<path d="M38.1316 5.8912L40.2107 14.3047L42.5007 5.8912H45.2297L41.7101 18.0499H38.9808L36.8199 9.58344L34.6646 18.044H31.9355L28.4155 5.8854H31.1447L33.4346 14.2989L35.5137 5.8854H38.1315L38.1316 5.8912ZM51.7597 5.52665C48.2166 5.52665 45.3469 8.4134 45.3469 11.9646C45.3469 15.5218 48.2224 18.4027 51.7597 18.4027C55.303 18.4027 58.1785 15.5218 58.1785 11.9646C58.1785 8.40759 55.303 5.52665 51.7597 5.52665ZM51.7597 15.7569C49.6749 15.7569 47.9882 14.0636 47.9882 11.9706C47.9882 9.87755 49.6807 8.18422 51.7597 8.18422C53.8447 8.18422 55.5313 9.8774 55.5313 11.9706C55.5313 14.0578 53.8447 15.7569 51.7597 15.7569ZM65.9735 8.6134C64.1405 8.6134 62.6588 10.1067 62.6588 11.9411V18.044H59.9119V5.8912H62.6588V7.76085C62.6588 7.76085 63.8301 5.88524 66.2371 5.88524H67.0804V8.6134H65.9735ZM75.1918 11.4943C77.1418 10.3889 78.4655 8.28995 78.4655 5.88524H75.7187C75.7187 7.91363 74.079 9.55991 72.0585 9.55991H71.6894V0.0234375H68.9429V18.0438H71.6894V12.3174H72.0176C72.2869 12.3174 72.6383 12.4939 72.7965 12.7113L76.6968 18.044H79.9882L75.1918 11.4943Z"/>
</g>
<defs>
<clipPath id="clip0_654_198">
<rect width="80" height="24"/>
</clipPath>
</defs>
</svg>
