<svg width="95" height="24" viewBox="0 0 95 24" xmlns="http://www.w3.org/2000/svg">
<path d="M30.6755 9.3853C30.6755 7.67348 29.0182 5.85542 26.1506 5.85542C22.9303 5.85542 19.3926 8.22831 18.8519 12.9621C18.2996 17.7433 21.2613 19.8683 24.2465 19.8683C27.2318 19.8683 28.795 18.6996 30.3935 17.1413C29.0182 15.4058 27.2437 16.2087 26.9028 16.3858C26.5267 16.5746 26.0448 16.8344 25.0575 16.8344C23.9057 16.8344 22.7304 16.315 22.7304 14.1545C30.1115 13.4227 30.6755 11.0969 30.6755 9.3853ZM27.0203 9.66858C26.9733 10.1997 26.7618 11.1089 23.0243 11.6164C23.8118 8.8068 25.316 8.59434 26.0096 8.59434C26.656 8.59434 27.0672 9.10183 27.0203 9.66858ZM14.515 10.1289C14.515 10.1289 12.9285 15.1343 12.799 15.5475C12.7521 15.1226 11.5885 6.13871 11.5885 6.13871C8.88528 6.13871 7.43969 8.07474 6.67579 10.1172C6.67579 10.1172 4.74814 15.1343 4.58375 15.5592C4.57188 15.1697 4.28984 10.1763 4.28984 10.1763C4.12526 7.67329 1.84526 6.15063 0 6.15063L2.23306 19.7621C5.06562 19.7504 6.59341 17.8261 7.39274 15.7836C7.39274 15.7836 9.09681 11.3567 9.16731 11.156C9.17919 11.3448 10.3897 19.7621 10.3897 19.7621C13.2339 19.7621 14.7619 17.9558 15.5846 15.9843L19.5689 6.15063C16.7597 6.15063 15.279 8.07473 14.515 10.1289ZM41.1122 5.83175C39.361 5.83175 38.0212 6.78803 36.8928 8.19289V8.18115L37.9037 0C35.5766 0 33.6844 2.03052 33.32 5.05253L31.5569 19.6559C32.8969 19.6559 34.3189 19.2663 35.0828 18.2747C35.7645 19.1599 36.7871 19.8683 38.3032 19.8683C42.2288 19.8683 44.9202 15.2879 44.9202 10.9907C44.8968 7.07131 43.0044 5.83175 41.1122 5.83175ZM40.7479 12.8563C40.3366 15.2527 39.0084 16.8819 37.7272 16.8819C36.4345 16.8819 35.8822 16.3032 35.8822 16.3032C36.1289 14.2019 36.2817 12.9152 36.7518 11.8055C37.222 10.6959 38.3384 8.92496 39.502 8.92496C40.642 8.92496 41.1593 10.448 40.7479 12.8563ZM54.7222 6.15026H51.9837L51.9956 6.00862C52.1836 4.21423 52.6066 3.26989 54.0053 3.11651C54.9573 3.02202 55.3804 2.52608 55.4861 1.98318C55.5685 1.55825 55.827 0.0823762 55.827 0.0823762C50.3266 0.0469656 48.599 2.43178 48.1524 6.0677L48.1405 6.15045H48.0817C47.1885 6.15045 46.2014 7.16561 46.0368 8.45232L45.978 8.92459H47.8115L46.2719 21.6979L45.8017 23.9883C45.8605 23.9883 45.931 24 45.9896 24C48.5637 23.9055 50.209 21.8633 50.5734 18.9001L51.7722 8.92459H52.6302C53.4763 8.92459 54.4638 8.07473 54.64 6.65794L54.7222 6.15026ZM68.967 5.91432C65.8053 5.91432 62.8201 8.25179 61.9033 11.9231C60.9867 15.5946 62.3734 19.939 67.0277 19.939C71.6701 19.939 74.3499 15.4176 74.3499 11.6516C74.3499 7.90924 71.823 5.91432 68.967 5.91432ZM70.248 12.7378C70.0835 14.4022 69.3548 16.9287 67.3569 16.9287C65.347 16.9287 65.629 13.9773 65.8289 12.5724C66.0404 11.0733 66.875 8.93633 68.6733 8.93633C70.2833 8.93633 70.436 10.8606 70.248 12.7378ZM89.9698 10.1287C89.9698 10.1287 88.383 15.1341 88.2537 15.5473C88.2068 15.1224 87.0432 6.13852 87.0432 6.13852C84.34 6.13852 82.8944 8.07455 82.1305 10.117C82.1305 10.117 80.2028 15.1341 80.0384 15.559C80.0266 15.1695 79.7445 10.1761 79.7445 10.1761C79.5799 7.6731 77.2999 6.15045 75.4547 6.15045L77.676 19.7619C80.5084 19.7502 82.0364 17.8259 82.8355 15.7834C82.8355 15.7834 84.5398 11.3566 84.5986 11.1558C84.6103 11.3446 85.8208 19.7619 85.8208 19.7619C88.6652 19.7619 90.193 17.9556 91.0158 15.9842L95 6.15063C92.2027 6.15063 90.7218 8.07455 89.9698 10.1287ZM57.308 0.0825626L55.0043 18.7467L54.5343 21.0488C54.5929 21.0488 54.6634 21.0607 54.7222 21.0607C57.2021 21.0253 58.9651 18.8412 59.2941 16.0906L60.6222 5.38316C61.0219 2.11308 59.0826 0.082749 57.308 0.082749"/>
</svg>
